<svg width="144" height="172" fill="none" xmlns="http://www.w3.org/2000/svg"><g clip-path="url(#a)"><path d="M118.63 131.963c25.384-25.385 25.384-66.54 0-91.925-25.385-25.384-66.54-25.384-91.925 0-25.384 25.384-25.384 66.54 0 91.925 25.384 25.384 66.54 25.384 91.925 0z" fill="url(#b)"/><path d="M114.079 127.412c22.871-22.871 22.871-59.952 0-82.823-22.871-22.87-59.952-22.87-82.823 0-22.87 22.87-22.87 59.952 0 82.823 22.87 22.87 59.952 22.87 82.823 0z" fill="#06BA9F"/><path d="M129.959 86c0 31.641-25.653 57.292-57.291 57.292-31.639 0-57.292-25.651-57.292-57.292 0-31.64 25.652-57.29 57.292-57.29S129.959 54.358 129.959 86z" fill="url(#c)"/><path d="M30.98 125.292 72.67 85.999 17.78 102.463a57.215 57.215 0 0 0 13.2 22.829z" fill="url(#d)"/><path d="M72.667 143.292c4.44.001 8.864-.511 13.186-1.528L72.667 85.999 59.48 141.764a57.513 57.513 0 0 0 13.187 1.528z" fill="url(#e)"/><path d="M127.553 102.463 72.667 86l41.69 39.292a57.213 57.213 0 0 0 13.196-22.829z" fill="url(#f)"/><path d="M114.357 46.71 72.667 86l54.886-16.463a57.207 57.207 0 0 0-13.196-22.826z" fill="url(#g)"/><path d="M17.78 69.537 72.667 86 30.98 46.71a57.222 57.222 0 0 0-13.2 22.827z" fill="url(#h)"/><path d="M72.667 28.708c-4.44-.002-8.865.511-13.186 1.528l13.186 55.763 13.186-55.763a57.46 57.46 0 0 0-13.186-1.528z" fill="url(#i)"/><path d="M71.134 44.413h3.992v1.129h-3.12v.74h-.872v-1.869zM74.961 42.966c-.172.273-.421.49-.715.623a2.864 2.864 0 0 1-2.232 0 1.653 1.653 0 0 1-.715-.623 1.81 1.81 0 0 1 0-1.819c.172-.273.42-.49.715-.624a2.873 2.873 0 0 1 2.232 0c.294.133.543.35.715.624a1.81 1.81 0 0 1 0 1.819zm-.955-1.365c-.184-.112-.475-.166-.874-.166-.4 0-.69.058-.875.166a.514.514 0 0 0 0 .91c.184.11.476.165.874.165.399 0 .69-.056.875-.166a.513.513 0 0 0 0-.91zM74.732 36.877c.23.225.377.553.442.983h.633v.684h-.61a3.534 3.534 0 0 1-.146.81c-.064.223-.16.436-.287.632l-.832-.37c.124-.193.22-.402.285-.622.07-.225.107-.46.108-.695 0-.433-.108-.65-.325-.65a.27.27 0 0 0-.253.185 3.453 3.453 0 0 0-.174.596 5.585 5.585 0 0 1-.208.752 1.26 1.26 0 0 1-.357.518.96.96 0 0 1-.661.218 1.145 1.145 0 0 1-.84-.354c-.234-.236-.377-.576-.43-1.02h-.627v-.684h.615c.018-.211.056-.42.114-.624.053-.185.13-.363.227-.528l.838.348c-.194.336-.3.717-.308 1.105 0 .224.033.387.1.49a.3.3 0 0 0 .259.153.255.255 0 0 0 .239-.182c.073-.19.128-.386.165-.587.051-.256.121-.509.209-.755.073-.2.195-.377.352-.519a.944.944 0 0 1 .662-.219 1.125 1.125 0 0 1 .81.335zM71.082 127.797h-.894v-3.105h.706l1.396 1.488c.1.115.219.214.35.291a.64.64 0 0 0 .294.075.366.366 0 0 0 .302-.132.585.585 0 0 0 .108-.382.844.844 0 0 0-.1-.406.833.833 0 0 0-.287-.306l.467-.837c.26.157.471.384.61.655.155.309.231.652.222.998a2.05 2.05 0 0 1-.148.806 1.262 1.262 0 0 1-.424.547c-.188.132-.412.2-.642.196a1.383 1.383 0 0 1-.612-.14c-.192-.092-.41-.272-.653-.538l-.695-.752v1.542zM70.353 128.969c.172-.274.42-.49.715-.624a2.87 2.87 0 0 1 2.232 0c.294.134.543.351.715.624a1.81 1.81 0 0 1 0 1.819c-.172.273-.42.49-.715.624a2.87 2.87 0 0 1-2.232 0 1.656 1.656 0 0 1-.715-.624 1.807 1.807 0 0 1 0-1.819zm.954 1.365c.185.11.476.165.875.165.398 0 .69-.055.874-.165a.51.51 0 0 0 .203-.721.517.517 0 0 0-.203-.191c-.184-.11-.476-.165-.874-.165-.399 0-.69.055-.875.165a.517.517 0 0 0 0 .914v-.002zM70.58 135.06c-.23-.226-.377-.554-.442-.983h-.633v-.684h.61c.017-.274.066-.545.145-.808.064-.224.161-.438.288-.633l.832.37c-.124.192-.22.401-.285.621-.07.225-.107.459-.108.695 0 .434.108.65.325.65a.267.267 0 0 0 .253-.185c.076-.193.135-.392.174-.595.052-.256.121-.507.208-.753.073-.2.196-.378.356-.518a.958.958 0 0 1 .662-.217 1.139 1.139 0 0 1 .84.353c.235.236.378.576.431 1.02h.627v.684h-.616c-.018.211-.056.42-.114.624a2.29 2.29 0 0 1-.222.534l-.838-.349c.193-.336.3-.716.308-1.105 0-.224-.034-.388-.1-.49a.3.3 0 0 0-.26-.154.26.26 0 0 0-.238.183c-.073.19-.129.386-.166.587-.051.256-.12.508-.207.754a1.311 1.311 0 0 1-.354.519.942.942 0 0 1-.661.219 1.136 1.136 0 0 1-.816-.339zM113.132 64.59l.444.775-2.694 1.544-.352-.613.601-1.954c.052-.144.08-.296.083-.449a.634.634 0 0 0-.083-.29.371.371 0 0 0-.264-.197.583.583 0 0 0-.384.095.842.842 0 0 0-.305.289.827.827 0 0 0-.12.402l-.96.01c.008-.303.1-.6.265-.854a2.12 2.12 0 0 1 .755-.689c.237-.142.5-.235.774-.272.233-.033.47 0 .685.097.208.096.379.257.49.458a1.4 1.4 0 0 1 .183.6c.015.214-.033.491-.143.834l-.307.978 1.332-.765zM116.302 63.353c-.082.312-.293.603-.633.873l.314.549-.593.338-.303-.528a3.604 3.604 0 0 1-.774.276c-.226.056-.46.078-.692.065l-.093-.91c.229.012.458-.009.681-.062.231-.049.454-.132.661-.248.376-.215.51-.413.403-.605a.272.272 0 0 0-.287-.127 3.41 3.41 0 0 0-.603.145c-.247.082-.5.147-.756.194a1.27 1.27 0 0 1-.628-.051.967.967 0 0 1-.517-.466 1.151 1.151 0 0 1-.11-.905c.087-.32.311-.614.671-.881l-.312-.544.593-.34.307.535c.192-.09.392-.161.597-.212.188-.048.38-.072.573-.072l.115.9c-.388 0-.771.097-1.112.282-.195.112-.32.222-.376.331a.304.304 0 0 0-.005.301.257.257 0 0 0 .278.117c.201-.03.399-.08.591-.148a5.51 5.51 0 0 1 .759-.195c.209-.035.424-.018.626.05.225.082.41.247.517.461a1.12 1.12 0 0 1 .108.877zM36.988 108.158l-1.984-3.461.98-.561 1.55 2.704.642-.368.433.757-1.62.929zM33.206 108.256a1.126 1.126 0 0 1-.802-.591 1.263 1.263 0 0 1-.172-.686c.013-.26.102-.51.257-.719a2.26 2.26 0 0 1 .744-.641c.244-.14.504-.249.774-.326.247-.074.504-.108.76-.1l.072.937a2.018 2.018 0 0 0-1.123.263.853.853 0 0 0-.349.331.345.345 0 0 0 0 .354c.029.055.072.1.125.131a.325.325 0 0 0 .174.047c.133 0 .324-.068.575-.211l.94-.539.985 2.122-2.205 1.264-.433-.757 1.394-.798-.248-.53-.222.13c-.485.277-.9.384-1.246.319zM29.046 108.561c.082-.312.293-.603.634-.871l-.315-.549.594-.34.303.529c.246-.122.506-.214.774-.276.226-.056.46-.078.692-.066l.092.91a2.36 2.36 0 0 0-.68.061c-.231.05-.453.135-.658.252-.375.215-.509.416-.402.604a.267.267 0 0 0 .287.128c.204-.03.406-.079.603-.145.248-.081.5-.146.756-.194.21-.035.426-.018.627.052a.958.958 0 0 1 .517.466 1.144 1.144 0 0 1 .111.904c-.088.321-.312.614-.67.881l.31.544-.593.34-.306-.534a3.25 3.25 0 0 1-.598.21 2.21 2.21 0 0 1-.572.072l-.115-.898a2.31 2.31 0 0 0 1.112-.284c.194-.111.319-.221.376-.331a.3.3 0 0 0 .004-.301.258.258 0 0 0-.277-.118c-.201.032-.4.082-.592.149a5.508 5.508 0 0 1-.758.195c-.21.035-.424.018-.626-.049a.946.946 0 0 1-.517-.462 1.123 1.123 0 0 1-.113-.879zM112.665 107.64l-2.017 3.441-.974-.571 1.576-2.688-.639-.376.441-.751 1.613.945zM113.982 112.583c-.311.084-.67.045-1.075-.116l-.32.546-.589-.346.307-.526a3.616 3.616 0 0 1-.624-.535 2.304 2.304 0 0 1-.4-.568l.744-.531c.213.416.538.764.938 1.006.372.22.614.236.724.048a.267.267 0 0 0-.032-.312 3.357 3.357 0 0 0-.425-.451 5.65 5.65 0 0 1-.544-.561 1.264 1.264 0 0 1-.268-.569.963.963 0 0 1 .148-.679 1.133 1.133 0 0 1 .729-.547c.321-.083.688-.035 1.099.144l.316-.54.591.346-.312.531c.173.122.334.26.481.413.134.139.251.294.347.461l-.724.548a2.3 2.3 0 0 0-.798-.827c-.193-.114-.351-.169-.473-.165a.3.3 0 0 0-.152.036.3.3 0 0 0-.112.109.259.259 0 0 0 .036.299c.127.159.269.306.424.439.194.175.377.362.546.562.134.164.226.359.269.567a.952.952 0 0 1-.144.679 1.137 1.137 0 0 1-.707.539zM32.69 64.29l2.017-3.443.974.572-1.576 2.69.639.375-.44.753-1.614-.946zM31.376 59.349c.311-.083.67-.045 1.075.116l.32-.545.589.345-.313.527c.228.153.438.332.625.533.16.169.295.36.4.569l-.739.532a2.376 2.376 0 0 0-.392-.56 2.352 2.352 0 0 0-.545-.445c-.374-.22-.615-.236-.724-.048a.269.269 0 0 0 .031.313c.128.163.27.314.426.45.194.175.376.362.544.56.135.165.227.36.268.57a.967.967 0 0 1-.148.68 1.142 1.142 0 0 1-.73.547c-.32.083-.687.035-1.098-.145l-.316.539-.59-.346.312-.532a3.24 3.24 0 0 1-.48-.413 2.295 2.295 0 0 1-.349-.461l.724-.547c.193.338.467.623.798.827.194.113.35.165.473.165a.301.301 0 0 0 .265-.146.256.256 0 0 0-.037-.298 3.29 3.29 0 0 0-.423-.44 5.497 5.497 0 0 1-.546-.562 1.303 1.303 0 0 1-.27-.566.944.944 0 0 1 .145-.68 1.135 1.135 0 0 1 .705-.54z" fill="#06BA9F"/><path d="m92.34 55.1.773.448-1.791 3.091-.612-.354-1.056-2.938-.983 1.698-.774-.448 1.722-2.977.612.355 1.057 2.938L92.34 55.1zM94.213 51.91l.755.438-1.607 2.77-3.45-2 1.57-2.706.755.437-1.008 1.74.578.338.889-1.534.73.423-.889 1.533.632.367 1.045-1.805zM95.24 49.77l-.309.533.916.53-.565.977-3.45-2 .913-1.578c.155-.283.369-.53.626-.723a1.353 1.353 0 0 1 1.54-.07c.233.127.424.32.551.553.12.232.17.494.146.753l1.516-.115-.605 1.045-1.28.095zm-1.364-1.406c-.148.05-.28.175-.396.376l-.315.534 1.011.585.315-.542c.116-.2.16-.377.132-.529a.534.534 0 0 0-.284-.368.541.541 0 0 0-.463-.063v.007zM97.672 47.307a2.04 2.04 0 0 1-3.126-1.812 2.55 2.55 0 0 1 1.14-1.967 2.04 2.04 0 0 1 3.126 1.811 2.548 2.548 0 0 1-1.14 1.968zm.145-1.864c-.001-.19-.054-.375-.154-.536a1.322 1.322 0 0 0-1.03-.598c-.19-.006-.378.04-.543.134a1.126 1.126 0 0 0-.544.945c0 .19.053.376.153.537a1.316 1.316 0 0 0 1.03.597c.19.007.378-.04.543-.134a1.12 1.12 0 0 0 .549-.946l-.004.001zM59.808 103.313c.196-.152.427-.251.672-.29l.322.898c-.347.046-.582.175-.705.389a.463.463 0 0 0-.059.396c.06.145.17.262.31.331l1.488.861.692-1.193.754.436-1.251 2.16-2.18-1.264c-.447-.258-.717-.565-.81-.92-.093-.355-.013-.75.24-1.187.133-.239.312-.449.527-.617zM57.565 108.586l.846-1.46-.513-.661.58-.992 2.568 3.523-.56.958-4.337-.472.589-1.016.827.12zm.886.132 1.362.196-.847-1.084-.515.888zM55.745 110.55a1.975 1.975 0 0 1 1.032-.307 2.154 2.154 0 0 1 1.854 1.075c.177.319.263.682.247 1.048-.017.39-.13.77-.33 1.106-.165.296-.39.554-.662.757-.25.184-.54.305-.848.35l-.203-.947c.4-.067.692-.26.876-.578.104-.173.161-.37.165-.572a.985.985 0 0 0-.15-.542 1.334 1.334 0 0 0-1.03-.597.993.993 0 0 0-.545.139 1.166 1.166 0 0 0-.414.429c-.185.318-.207.667-.066 1.048l-.922.296a1.904 1.904 0 0 1-.118-.91c.042-.336.155-.66.33-.95.188-.342.457-.632.784-.845zM54.39 115.406l-.18-.591-.863-.496.561-.966 3.451 2.001-.558.966-1.433-.837.661 2.168-.623 1.075-.712-2.296-2.783.37.662-1.135 1.817-.259zM53.67 121.358a1.408 1.408 0 0 1-2.102-.499 1.408 1.408 0 0 1-.135-.799c.04-.32.147-.628.316-.903l.348-.602-.902-.523.566-.975 3.45 1.999-.914 1.578c-.155.283-.368.53-.626.724zm-1.25-1.286a.535.535 0 0 0 .283.369.535.535 0 0 0 .463.065c.148-.05.28-.176.396-.376l.315-.543-1.01-.586-.316.542c-.115.202-.16.378-.131.529zM49.38 121.541a2.036 2.036 0 0 1 2.11-.039 2.044 2.044 0 0 1 1.015 1.851 2.556 2.556 0 0 1-1.14 1.968 2.042 2.042 0 0 1-3.126-1.809 2.553 2.553 0 0 1 1.14-1.967v-.004zm-.145 1.863c0 .19.054.375.153.537a1.312 1.312 0 0 0 1.03.597c.19.006.378-.04.543-.134a1.128 1.128 0 0 0 .548-.947c0-.189-.053-.375-.153-.536a1.314 1.314 0 0 0-1.03-.597 1.01 1.01 0 0 0-.543.134 1.119 1.119 0 0 0-.548.946zM49.517 127.097l.614-1.059.773.451-1.792 3.092-.775-.449.612-1.055-2.675-1.554.566-.977 2.677 1.551zM114.093 86.452a1.143 1.143 0 0 1 .397.914c0 .24-.067.476-.195.68a1.32 1.32 0 0 1-.583.496c-.305.13-.635.192-.967.18-.281 0-.562-.037-.835-.107a2.357 2.357 0 0 1-.707-.294l.408-.847a2.019 2.019 0 0 0 1.105.337.856.856 0 0 0 .464-.108.337.337 0 0 0 .13-.131.341.341 0 0 0 .045-.18.334.334 0 0 0-.041-.175.336.336 0 0 0-.128-.127c-.113-.069-.315-.104-.604-.106l-1.08-.012.211-2.33 2.541.013v.873l-1.607-.009-.055.579h.268c.555.007.966.125 1.233.354zM115.658 88.488a1.636 1.636 0 0 1-.62-.718 2.864 2.864 0 0 1 .01-2.228c.135-.294.353-.542.628-.712a1.808 1.808 0 0 1 1.819.009c.272.174.488.423.62.718a2.874 2.874 0 0 1-.011 2.232 1.644 1.644 0 0 1-.628.712 1.805 1.805 0 0 1-1.818-.009v-.004zm1.37-.948c.11-.183.167-.474.172-.873 0-.4-.053-.69-.166-.876a.51.51 0 0 0-.72-.206.522.522 0 0 0-.192.201c-.11.185-.167.476-.172.875 0 .398.052.691.165.875a.511.511 0 0 0 .457.279.51.51 0 0 0 .456-.275zM121.748 88.294c-.227.23-.555.375-.985.438v.632h-.684v-.61a3.57 3.57 0 0 1-.808-.15 2.334 2.334 0 0 1-.631-.29l.374-.826c.192.124.401.221.62.287.225.072.459.11.695.112.433 0 .649-.105.651-.322a.268.268 0 0 0-.184-.253 3.44 3.44 0 0 0-.595-.178 5.793 5.793 0 0 1-.751-.211 1.265 1.265 0 0 1-.517-.36.961.961 0 0 1-.213-.661c-.001-.157.03-.312.091-.457.062-.144.153-.274.267-.382.236-.232.577-.374 1.022-.425v-.628h.683v.616c.212.019.421.058.624.117.186.052.365.128.532.225l-.351.831a2.326 2.326 0 0 0-1.105-.313c-.224 0-.387.032-.49.098a.298.298 0 0 0-.155.258.254.254 0 0 0 .052.15.255.255 0 0 0 .129.09c.19.074.386.129.587.166.256.052.507.123.754.211.198.075.376.198.516.356a.941.941 0 0 1 .216.662 1.128 1.128 0 0 1-.344.817zM35.008 87.31l.02-3.99 1.128.006-.015 3.117h.74l-.004.871-1.869-.005zM33.58 83.479c.272.173.488.423.62.718a2.87 2.87 0 0 1-.01 2.228 1.66 1.66 0 0 1-.628.712 1.716 1.716 0 0 1-.914.24 1.696 1.696 0 0 1-.904-.247 1.637 1.637 0 0 1-.62-.719 2.865 2.865 0 0 1 .01-2.232c.135-.294.353-.541.628-.712a1.806 1.806 0 0 1 1.819.01l-.002.002zm-1.37.947c-.114.184-.171.475-.173.874-.001.4.054.691.166.876a.513.513 0 0 0 .909 0c.113-.184.171-.475.173-.873 0-.4-.053-.691-.165-.877a.514.514 0 0 0-.91 0zM29.676 83.46c.273.173.489.422.62.717a2.866 2.866 0 0 1-.01 2.228 1.647 1.647 0 0 1-.628.713 1.813 1.813 0 0 1-1.819-.009 1.654 1.654 0 0 1-.62-.718 2.867 2.867 0 0 1 .01-2.233c.136-.293.354-.54.628-.711a1.808 1.808 0 0 1 1.82.009v.004zm-1.37.949c-.11.183-.167.475-.172.874 0 .4.053.69.166.875a.514.514 0 0 0 .909.004c.114-.183.171-.474.173-.873.001-.4-.054-.691-.166-.876a.513.513 0 0 0-.909 0v-.004zM23.587 83.655c.226-.229.555-.375.984-.437v-.633h.684v.61c.274.019.545.069.808.15.224.064.437.162.631.29l-.374.827a2.396 2.396 0 0 0-.62-.288 2.346 2.346 0 0 0-.695-.112c-.433 0-.65.106-.651.322a.269.269 0 0 0 .184.254c.192.077.391.137.595.178.255.052.506.123.751.21.2.075.377.198.517.36.15.186.227.421.213.66a1.14 1.14 0 0 1-.358.84c-.236.232-.577.374-1.022.425v.626h-.684v-.615a3.377 3.377 0 0 1-.624-.117 2.329 2.329 0 0 1-.532-.225l.354-.835c.336.195.716.303 1.104.313.224 0 .387-.032.49-.097a.298.298 0 0 0 .155-.258.257.257 0 0 0-.181-.24 3.313 3.313 0 0 0-.585-.166 5.368 5.368 0 0 1-.755-.212 1.296 1.296 0 0 1-.517-.355.943.943 0 0 1-.216-.661 1.125 1.125 0 0 1 .344-.814zM94.76 125.564a1.143 1.143 0 0 1-.595.798 1.267 1.267 0 0 1-.686.165 1.315 1.315 0 0 1-.718-.261 2.24 2.24 0 0 1-.638-.749 3.48 3.48 0 0 1-.322-.777 2.398 2.398 0 0 1-.097-.76l.938-.067a2.014 2.014 0 0 0 .258 1.126.864.864 0 0 0 .326.348.348.348 0 0 0 .355 0 .332.332 0 0 0 .179-.298c0-.132-.066-.325-.209-.579l-.534-.941 2.127-.975 1.253 2.211-.759.43-.793-1.398-.53.241.132.233c.272.491.38.907.313 1.253zM95.044 129.724c-.311-.083-.6-.296-.868-.637l-.55.312-.338-.595.531-.3a3.59 3.59 0 0 1-.272-.776 2.34 2.34 0 0 1-.062-.692l.91-.088c-.024.466.082.93.306 1.339.214.377.415.512.603.405a.269.269 0 0 0 .129-.285 3.44 3.44 0 0 0-.142-.605 5.802 5.802 0 0 1-.19-.757 1.257 1.257 0 0 1 .054-.627.964.964 0 0 1 .469-.514 1.153 1.153 0 0 1 .905-.107c.32.09.612.315.877.676l.546-.309.337.595-.535.303c.088.193.157.393.208.599.047.188.07.38.07.574l-.902.11a2.314 2.314 0 0 0-.276-1.114c-.11-.195-.22-.32-.33-.377a.297.297 0 0 0-.303-.006.254.254 0 0 0-.118.276c.03.202.079.4.146.592.081.249.145.503.19.76.035.21.017.425-.051.626a.938.938 0 0 1-.465.515 1.124 1.124 0 0 1-.879.107zM50.553 46.409a1.136 1.136 0 0 1 .595-.799c.208-.12.446-.178.687-.17.26.015.51.106.718.261.265.2.483.456.637.75.14.245.247.506.322.777.074.247.106.504.097.76l-.938.067a1.938 1.938 0 0 0-.046-.579 2.069 2.069 0 0 0-.21-.546.857.857 0 0 0-.327-.35.351.351 0 0 0-.356 0 .33.33 0 0 0-.178.299c-.004.133.066.326.208.578l.534.943-2.127.974-1.25-2.212.759-.43.792 1.399.531-.241-.132-.233c-.277-.487-.382-.903-.316-1.248zM50.269 42.247c.311.082.6.294.869.636l.55-.312.337.596-.531.3c.12.247.212.508.273.776.055.226.076.46.06.692l-.908.088a2.407 2.407 0 0 0-.06-.682 2.365 2.365 0 0 0-.247-.66c-.213-.377-.413-.512-.602-.406a.269.269 0 0 0-.13.286c.03.205.077.408.142.604.081.248.145.501.19.758.036.211.018.428-.052.63a.966.966 0 0 1-.47.515 1.147 1.147 0 0 1-.908.107c-.32-.09-.612-.316-.878-.676l-.545.308-.337-.594.536-.304a3.37 3.37 0 0 1-.208-.598 2.272 2.272 0 0 1-.07-.579l.9-.11a2.32 2.32 0 0 0 .277 1.115c.11.195.22.32.331.377a.3.3 0 0 0 .302.006.26.26 0 0 0 .118-.278c-.03-.201-.079-.4-.145-.591a5.643 5.643 0 0 1-.192-.76 1.323 1.323 0 0 1 .052-.625.944.944 0 0 1 .464-.515 1.127 1.127 0 0 1 .882-.104z" fill="#fff"/><path style="mix-blend-mode:multiply" opacity=".7" d="M89.61 87.302c0 9.791-7.936 17.728-17.727 17.728-9.79 0-17.729-7.938-17.729-17.728 0-9.79 7.937-17.728 17.73-17.728 9.792 0 17.726 7.937 17.726 17.728z" fill="url(#j)"/><path d="M81.585 86a8.918 8.918 0 0 1-17.836 0c0-4.925 8.918-18.009 8.918-18.009s8.918 13.084 8.918 18.01z" fill="url(#k)"/><path d="M72.667 95.222A9.234 9.234 0 0 1 63.444 86c0-4.96 8.605-17.642 8.972-18.18l.248-.369.248.37c.366.537 8.97 13.218 8.97 18.18a9.232 9.232 0 0 1-9.215 9.221zm0-26.684C71.222 70.707 64.053 81.683 64.053 86a8.614 8.614 0 0 0 17.227 0c0-4.32-7.168-15.293-8.613-17.464v.002z" fill="url(#l)"/><path d="M80.549 86a7.882 7.882 0 1 1-15.765.002A7.882 7.882 0 0 1 80.55 86z" fill="url(#m)"/><path d="M79.47 86a6.803 6.803 0 1 1-13.607.009A6.803 6.803 0 0 1 79.47 86z" fill="url(#n)"/></g><defs><linearGradient id="i" x1="58.817" y1="50.841" x2="88.424" y2="53.086" gradientUnits="userSpaceOnUse"><stop/><stop offset="1" stop-color="#686868"/></linearGradient><linearGradient id="b" x1="13.942" y1="123.825" x2="131.639" y2="39.426" gradientUnits="userSpaceOnUse"><stop/><stop offset="1" stop-color="#686868"/></linearGradient><linearGradient id="d" x1="16.398" y1="101.179" x2="75.258" y2="114.727" gradientUnits="userSpaceOnUse"><stop/><stop offset="1" stop-color="#686868"/></linearGradient><linearGradient id="e" x1="58.816" y1="108.132" x2="88.424" y2="110.378" gradientUnits="userSpaceOnUse"><stop/><stop offset="1" stop-color="#686868"/></linearGradient><linearGradient id="f" x1="71.286" y1="101.179" x2="130.141" y2="114.724" gradientUnits="userSpaceOnUse"><stop/><stop offset="1" stop-color="#686868"/></linearGradient><linearGradient id="g" x1="71.286" y1="61.889" x2="130.14" y2="75.435" gradientUnits="userSpaceOnUse"><stop/><stop offset="1" stop-color="#686868"/></linearGradient><linearGradient id="h" x1="16.399" y1="61.889" x2="75.253" y2="75.436" gradientUnits="userSpaceOnUse"><stop/><stop offset="1" stop-color="#686868"/></linearGradient><linearGradient id="c" x1="21.217" y1="127.04" x2="119.427" y2="44.655" gradientUnits="userSpaceOnUse"><stop stop-color="#059D87"/><stop offset="1" stop-color="#06DDBD"/></linearGradient><linearGradient id="n" x1="66.556" y1="90.878" x2="78.219" y2="81.094" gradientUnits="userSpaceOnUse"><stop stop-color="#046657"/><stop offset="1" stop-color="#05E6C4"/></linearGradient><linearGradient id="k" x1="80.118" y1="75.85" x2="64.281" y2="91.687" gradientUnits="userSpaceOnUse"><stop stop-color="#FFFB90"/><stop offset=".14" stop-color="#FBEA78"/><stop offset=".24" stop-color="#F8DC65"/><stop offset=".27" stop-color="#E6C758"/><stop offset=".34" stop-color="#C5A041"/><stop offset=".4" stop-color="#AD8330"/><stop offset=".45" stop-color="#9E7226"/><stop offset=".49" stop-color="#996C22"/><stop offset=".52" stop-color="#9D7126"/><stop offset=".56" stop-color="#AA8131"/><stop offset=".6" stop-color="#BE9B42"/><stop offset=".64" stop-color="#DABE5B"/><stop offset=".69" stop-color="#FBE878"/><stop offset=".77" stop-color="#FFA"/><stop offset=".83" stop-color="#FBE878"/><stop offset="1" stop-color="#A4631B"/></linearGradient><linearGradient id="l" x1="63.444" y1="81.337" x2="81.889" y2="81.337" gradientUnits="userSpaceOnUse"><stop stop-color="#FFFB90"/><stop offset=".14" stop-color="#FBEA78"/><stop offset=".24" stop-color="#F8DC65"/><stop offset=".27" stop-color="#E6C758"/><stop offset=".34" stop-color="#C5A041"/><stop offset=".4" stop-color="#AD8330"/><stop offset=".45" stop-color="#9E7226"/><stop offset=".49" stop-color="#996C22"/><stop offset=".52" stop-color="#9D7126"/><stop offset=".56" stop-color="#AA8131"/><stop offset=".6" stop-color="#BE9B42"/><stop offset=".64" stop-color="#DABE5B"/><stop offset=".69" stop-color="#FBE878"/><stop offset=".77" stop-color="#FFA"/><stop offset=".83" stop-color="#FBE878"/><stop offset="1" stop-color="#A4631B"/></linearGradient><linearGradient id="m" x1="78.092" y1="80.575" x2="66.561" y2="92.106" gradientUnits="userSpaceOnUse"><stop stop-color="#FFFB90"/><stop offset=".14" stop-color="#FBEA78"/><stop offset=".24" stop-color="#F8DC65"/><stop offset=".27" stop-color="#E6C758"/><stop offset=".34" stop-color="#C5A041"/><stop offset=".4" stop-color="#AD8330"/><stop offset=".45" stop-color="#9E7226"/><stop offset=".49" stop-color="#996C22"/><stop offset=".52" stop-color="#9D7126"/><stop offset=".56" stop-color="#AA8131"/><stop offset=".6" stop-color="#BE9B42"/><stop offset=".64" stop-color="#DABE5B"/><stop offset=".69" stop-color="#FBE878"/><stop offset=".77" stop-color="#FFA"/><stop offset=".83" stop-color="#FBE878"/><stop offset="1" stop-color="#A4631B"/></linearGradient><radialGradient id="j" cx="0" cy="0" r="1" gradientUnits="userSpaceOnUse" gradientTransform="translate(71.882 87.302) scale(17.7281)"><stop offset=".34" stop-color="#400500"/><stop offset=".37" stop-color="#4F1814"/><stop offset=".47" stop-color="#7D5451"/><stop offset=".57" stop-color="#A48886"/><stop offset=".67" stop-color="#C5B3B2"/><stop offset=".76" stop-color="#DED4D3"/><stop offset=".85" stop-color="#F0ECEB"/><stop offset=".93" stop-color="#FBFAFA"/><stop offset="1" stop-color="#fff"/></radialGradient><clipPath id="a"><path fill="#fff" transform="translate(7.667 21)" d="M0 0h130v130H0z"/></clipPath></defs></svg>