<svg width="144" height="172" fill="none" xmlns="http://www.w3.org/2000/svg"><g clip-path="url(#a)"><path d="m13.229 68.695 11.826 31.583a2.635 2.635 0 0 0 3.224 1.612l38.195-10.824-14.947-39.91L13.23 68.695z" fill="#4B4B4B"/><path d="m51.525 51.144 14.946 39.91.277-.078c.287-.085.565-.2.829-.343l22.502-12.878a2.64 2.64 0 0 0 1.214-3.247L78 39.01 51.525 51.144z" fill="url(#b)"/><path d="M35.123 40.198a2.29 2.29 0 0 0-.384.168L10.976 53.601c-2.835 1.58-3.809 6.009-2.273 10.318l6.26 17.571c.33.922 1.115 1.511 1.782 1.327l41.84-11.529c.146-.04.289-.085.43-.131L46.057 36.55l-10.935 3.648z" fill="url(#c)"/><path d="M69.68 28.683 46.057 36.55l12.956 34.595a8.155 8.155 0 0 0 1.67-.78l24.22-14.815c.555-.339.737-1.233.424-2.094L78.65 35.053c-1.682-4.643-5.673-7.48-8.97-6.37z" fill="url(#d)"/><path d="M69.695 89.408c.417-.175.118 0 .537-.182.795-.33 1.59-.654 2.381-.986a94.51 94.51 0 0 0 2.303-.988 46.79 46.79 0 0 0 1.758-.822c.677-.336 1.344-.69 1.994-1.08a22 22 0 0 0 2.303-1.578c.66-.515 1.292-1.066 1.918-1.612a14.326 14.326 0 0 0 2.504-2.758 6.496 6.496 0 0 0 1.066-2.764c.076-.486.122-.977.205-1.463a16.36 16.36 0 0 0-.378-3.454c-.198-.96-.46-1.978-.792-3.05a52.787 52.787 0 0 0-.479-1.494c-.949-2.82-2.23-5.988-3.609-9.41l-.262-.654a486.656 486.656 0 0 1-1.354-3.41c-.109-.277-.215-.553-.323-.832a222.221 222.221 0 0 1-1.151-3.042c-.376-1.016-.776-2.043-1.17-3.063l-.68-1.732-.407-1.02c-.309-.762-.62-1.513-.935-2.245a68.607 68.607 0 0 0-.84-1.88 41.632 41.632 0 0 0-1.613-3.141 21.023 21.023 0 0 0-1.93-2.84c-1.19-1.448-2.496-2.482-3.961-2.883a5.656 5.656 0 0 0-.947-.27 13.154 13.154 0 0 0-3.429-.14c-1.265.091-2.524.257-3.77.498-.681.127-1.36.268-2.038.421-.861.198-1.717.415-2.568.652-.824.23-1.644.46-2.455.746-.446.15-.89.31-1.328.486-.737.274-1.44.63-2.096 1.062a4.043 4.043 0 0 0-.891.824c-.246.311-.423.67-.52 1.055-.104.41-.124.837-.06 1.255 3.07-.86 5.722-1.988 7.965-2.073a4.899 4.899 0 0 1 2.718.624c1.301.767 2.533 2.317 3.597 4.067a31.697 31.697 0 0 1 2.114 4.238l.074.177a510.364 510.364 0 0 1 2.575 6.363 400.7 400.7 0 0 1 1.513 3.931c.271.717.534 1.414.794 2.098.23.588.442 1.168.663 1.746.26.677.525 1.359.795 2.045l.23.592c.326.832.65 1.664.972 2.497l.445 1.151a516.36 516.36 0 0 1 2.788 7.443c.565 1.543 1.426 3.282 1.919 5.104.59 2.174.69 4.525-.785 7.003-.963 1.654-2.543 3.48-5.36 4.788z" fill="url(#e)" stroke="#3CD4CB" stroke-width=".23" stroke-miterlimit="10"/><path d="M58.356 93.365c-.49.163-1.057.711-1.546.88l-1.709.582-1.83.622c-.654.22-1.31.433-1.967.64-.705.23-1.412.435-2.121.64-1.435.415-2.886.808-4.348 1.216-.43.122-.864.23-1.294.364-.431.134-.896.244-1.382.375-.413.113-.83.23-1.228.367a9.41 9.41 0 0 1-.46.142c-1.22.371-2.764.714-4.295 1.055-1.414.313-1.974-.246-2.5-.997-.308-.442-.704-1.13-1.118-1.842a21.54 21.54 0 0 1-1.513-3.061c-.339-.808-.558-1.357-.71-1.695-.069-.154-.131-.286-.27-.615-.06-.145-.135-.332-.23-.592a641.541 641.541 0 0 1-4.055-10.368c-.08-.212-.164-.428-.247-.65l-.345-.92c-.426-1.138-1.073-2.87-1.522-4.08-.247-.662-.442-1.19-.544-1.47a347.558 347.558 0 0 0-1.119-3.061 309.825 309.825 0 0 1-1.748-4.832l-.357-1.039c-.267-.778-.52-1.546-.76-2.303-.204-.654-.399-1.312-.585-1.976a35.562 35.562 0 0 1-.787-3.454 18.725 18.725 0 0 1-.304-3.454c.027-1.907.446-3.586 1.45-4.913.19-.299.402-.582.636-.847a16.354 16.354 0 0 1 2.913-2.515 39.43 39.43 0 0 1 3.225-2.038c.448-.258.9-.51 1.356-.753.387-.21.776-.416 1.168-.618a62.97 62.97 0 0 1 2.66-1.3 60.555 60.555 0 0 1 2.733-1.203c.498-.203 1-.398 1.509-.576.421-.147 1.517-.552 2.957-1.075 2.303-.836 5.575-2.008 8.311-2.817.726-.214 1.41-.403 2.03-.552 1.482-.357 2.562-.484 2.917-.274.355.21-7.88 4.606-8.24 4.81-3.3 1.53-8.314 3.05-10.336 4.572a5.688 5.688 0 0 0-1.939 2.379c-.606 1.48-.601 3.491-.3 5.527.244 1.565.62 3.105 1.124 4.606l.06.182a576.907 576.907 0 0 0 1.693 5.004l.518 1.497c.498 1.424.96 2.727 1.41 3.968.26.721.516 1.421.771 2.107.217.59.433 1.173.65 1.75l.773 2.055.364.96c.323.848.647 1.692.974 2.534.113.288.23.575.334.863.136.348.274.691.41 1.048a315.437 315.437 0 0 0 4.056 9.878c.539 1.248.921 2.729 1.665 3.998a5.405 5.405 0 0 0 3.323 2.6 7.435 7.435 0 0 0 1.865.262c1.893.05 4.459-.578 7.854-1.593z" fill="url(#f)" stroke="#3CD4CB" stroke-width=".23" stroke-miterlimit="10"/><path d="m39.262 38.798 2.192-13.818a2.177 2.177 0 0 1 1.347-1.684l8.811-3.491a2.51 2.51 0 0 1 2.803.668l5.184 5.852-2.694 8.14-17.634 4.333" fill="url(#g)"/><path d="m44.872 34.346-10.99-5.621a6.271 6.271 0 0 0-5.067-.288L17.3 32.75a2.503 2.503 0 0 0-1.612 2.147c-.21 2.606.056 7.77 4.68 11.102l26.989-8.424-2.483-3.224" fill="url(#h)"/><path d="m37.596 40.868-1.948-6.172c-.23-.741.507-1.679 1.672-2.116l3.625-1.364c1.041-.389 2.11-.26 2.533.309l4.21 5.56-10.1 3.78" fill="url(#i)"/><path d="m37.596 40.868-1.948-6.172c-.23-.741.507-1.679 1.672-2.116l3.625-1.364c1.041-.389 2.11-.26 2.533.309l4.21 5.56-10.1 3.78" stroke="#43DACE" stroke-width=".23" stroke-miterlimit="10"/><path d="m38.181 41.013-1.775-5.61c-.214-.675.46-1.524 1.52-1.923l3.302-1.237c.947-.354 1.916-.23 2.303.28l3.823 5.052-9.173 3.438z" fill="url(#j)" stroke="#43DACE" stroke-width=".23" stroke-miterlimit="10"/><path d="m29.126 29.604-13.631 4.712a2.509 2.509 0 0 0-1.65 1.932c-.536 3.084-.766 9.988 7.755 10.792.322.032.648 0 .958-.092l13.965-4.17-7.397-13.174z" fill="url(#k)"/><path d="M42.23 39.251s-2.994.984-4.873-1.99c-1.88-2.973-4.643-8.334-8.23-7.657-3.589.677-.841 11.679 3.82 13.104 4.661 1.426 9.283-3.457 9.283-3.457z" fill="url(#l)"/><path d="M42.007 39.313s-3.48.938-5.276-2c-1.797-2.94-4.795-7.37-7.538-6.316-2.743 1.055 1.46 14.258 8.134 10.965 4.61-2.273 4.68-2.649 4.68-2.649z" fill="url(#m)"/><path d="m45.537 23.534 13.371-5.394a2.496 2.496 0 0 1 2.51.373c2.432 1.971 7.14 7.031 1.242 13.233a2.507 2.507 0 0 1-.783.557l-13.26 6.03-3.08-14.8z" fill="url(#n)"/><path d="M42 39.422s2.906-1.228 2.367-4.703c-.539-3.475-1.976-9.334 1.17-11.186 3.146-1.851 8.305 8.254 5.728 12.393C48.688 40.064 42 39.422 42 39.422z" fill="url(#o)" stroke="#43DACE" stroke-width=".23" stroke-miterlimit="10"/><path d="M42.207 39.323s3.24-1.58 2.665-4.977c-.576-3.397-1.223-8.703 1.533-9.712 2.757-1.008 8.266 11.709 1.071 13.611-4.97 1.315-5.269 1.078-5.269 1.078z" fill="url(#p)"/><path d="m62.789 104.626-1.486 5.827a16.1 16.1 0 0 0 1.11 10.992l14.304 29.526a5.501 5.501 0 0 0 2.573 2.566l5.663-16.476-22.164-32.435z" fill="#4B4B4B"/><path d="m135.683 107.125-12.42-23.37a16.094 16.094 0 0 0-16.568-8.368l-.806.12-26.484 3.915a16.074 16.074 0 0 0-7.37 3.093l19.76 34.296 44.678-7.957a15.664 15.664 0 0 0-.79-1.729z" fill="#505050"/><path d="M79.29 153.541a5.524 5.524 0 0 0 3.51.424l35.645-7.37a16.08 16.08 0 0 0 11.745-9.921l1.723-4.472-47.19 5.552-5.433 15.787z" fill="url(#q)"/><path d="M89.593 112.972 72.05 82.518a16.072 16.072 0 0 0-5.877 8.85l-3.383 13.258 18.626 32.329a6.316 6.316 0 0 0 2.633 2.483l8.15-24.002a6.305 6.305 0 0 1-2.605-2.464z" fill="url(#r)"/><path d="m136.477 108.856-40.302 7.179a6.322 6.322 0 0 1-3.982-.599l-8.145 24.002a6.317 6.317 0 0 0 3.954.585l43.911-7.821 4.548-11.688a16.093 16.093 0 0 0 .016-11.658z" fill="url(#s)"/><path d="m136.477 108.856-40.302 7.179a6.322 6.322 0 0 1-3.982-.599l-8.145 24.002a6.317 6.317 0 0 0 3.954.585l43.911-7.821 4.548-11.688a16.093 16.093 0 0 0 .016-11.658z" fill="url(#t)"/><path d="M71.413 140.5s-1.278-2.188.837-10.048c2.114-7.86 4.24-19.525 12.629-25.508 8.39-5.983 38.934-9.442 44.528-7.653 0 0 1.283.362 2.462 2.66.012.02.111-.044.104-.067-.495-2.174-2.946-11.575-8.825-14.405-6.665-3.21-37.804 3.24-37.804 3.24s-13.214.87-16.922 15.069c-3.708 14.198-5.016 20.301-3.936 23.14 1.08 2.84 4.095 11.529 6.927 13.572z" fill="url(#u)" stroke="#3CD4CB" stroke-width=".23" stroke-miterlimit="10"/><path d="M84.98 78.54a.027.027 0 0 0-.014.016.027.027 0 0 0-.002.01.027.027 0 0 0 .009.02.028.028 0 0 0 .03.005c.424-.088 1.827-.166 3.379 2.052 1.983 2.835 20.384 32.209 17.104 43.374-3.279 11.165-7.264 22.88-7.264 22.88s-1.494 4.037-2.904 4.487c0 0 5.832.412 11.663-.922 0 0 6.614-1.278 7.62-3.41l8.42-21.526s7.878-17.303-12.316-39.646l-9.698-10.004s-13.109.447-16.027 2.664z" fill="url(#v)" stroke="#3CD4CB" stroke-width=".23" stroke-miterlimit="10"/><path d="M117.699 96.07s3.79 2.437 5.527 3.089c1.736.651 4.606 8.422 2.46 11.211-2.073 2.69-4.058 4.781-15.629 4.891a5.757 5.757 0 0 1-3.539-1.167c-2.195-1.677-4.977-5.59-3.353-14.366l8.482-7.453 6.047 3.795" fill="url(#w)"/><path d="M112.432 82.37a11.504 11.504 0 0 1-2.833-5.647c-.582-3.397-1.575-11.392-5.322-11.595-3.747-.203-17.733-.758-16.409 6.754l7.14 16.156 16.922-3.162.502-2.508" fill="url(#x)"/><path d="M94.906 86.55s-1.736-6.294-1.524-10.32c.212-4.025-2.16-8.751-4.417-7.404-2.257 1.347-1.216 12.58 5.941 17.733" fill="url(#y)"/><path d="m103.153 99.728-7.922-14.01s-4.57-.425-6.395-1.708c-1.827-1.283-12.206-4.825-13.712 3.717-1.506 8.542 6.017 16.535 10.057 15.306 15.043-4.583 17.972-3.305 17.972-3.305z" fill="url(#z)"/><path d="M103.153 99.728a45.968 45.968 0 0 1-9.285-4.259c-4.394-2.722-13.588.265-11.253 5.758 2.335 5.492 15.561-2.794 20.538-1.5z" fill="url(#A)"/><path d="M111.122 82.087s2.045.635 5.582-1.992c3.537-2.628 11.533-8.576 15.43-.46 3.897 8.115 6.043 10.381 2.331 14.047-3.713 3.667-16.766 2.398-16.766 2.398l-6.577-13.993z" fill="url(#B)"/><path d="M117.699 96.07s3.991-2.208 6.335-3.915c2.345-1.706 12.747-6.646 11.262-.147-1.486 6.499-14.514 8.56-17.597 4.062z" fill="url(#C)"/><path d="M103.153 99.728s1.292 1.381 5.297 3.454c4.005 2.073 2.683 11.996-.279 10.778-2.726-1.126-6.639-3.226-5.018-14.232z" fill="url(#D)"/><path d="M117.699 96.07a10.724 10.724 0 0 0-1.285-7.245c-2.131-3.657-4.413-8.906-7.973-8.28-3.561.627-12.436 1.113-13.21 5.173-.774 4.06 5.041 11.605 5.041 11.605l2.881 2.404 9.212-4.55 5.334.893z" fill="url(#E)"/><path d="M103.153 99.728s12.897-3.717 14.546-3.658c0 0 .106-4.306-2.812-4.56-2.918-.253-14.668.298-11.734 8.218z" fill="url(#F)"/></g><defs><linearGradient id="r" x1="61.375" y1="105.301" x2="139.517" y2="131.903" gradientUnits="userSpaceOnUse"><stop stop-color="#414141"/><stop offset=".01" stop-color="#424242"/><stop offset=".29" stop-color="#525252"/><stop offset=".6" stop-color="#5C5C5C"/><stop offset="1" stop-color="#5F5F5F"/></linearGradient><linearGradient id="b" x1="56.409" y1="73.432" x2="86.914" y2="59.163" gradientUnits="userSpaceOnUse"><stop stop-color="#383839"/><stop offset=".31" stop-color="#2D2D2E"/><stop offset=".85" stop-color="#101010"/><stop offset="1" stop-color="#070707"/></linearGradient><linearGradient id="d" x1="51.561" y1="55.427" x2="81.875" y2="39.964" gradientUnits="userSpaceOnUse"><stop stop-color="#505050"/><stop offset=".25" stop-color="#494949"/><stop offset=".62" stop-color="#363636"/><stop offset="1" stop-color="#1B1B1B"/></linearGradient><linearGradient id="e" x1="79.019" y1="87.055" x2="58.273" y2="31.335" gradientUnits="userSpaceOnUse"><stop stop-color="#15886D"/><stop offset=".04" stop-color="#14987A"/><stop offset=".22" stop-color="#0FD5AA"/><stop offset=".43" stop-color="#0FD5AA"/><stop offset=".49" stop-color="#21DEAE"/><stop offset=".54" stop-color="#29E2B0"/><stop offset=".64" stop-color="#1EDCAD"/><stop offset=".74" stop-color="#0FD5AA"/><stop offset=".76" stop-color="#11BF99"/><stop offset=".8" stop-color="#13A785"/><stop offset=".83" stop-color="#149678"/><stop offset=".87" stop-color="#158B70"/><stop offset=".92" stop-color="#15886D"/><stop offset=".93" stop-color="#127F64"/><stop offset=".95" stop-color="#0B6E54"/><stop offset=".97" stop-color="#07634A"/><stop offset="1" stop-color="#066047"/></linearGradient><linearGradient id="f" x1="23.894" y1="75.849" x2="61.791" y2="61.739" gradientUnits="userSpaceOnUse"><stop stop-color="#15886D"/><stop offset=".04" stop-color="#14987A"/><stop offset=".22" stop-color="#0FD5AA"/><stop offset=".43" stop-color="#0FD5AA"/><stop offset=".49" stop-color="#21DEAE"/><stop offset=".54" stop-color="#29E2B0"/><stop offset=".64" stop-color="#1EDCAD"/><stop offset=".74" stop-color="#0FD5AA"/><stop offset=".76" stop-color="#11BF99"/><stop offset=".8" stop-color="#13A785"/><stop offset=".83" stop-color="#149678"/><stop offset=".87" stop-color="#158B70"/><stop offset=".92" stop-color="#15886D"/><stop offset=".93" stop-color="#127F64"/><stop offset=".95" stop-color="#0B6E54"/><stop offset=".97" stop-color="#07634A"/><stop offset="1" stop-color="#066047"/></linearGradient><linearGradient id="g" x1="45.46" y1="40.306" x2="54.527" y2="19.037" gradientUnits="userSpaceOnUse"><stop stop-color="#15DBAD"/><stop offset=".14" stop-color="#1A8E70"/><stop offset=".17" stop-color="#117A5D"/><stop offset=".21" stop-color="#0B6B4F"/><stop offset=".24" stop-color="#09664A"/><stop offset=".3" stop-color="#0C6C50"/><stop offset=".39" stop-color="#137E61"/><stop offset=".45" stop-color="#1A8E70"/><stop offset=".51" stop-color="#1E9E7C"/><stop offset=".63" stop-color="#27C79A"/><stop offset=".72" stop-color="#2FE8B2"/><stop offset=".75" stop-color="#2AD7A5"/><stop offset=".87" stop-color="#189A74"/><stop offset=".95" stop-color="#0D7456"/><stop offset="1" stop-color="#09664A"/></linearGradient><linearGradient id="h" x1="16.83" y1="33.204" x2="28.78" y2="38.579" gradientUnits="userSpaceOnUse"><stop stop-color="#15DBAD"/><stop offset=".14" stop-color="#1A8E70"/><stop offset=".17" stop-color="#117A5D"/><stop offset=".21" stop-color="#0B6B4F"/><stop offset=".24" stop-color="#09664A"/><stop offset=".3" stop-color="#0C6C50"/><stop offset=".39" stop-color="#137E61"/><stop offset=".45" stop-color="#1A8E70"/><stop offset=".46" stop-color="#1B9273"/><stop offset=".5" stop-color="#22B189"/><stop offset=".55" stop-color="#28C99B"/><stop offset=".6" stop-color="#2CDAA8"/><stop offset=".65" stop-color="#2EE5B0"/><stop offset=".72" stop-color="#2FE8B2"/><stop offset=".76" stop-color="#2CDDA9"/><stop offset=".83" stop-color="#23BF91"/><stop offset=".93" stop-color="#158F6B"/><stop offset="1" stop-color="#09664A"/></linearGradient><linearGradient id="i" x1="40.09" y1="32.337" x2="43.183" y2="39.791" gradientUnits="userSpaceOnUse"><stop stop-color="#15DBAD"/><stop offset=".14" stop-color="#1A8E70"/><stop offset=".17" stop-color="#117A5D"/><stop offset=".21" stop-color="#0B6B4F"/><stop offset=".24" stop-color="#09664A"/><stop offset=".27" stop-color="#0C6C50"/><stop offset=".31" stop-color="#137E61"/><stop offset=".33" stop-color="#1A8E70"/><stop offset=".35" stop-color="#19A481"/><stop offset=".36" stop-color="#17BC95"/><stop offset=".38" stop-color="#16CDA2"/><stop offset=".4" stop-color="#15D8AA"/><stop offset=".43" stop-color="#15DBAD"/><stop offset=".49" stop-color="#27E4B0"/><stop offset=".54" stop-color="#2FE8B2"/><stop offset=".64" stop-color="#24E2B0"/><stop offset=".73" stop-color="#15DBAD"/><stop offset=".76" stop-color="#12BC93"/><stop offset=".8" stop-color="#0F9D79"/><stop offset=".85" stop-color="#0C8564"/><stop offset=".89" stop-color="#0A7455"/><stop offset=".94" stop-color="#09694D"/><stop offset="1" stop-color="#09664A"/></linearGradient><linearGradient id="j" x1="36.88" y1="35.394" x2="41.288" y2="37.376" gradientUnits="userSpaceOnUse"><stop stop-color="#1A152C"/><stop offset=".15" stop-color="#162632"/><stop offset=".51" stop-color="#0F493F"/><stop offset=".81" stop-color="#0B5E47"/><stop offset="1" stop-color="#09664A"/></linearGradient><linearGradient id="k" x1="21.108" y1="31.049" x2="27.781" y2="48.296" gradientUnits="userSpaceOnUse"><stop stop-color="#16DBA7"/><stop offset=".14" stop-color="#1C8E6E"/><stop offset=".17" stop-color="#137A5B"/><stop offset=".21" stop-color="#0C6B4D"/><stop offset=".24" stop-color="#0A6648"/><stop offset=".27" stop-color="#0D6C4E"/><stop offset=".31" stop-color="#157E5F"/><stop offset=".33" stop-color="#1C8E6E"/><stop offset=".35" stop-color="#1AA47E"/><stop offset=".36" stop-color="#18BC90"/><stop offset=".38" stop-color="#17CD9D"/><stop offset=".4" stop-color="#16D8A5"/><stop offset=".43" stop-color="#16DBA7"/><stop offset=".5" stop-color="#2AE4AC"/><stop offset=".54" stop-color="#32E8AE"/><stop offset=".63" stop-color="#27E3AB"/><stop offset=".73" stop-color="#16DBA7"/><stop offset=".76" stop-color="#13BC8E"/><stop offset=".8" stop-color="#109D75"/><stop offset=".85" stop-color="#0D8561"/><stop offset=".89" stop-color="#0B7453"/><stop offset=".94" stop-color="#0A694B"/><stop offset="1" stop-color="#0A6648"/></linearGradient><linearGradient id="l" x1="29.038" y1="38.444" x2="40.559" y2="34.154" gradientUnits="userSpaceOnUse"><stop stop-color="#15DBAD"/><stop offset=".43" stop-color="#15DBAD"/><stop offset=".49" stop-color="#27E4B0"/><stop offset=".54" stop-color="#2FE8B2"/><stop offset=".64" stop-color="#24E2B0"/><stop offset=".73" stop-color="#15DBAD"/><stop offset=".77" stop-color="#16C59C"/><stop offset=".82" stop-color="#18AD88"/><stop offset=".87" stop-color="#199C7B"/><stop offset=".93" stop-color="#1A9173"/><stop offset="1" stop-color="#1A8E70"/></linearGradient><linearGradient id="m" x1="28.394" y1="34.577" x2="40.62" y2="42.096" gradientUnits="userSpaceOnUse"><stop stop-color="#1A152C"/><stop offset=".15" stop-color="#162632"/><stop offset=".51" stop-color="#0F493F"/><stop offset=".81" stop-color="#0B5E47"/><stop offset="1" stop-color="#09664A"/></linearGradient><linearGradient id="n" x1="61.811" y1="21.011" x2="68.041" y2="38.425" gradientUnits="userSpaceOnUse"><stop stop-color="#16DBA7"/><stop offset=".14" stop-color="#1C8E6E"/><stop offset=".17" stop-color="#137A5B"/><stop offset=".21" stop-color="#0C6B4D"/><stop offset=".24" stop-color="#0A6648"/><stop offset=".27" stop-color="#0D6C4E"/><stop offset=".31" stop-color="#157E5F"/><stop offset=".33" stop-color="#1C8E6E"/><stop offset=".35" stop-color="#1AA47E"/><stop offset=".36" stop-color="#18BC90"/><stop offset=".38" stop-color="#17CD9D"/><stop offset=".4" stop-color="#16D8A5"/><stop offset=".43" stop-color="#16DBA7"/><stop offset=".5" stop-color="#2AE4AC"/><stop offset=".54" stop-color="#32E8AE"/><stop offset=".63" stop-color="#27E3AB"/><stop offset=".73" stop-color="#16DBA7"/><stop offset=".76" stop-color="#13BC8E"/><stop offset=".8" stop-color="#109D75"/><stop offset=".85" stop-color="#0D8561"/><stop offset=".89" stop-color="#0B7453"/><stop offset=".94" stop-color="#0A694B"/><stop offset="1" stop-color="#0A6648"/></linearGradient><linearGradient id="o" x1="60.649" y1="31.793" x2="49.126" y2="36.084" gradientUnits="userSpaceOnUse"><stop stop-color="#15DBAD"/><stop offset=".43" stop-color="#15DBAD"/><stop offset=".49" stop-color="#27E4B0"/><stop offset=".54" stop-color="#2FE8B2"/><stop offset=".64" stop-color="#24E2B0"/><stop offset=".73" stop-color="#15DBAD"/><stop offset=".77" stop-color="#16C59C"/><stop offset=".82" stop-color="#18AD88"/><stop offset=".87" stop-color="#199C7B"/><stop offset=".93" stop-color="#1A9173"/><stop offset="1" stop-color="#1A8E70"/></linearGradient><linearGradient id="p" x1="58.605" y1="28.448" x2="54.276" y2="42.131" gradientUnits="userSpaceOnUse"><stop stop-color="#1A152C"/><stop offset=".15" stop-color="#162632"/><stop offset=".51" stop-color="#0F493F"/><stop offset=".81" stop-color="#0B5E47"/><stop offset="1" stop-color="#09664A"/></linearGradient><linearGradient id="q" x1="85.275" y1="135.979" x2="125.914" y2="149.829" gradientUnits="userSpaceOnUse"><stop stop-color="#383839"/><stop offset=".31" stop-color="#2D2D2E"/><stop offset=".85" stop-color="#101010"/><stop offset="1" stop-color="#070707"/></linearGradient><linearGradient id="c" x1="10.771" y1="70.136" x2="52.961" y2="54.427" gradientUnits="userSpaceOnUse"><stop stop-color="#414141"/><stop offset=".01" stop-color="#424242"/><stop offset=".29" stop-color="#525252"/><stop offset=".6" stop-color="#5C5C5C"/><stop offset="1" stop-color="#5F5F5F"/></linearGradient><linearGradient id="s" x1="62.789" y1="124.489" x2="137.567" y2="124.489" gradientUnits="userSpaceOnUse"><stop stop-color="#505050"/><stop offset=".25" stop-color="#494949"/><stop offset=".62" stop-color="#363636"/><stop offset="1" stop-color="#1B1B1B"/></linearGradient><linearGradient id="t" x1="91.401" y1="117.767" x2="132.633" y2="131.82" gradientUnits="userSpaceOnUse"><stop stop-color="#505050"/><stop offset=".25" stop-color="#494949"/><stop offset=".62" stop-color="#363636"/><stop offset="1" stop-color="#1B1B1B"/></linearGradient><linearGradient id="u" x1="68.551" y1="103.194" x2="124.364" y2="122.216" gradientUnits="userSpaceOnUse"><stop stop-color="#15886D"/><stop offset=".04" stop-color="#14987A"/><stop offset=".22" stop-color="#0FD5AA"/><stop offset=".43" stop-color="#0FD5AA"/><stop offset=".49" stop-color="#21DEAE"/><stop offset=".54" stop-color="#29E2B0"/><stop offset=".64" stop-color="#1EDCAD"/><stop offset=".74" stop-color="#0FD5AA"/><stop offset=".76" stop-color="#11BF99"/><stop offset=".8" stop-color="#13A785"/><stop offset=".83" stop-color="#149678"/><stop offset=".87" stop-color="#158B70"/><stop offset=".92" stop-color="#15886D"/><stop offset=".93" stop-color="#127F64"/><stop offset=".95" stop-color="#0B6E54"/><stop offset=".97" stop-color="#07634A"/><stop offset="1" stop-color="#066047"/></linearGradient><linearGradient id="v" x1="88.033" y1="148.916" x2="111.682" y2="79.527" gradientUnits="userSpaceOnUse"><stop stop-color="#15886D"/><stop offset=".04" stop-color="#14987A"/><stop offset=".22" stop-color="#0FD5AA"/><stop offset=".43" stop-color="#0FD5AA"/><stop offset=".49" stop-color="#21DEAE"/><stop offset=".54" stop-color="#29E2B0"/><stop offset=".64" stop-color="#1EDCAD"/><stop offset=".74" stop-color="#0FD5AA"/><stop offset=".76" stop-color="#11BF99"/><stop offset=".8" stop-color="#13A785"/><stop offset=".83" stop-color="#149678"/><stop offset=".87" stop-color="#158B70"/><stop offset=".92" stop-color="#15886D"/><stop offset=".93" stop-color="#127F64"/><stop offset=".95" stop-color="#0B6E54"/><stop offset=".97" stop-color="#07634A"/><stop offset="1" stop-color="#066047"/></linearGradient><linearGradient id="w" x1="111.749" y1="97.416" x2="117.218" y2="115.119" gradientUnits="userSpaceOnUse"><stop stop-color="#16DBA7"/><stop offset=".14" stop-color="#1C8E6E"/><stop offset=".17" stop-color="#137A5B"/><stop offset=".21" stop-color="#0C6B4D"/><stop offset=".24" stop-color="#0A6648"/><stop offset=".27" stop-color="#0D6C4E"/><stop offset=".31" stop-color="#157E5F"/><stop offset=".33" stop-color="#1C8E6E"/><stop offset=".35" stop-color="#1AA47E"/><stop offset=".36" stop-color="#18BC90"/><stop offset=".38" stop-color="#17CD9D"/><stop offset=".4" stop-color="#16D8A5"/><stop offset=".43" stop-color="#16DBA7"/><stop offset=".5" stop-color="#2AE4AC"/><stop offset=".54" stop-color="#32E8AE"/><stop offset=".63" stop-color="#27E3AB"/><stop offset=".73" stop-color="#16DBA7"/><stop offset=".76" stop-color="#13BC8E"/><stop offset=".8" stop-color="#109D75"/><stop offset=".85" stop-color="#0D8561"/><stop offset=".89" stop-color="#0B7453"/><stop offset=".94" stop-color="#0A694B"/><stop offset="1" stop-color="#0A6648"/></linearGradient><linearGradient id="x" x1="98.14" y1="65.593" x2="101.491" y2="84.9" gradientUnits="userSpaceOnUse"><stop stop-color="#16DBA7"/><stop offset=".14" stop-color="#1C8E6E"/><stop offset=".17" stop-color="#137A5B"/><stop offset=".21" stop-color="#0C6B4D"/><stop offset=".24" stop-color="#0A6648"/><stop offset=".27" stop-color="#0D6C4E"/><stop offset=".31" stop-color="#157E5F"/><stop offset=".33" stop-color="#1C8E6E"/><stop offset=".35" stop-color="#1AA47E"/><stop offset=".36" stop-color="#18BC90"/><stop offset=".38" stop-color="#17CD9D"/><stop offset=".4" stop-color="#16D8A5"/><stop offset=".43" stop-color="#16DBA7"/><stop offset=".5" stop-color="#2AE4AC"/><stop offset=".54" stop-color="#32E8AE"/><stop offset=".63" stop-color="#27E3AB"/><stop offset=".73" stop-color="#16DBA7"/><stop offset=".76" stop-color="#13BC8E"/><stop offset=".8" stop-color="#109D75"/><stop offset=".85" stop-color="#0D8561"/><stop offset=".89" stop-color="#0B7453"/><stop offset=".94" stop-color="#0A694B"/><stop offset="1" stop-color="#0A6648"/></linearGradient><linearGradient id="y" x1="86.321" y1="75.492" x2="97.388" y2="79.263" gradientUnits="userSpaceOnUse"><stop stop-color="#1F1B2C"/><stop offset=".1" stop-color="#1E2631"/><stop offset=".48" stop-color="#1D4942"/><stop offset=".8" stop-color="#1B5E4C"/><stop offset="1" stop-color="#1B6650"/></linearGradient><linearGradient id="z" x1="73.23" y1="93.862" x2="96.052" y2="91.081" gradientUnits="userSpaceOnUse"><stop stop-color="#16DBA7"/><stop offset=".14" stop-color="#1C8E6E"/><stop offset=".17" stop-color="#137A5B"/><stop offset=".21" stop-color="#0C6B4D"/><stop offset=".24" stop-color="#0A6648"/><stop offset=".27" stop-color="#0D6C4E"/><stop offset=".31" stop-color="#157E5F"/><stop offset=".33" stop-color="#1C8E6E"/><stop offset=".35" stop-color="#1AA47E"/><stop offset=".36" stop-color="#18BC90"/><stop offset=".38" stop-color="#17CD9D"/><stop offset=".4" stop-color="#16D8A5"/><stop offset=".43" stop-color="#16DBA7"/><stop offset=".5" stop-color="#2AE4AC"/><stop offset=".54" stop-color="#32E8AE"/><stop offset=".63" stop-color="#27E3AB"/><stop offset=".73" stop-color="#16DBA7"/><stop offset=".76" stop-color="#13BC8E"/><stop offset=".8" stop-color="#109D75"/><stop offset=".85" stop-color="#0D8561"/><stop offset=".89" stop-color="#0B7453"/><stop offset=".94" stop-color="#0A694B"/><stop offset="1" stop-color="#0A6648"/></linearGradient><linearGradient id="A" x1="82.896" y1="96.978" x2="101.882" y2="103.449" gradientUnits="userSpaceOnUse"><stop stop-color="#1F1B2C"/><stop offset=".1" stop-color="#1E2631"/><stop offset=".48" stop-color="#1D4942"/><stop offset=".8" stop-color="#1B5E4C"/><stop offset="1" stop-color="#1B6650"/></linearGradient><linearGradient id="B" x1="114.411" y1="90.588" x2="134.141" y2="83.206" gradientUnits="userSpaceOnUse"><stop stop-color="#16DBA7"/><stop offset=".14" stop-color="#1C8E6E"/><stop offset=".17" stop-color="#137A5B"/><stop offset=".21" stop-color="#0C6B4D"/><stop offset=".24" stop-color="#0A6648"/><stop offset=".27" stop-color="#0D6C4E"/><stop offset=".31" stop-color="#157E5F"/><stop offset=".33" stop-color="#1C8E6E"/><stop offset=".35" stop-color="#1AA47E"/><stop offset=".36" stop-color="#18BC90"/><stop offset=".38" stop-color="#17CD9D"/><stop offset=".4" stop-color="#16D8A5"/><stop offset=".43" stop-color="#16DBA7"/><stop offset=".5" stop-color="#2AE4AC"/><stop offset=".54" stop-color="#32E8AE"/><stop offset=".63" stop-color="#27E3AB"/><stop offset=".73" stop-color="#16DBA7"/><stop offset=".76" stop-color="#13BC8E"/><stop offset=".8" stop-color="#109D75"/><stop offset=".85" stop-color="#0D8561"/><stop offset=".89" stop-color="#0B7453"/><stop offset=".94" stop-color="#0A694B"/><stop offset="1" stop-color="#0A6648"/></linearGradient><linearGradient id="C" x1="118.378" y1="97.638" x2="135.632" y2="91.181" gradientUnits="userSpaceOnUse"><stop stop-color="#1F1B2C"/><stop offset=".1" stop-color="#1E2631"/><stop offset=".48" stop-color="#1D4942"/><stop offset=".8" stop-color="#1B5E4C"/><stop offset="1" stop-color="#1B6650"/></linearGradient><linearGradient id="D" x1="103.032" y1="108.021" x2="110.254" y2="105.32" gradientUnits="userSpaceOnUse"><stop stop-color="#1F1B2C"/><stop offset=".1" stop-color="#1E2631"/><stop offset=".48" stop-color="#1D4942"/><stop offset=".8" stop-color="#1B5E4C"/><stop offset="1" stop-color="#1B6650"/></linearGradient><linearGradient id="E" x1="97.326" y1="93.366" x2="115.586" y2="86.534" gradientUnits="userSpaceOnUse"><stop stop-color="#16DBA7"/><stop offset=".14" stop-color="#1C8E6E"/><stop offset=".17" stop-color="#137A5B"/><stop offset=".21" stop-color="#0C6B4D"/><stop offset=".24" stop-color="#0A6648"/><stop offset=".27" stop-color="#0D6C4E"/><stop offset=".31" stop-color="#157E5F"/><stop offset=".33" stop-color="#1C8E6E"/><stop offset=".35" stop-color="#1AA47E"/><stop offset=".36" stop-color="#18BC90"/><stop offset=".38" stop-color="#17CD9D"/><stop offset=".4" stop-color="#16D8A5"/><stop offset=".43" stop-color="#16DBA7"/><stop offset=".5" stop-color="#2AE4AC"/><stop offset=".54" stop-color="#32E8AE"/><stop offset=".63" stop-color="#27E3AB"/><stop offset=".73" stop-color="#16DBA7"/><stop offset=".76" stop-color="#13BC8E"/><stop offset=".8" stop-color="#109D75"/><stop offset=".85" stop-color="#0D8561"/><stop offset=".89" stop-color="#0B7453"/><stop offset=".94" stop-color="#0A694B"/><stop offset="1" stop-color="#0A6648"/></linearGradient><linearGradient id="F" x1="101.357" y1="96.382" x2="114.199" y2="94.817" gradientUnits="userSpaceOnUse"><stop stop-color="#1F1B2C"/><stop offset=".1" stop-color="#1E2631"/><stop offset=".48" stop-color="#1D4942"/><stop offset=".8" stop-color="#1B5E4C"/><stop offset="1" stop-color="#1B6650"/></linearGradient><clipPath id="a"><path fill="#fff" transform="translate(7.333 17.977)" d="M0 0h130v136.047H0z"/></clipPath></defs></svg>