<svg width="24" height="25" viewBox="0 0 24 25" fill="none" xmlns="http://www.w3.org/2000/svg">
<g clip-path="url(#clip0_2030_1578)">
<path d="M11.9951 0.595703C5.36076 0.595703 0 5.96633 0 12.5908C0 17.6751 3.15919 22.019 7.62156 23.7664C7.51296 22.8186 7.42411 21.3575 7.66104 20.3209C7.87824 19.383 9.06293 14.358 9.06293 14.358C9.06293 14.358 8.70754 13.6373 8.70754 12.5809C8.70754 10.9124 9.67502 9.66852 10.8795 9.66852C11.9062 9.66852 12.3998 10.4386 12.3998 11.3567C12.3998 12.3834 11.7482 13.9236 11.4027 15.3551C11.1164 16.5496 12.0049 17.527 13.1798 17.527C15.3122 17.527 16.9511 15.2761 16.9511 12.0379C16.9511 9.16502 14.8877 7.1609 11.9358 7.1609C8.51995 7.1609 6.51583 9.71786 6.51583 12.3637C6.51583 13.3904 6.91073 14.4961 7.40436 15.0984C7.5031 15.2168 7.51296 15.3254 7.48334 15.4439C7.3945 15.8191 7.18716 16.6385 7.14768 16.8063C7.09831 17.0235 6.96996 17.0729 6.7429 16.9643C5.26202 16.2534 4.33402 14.0618 4.33402 12.3045C4.33402 8.52331 7.07856 5.04818 12.2616 5.04818C16.4179 5.04818 19.6561 8.00993 19.6561 11.9787C19.6561 16.1152 17.0498 19.4423 13.4364 19.4423C12.2221 19.4423 11.0769 18.8104 10.6919 18.0601C10.6919 18.0601 10.0897 20.3505 9.94159 20.9133C9.67502 21.9598 8.94446 23.2629 8.45083 24.0626C9.57631 24.4081 10.761 24.5957 12.0049 24.5957C18.6294 24.5957 24 19.2251 24 12.6006C23.9901 5.96633 18.6195 0.595703 11.9951 0.595703Z" fill="white"/>
</g>
<defs>
<clipPath id="clip0_2030_1578">
<rect y="0.595703" width="24" height="24" rx="6" fill="white"/>
</clipPath>
</defs>
</svg>
