<svg width="25" height="24" viewBox="0 0 25 24" fill="none" xmlns="http://www.w3.org/2000/svg">
<path d="M17.9867 4H20.6533C20.6533 9.33334 14.7867 10.9333 14.7867 20H8.38666C8.38666 15.2 11.0533 13.0667 13.72 10.4L16.92 7.2C16.1334 7.98765 14.9494 8.26666 13.72 8.26666C12.3867 8.26666 11.184 7.73331 9.98667 7.73331C8.51466 7.73331 7.32001 8.9282 7.32001 10.4H4.65332V4H7.31998V5.6C8.38666 4.53334 9.98667 4 11.5867 4C13.72 4 14.7867 5.06666 16.92 5.06666C17.5093 5.06666 17.9867 4.58871 17.9867 4Z" stroke="#A5A5A5" stroke-width="1.5" stroke-miterlimit="10" stroke-linecap="round" stroke-linejoin="round"/>
</svg>
