<svg width="65" height="65" viewBox="0 0 65 65" fill="none" xmlns="http://www.w3.org/2000/svg">
<g clip-path="url(#clip0_2235_7742)">
<path d="M16.2399 0.306163C16.1238 0.104912 15.8664 0.0359538 15.6652 0.152141C15.4639 0.268329 15.395 0.525665 15.5112 0.726916L18.894 6.58642C16.1924 9.29069 14.5398 12.8085 14.4861 16.6616H50.5139C50.4602 12.8089 48.8078 9.2912 46.1064 6.58693L49.4898 0.726927C49.606 0.525678 49.537 0.268341 49.3358 0.152148C49.1345 0.035954 48.8772 0.104905 48.761 0.306153L45.479 5.99051C42.6384 3.42537 38.8009 1.7004 34.5073 1.28619H30.4927C26.1995 1.70025 22.3621 3.42502 19.5214 5.99003L16.2399 0.306163Z" fill="url(#paint0_linear_2235_7742)"/>
<path d="M27.4839 49.8315H37.5169V60.101C37.5169 62.3072 39.3055 64.0954 41.5114 64.0954C43.7176 64.0954 45.5062 62.3072 45.5062 60.101V49.8315H45.7014C48.4454 49.8315 50.6555 47.5818 50.6555 44.7899V18.8266C50.6555 18.6718 50.6499 18.518 50.637 18.3671H14.3695C14.3563 18.5186 14.3448 18.6718 14.3448 18.8266V44.7899C14.3448 47.5821 16.5549 49.8315 19.2986 49.8315H19.4947V60.101C19.4947 62.3072 21.2832 64.0954 23.4892 64.0954C25.6954 64.0954 27.4839 62.3072 27.4839 60.101V49.8315Z" fill="url(#paint1_linear_2235_7742)"/>
<path d="M7.9264 20.6776C10.1323 20.6776 11.9209 22.4662 11.9209 24.6724V41.8088C11.9209 44.015 10.1323 45.8036 7.9264 45.8036C5.72018 45.8036 3.93164 44.015 3.93164 41.8091V24.6727C3.93136 22.4665 5.7199 20.6776 7.9264 20.6776Z" fill="url(#paint2_linear_2235_7742)"/>
<path d="M57.0745 20.6776C59.2804 20.6776 61.0689 22.4662 61.0689 24.6724V41.8088C61.0689 44.015 59.2804 45.8036 57.0745 45.8036C54.8682 45.8036 53.0797 44.015 53.0797 41.8091V24.6727C53.0797 22.4665 54.8682 20.6776 57.0745 20.6776Z" fill="url(#paint3_linear_2235_7742)"/>
<path d="M27.1333 9.51441C27.1367 10.6292 26.2141 11.5355 25.0724 11.5386C23.9313 11.5414 23.0034 10.6404 23 9.52563V9.51441C22.9969 8.39938 23.9195 7.49333 25.0609 7.49024C26.202 7.48716 27.13 8.38788 27.1333 9.50319V9.51441ZM42.5603 9.51441C42.5637 10.6292 41.6411 11.5355 40.4994 11.5386C39.3583 11.5414 38.4304 10.6404 38.427 9.52563V9.51441C38.4239 8.39938 39.3465 7.49333 40.4879 7.49024C41.629 7.48716 42.557 8.38788 42.5603 9.50319V9.51441Z" fill="white"/>
</g>
<defs>
<linearGradient id="paint0_linear_2235_7742" x1="16.5307" y1="14.3349" x2="50.9803" y2="57.8275" gradientUnits="userSpaceOnUse">
<stop stop-color="#06BA9F"/>
<stop offset="1" stop-color="#078572"/>
</linearGradient>
<linearGradient id="paint1_linear_2235_7742" x1="16.5307" y1="14.3349" x2="50.9803" y2="57.8275" gradientUnits="userSpaceOnUse">
<stop stop-color="#06BA9F"/>
<stop offset="1" stop-color="#078572"/>
</linearGradient>
<linearGradient id="paint2_linear_2235_7742" x1="16.5307" y1="14.3349" x2="50.9803" y2="57.8275" gradientUnits="userSpaceOnUse">
<stop stop-color="#06BA9F"/>
<stop offset="1" stop-color="#078572"/>
</linearGradient>
<linearGradient id="paint3_linear_2235_7742" x1="16.5307" y1="14.3349" x2="50.9803" y2="57.8275" gradientUnits="userSpaceOnUse">
<stop stop-color="#06BA9F"/>
<stop offset="1" stop-color="#078572"/>
</linearGradient>
<clipPath id="clip0_2235_7742">
<rect width="64" height="64" fill="white" transform="translate(0.5 0.0957031)"/>
</clipPath>
</defs>
</svg>
