<svg width="21" height="20" viewBox="0 0 21 20" fill="none" xmlns="http://www.w3.org/2000/svg">
<g clip-path="url(#clip0_2029_81800)">
<path d="M5.41849 0.0657689C5.38218 0.0028777 5.30176 -0.0186717 5.23887 0.017637C5.17598 0.0539457 5.15443 0.134363 5.19074 0.197254L6.24788 2.02835C5.40363 2.87343 4.8872 3.97275 4.87043 5.17683H16.1291C16.1123 3.97286 15.596 2.87359 14.7518 2.02851L15.8091 0.197257C15.8454 0.134367 15.8238 0.0539493 15.7609 0.0176389C15.698 -0.0186716 15.6176 0.00287548 15.5813 0.0657656L14.5557 1.84213C13.668 1.04052 12.4688 0.501467 11.1271 0.372028H9.87247C8.53084 0.501422 7.33166 1.04041 6.44394 1.84198L5.41849 0.0657689Z" fill="white"/>
<path d="M8.93223 15.5424H12.0676V18.7516C12.0676 19.4411 12.6265 19.9999 13.3158 19.9999C14.0053 19.9999 14.5642 19.4411 14.5642 18.7516V15.5424H14.6252C15.4827 15.5424 16.1734 14.8394 16.1734 13.9669V5.85341C16.1734 5.80502 16.1716 5.75698 16.1676 5.70982H4.83397C4.82985 5.75716 4.82625 5.80502 4.82625 5.85341V13.9669C4.82625 14.8395 5.51692 15.5424 6.37432 15.5424H6.4356V18.7516C6.4356 19.4411 6.99452 19.9999 7.68387 19.9999C8.37331 19.9999 8.93223 19.4411 8.93223 18.7516V15.5424Z" fill="white"/>
<path d="M2.82051 6.43186C3.50986 6.43186 4.06878 6.99078 4.06878 7.68022V13.0354C4.06878 13.7248 3.50986 14.2837 2.82051 14.2837C2.13106 14.2837 1.57214 13.7248 1.57214 13.0354V7.68031C1.57206 6.99086 2.13097 6.43186 2.82051 6.43186Z" fill="white"/>
<path d="M18.1793 6.43186C18.8686 6.43186 19.4275 6.99078 19.4275 7.68022V13.0354C19.4275 13.7248 18.8686 14.2837 18.1793 14.2837C17.4898 14.2837 16.9309 13.7248 16.9309 13.0354V7.68031C16.9309 6.99086 17.4898 6.43186 18.1793 6.43186Z" fill="white"/>
<path d="M8.82286 2.94347C8.82391 3.29183 8.5356 3.57506 8.17882 3.57602C7.82222 3.5769 7.53224 3.29533 7.53119 2.94697V2.94347C7.53023 2.59502 7.81854 2.31188 8.17523 2.31092C8.53183 2.30995 8.82181 2.59143 8.82286 2.93996V2.94347ZM13.6438 2.94347C13.6448 3.29183 13.3565 3.57506 12.9998 3.57602C12.6432 3.5769 12.3532 3.29533 12.3521 2.94697V2.94347C12.3512 2.59502 12.6395 2.31188 12.9962 2.31092C13.3528 2.30995 13.6427 2.59143 13.6438 2.93996V2.94347Z" fill="#06BA9F"/>
</g>
<defs>
<clipPath id="clip0_2029_81800">
<rect width="20" height="20" fill="white" transform="translate(0.5)"/>
</clipPath>
</defs>
</svg>
