<svg width="48" height="59" viewBox="0 0 48 59" fill="none" xmlns="http://www.w3.org/2000/svg">
<path d="M39.6628 31.4093C39.7443 40.1866 47.3627 43.1075 47.4471 43.1446C47.3827 43.3505 46.2298 47.307 43.4334 51.3938C41.0159 54.9271 38.507 58.4473 34.5546 58.5202C30.6711 58.5918 29.4223 56.2173 24.9822 56.2173C20.5435 56.2173 19.1561 58.4474 15.4798 58.5919C11.6648 58.7363 8.75961 54.7713 6.32221 51.2509C1.34146 44.05 -2.46486 30.903 2.64607 22.0285C5.18507 17.6214 9.72246 14.8306 14.6474 14.759C18.3936 14.6876 21.9296 17.2794 24.2198 17.2794C26.5086 17.2794 30.8055 14.1625 35.3228 14.6203C37.2139 14.699 42.5223 15.3842 45.9308 20.3735C45.6562 20.5438 39.5969 24.0712 39.6628 31.4093ZM32.364 9.85627C34.3895 7.40458 35.7527 3.9916 35.3808 0.595703C32.4613 0.713042 28.931 2.54117 26.8369 4.99152C24.9602 7.16141 23.3166 10.6345 23.7601 13.9631C27.0142 14.2149 30.3385 12.3095 32.364 9.85627Z" fill="white"/>
</svg>
