<svg width="25" height="24" viewBox="0 0 25 24" fill="none" xmlns="http://www.w3.org/2000/svg">
<path d="M6.22387 16.4624L14.5785 6.32926C14.6322 6.2642 14.6895 6.20112 14.7503 6.14026C15.7837 5.10685 17.4591 5.10685 18.4925 6.14026C19.5259 7.17367 19.5259 8.84914 18.4925 9.88255C18.4317 9.94341 18.3685 10.0007 18.3035 10.0544L8.1706 18.4092V19.6566C8.1706 19.9953 8.04143 20.3339 7.78307 20.5922C7.26638 21.1089 6.42865 21.1089 5.91195 20.5922L4.04084 18.721C3.52415 18.2043 3.52415 17.3666 4.04084 16.8499C4.29917 16.5916 4.63777 16.4624 4.97638 16.4624H6.22387V16.4624Z" stroke="#A5A5A5" stroke-width="1.5" stroke-miterlimit="10" stroke-linecap="round" stroke-linejoin="round"/>
<path d="M16.3211 11.6946L19.1769 19.1784C19.3602 19.6521 19.2608 20.2101 18.8785 20.5923C18.3618 21.109 17.5241 21.109 17.0074 20.5923C16.9626 20.5475 16.9216 20.5002 16.8845 20.4509L12.6152 14.7533" stroke="#A5A5A5" stroke-width="1.5" stroke-miterlimit="10" stroke-linecap="round" stroke-linejoin="round"/>
<path d="M17.1982 7.47649L20.0211 4.65361" stroke="#A5A5A5" stroke-width="1.5" stroke-miterlimit="10" stroke-linecap="round" stroke-linejoin="round"/>
<path d="M15.5636 3.02017L21.6533 9.11007" stroke="#A5A5A5" stroke-width="1.5" stroke-miterlimit="10" stroke-linecap="round" stroke-linejoin="round"/>
<path d="M12.9385 8.31282L5.45477 5.45698C4.98108 5.27366 4.42314 5.37312 4.04091 5.75537C3.52422 6.27207 3.52422 7.10983 4.04091 7.62653C4.08576 7.67138 4.13306 7.71236 4.18235 7.74944L9.87981 12.0188" stroke="#A5A5A5" stroke-width="1.5" stroke-miterlimit="10" stroke-linecap="round" stroke-linejoin="round"/>
</svg>
