<svg width="85" height="19" viewBox="0 0 85 19" fill="none" xmlns="http://www.w3.org/2000/svg">
<path d="M17.7251 11.7253C16.5496 16.4656 11.7538 19.3552 7.01333 18.1797C2.27307 17.0044 -0.616576 12.2084 0.55894 7.46823C1.73446 2.72782 6.53023 -0.161988 11.2705 1.01351C11.2785 1.0155 11.2866 1.01749 11.2946 1.01968C16.0223 2.20613 18.8986 6.99429 17.7251 11.7253Z" fill="#F7931A"/>
<path d="M11.1482 8.3095C10.8719 9.41496 9.18618 8.8483 8.63901 8.713L9.12251 6.77864C9.66132 6.91135 11.4246 7.16543 11.1399 8.3095H11.1482ZM10.847 11.4353C10.5485 12.6398 8.52022 11.988 7.86243 11.8247L8.39567 9.68854C9.05346 9.85428 11.1592 10.1776 10.847 11.4353ZM13.0577 8.32621C13.2318 7.14892 12.3365 6.5162 11.1234 6.09618L11.5213 4.50165L10.5404 4.25851L10.1536 5.81165C9.89929 5.74818 9.63684 5.6873 9.37699 5.6292L9.76379 4.05954L8.79381 3.81641L8.39587 5.41093L7.77687 5.27285L6.43661 4.93839L6.17954 5.97481C6.17954 5.97481 6.89802 6.14055 6.88429 6.15169C7.15867 6.18492 7.35883 6.42865 7.33754 6.70442L6.88429 8.52C6.91831 8.52776 6.95174 8.53871 6.98378 8.55323L6.88151 8.52558L6.24858 11.0708C6.18929 11.257 5.99032 11.3595 5.80388 11.3002H5.80368C5.80368 11.3139 5.09615 11.1261 5.09615 11.1261L4.61523 12.2315L5.8781 12.5439L6.56892 12.7236L6.1682 14.3346L7.13818 14.5778L7.53612 12.9832C7.79756 13.0551 8.05483 13.1213 8.30713 13.1822L7.91476 14.7823L8.88474 15.0227L9.28546 13.4144C10.9435 13.727 12.1843 13.6022 12.7093 12.1046C13.1322 10.8997 12.6873 10.2061 11.8168 9.75281C12.4523 9.60637 12.9222 9.20008 13.0575 8.32681L13.0577 8.32621Z" fill="white"/>
<path d="M23.3168 15.6685C23.8334 15.6701 24.3415 15.5386 24.7926 15.2871C25.2568 15.0395 25.6651 14.6987 25.992 14.2866C26.3326 13.8509 26.6004 13.3628 26.7851 12.8413C26.9799 12.3025 27.0788 11.7341 27.078 11.1613C27.109 10.5801 26.9848 10.0011 26.7186 9.48376C26.4811 9.08304 26.0387 8.8787 25.3977 8.8787C25.1183 8.88825 24.8405 8.92626 24.5686 8.99191C24.2309 9.06732 23.9185 9.22928 23.662 9.46168L22.1974 15.5855L22.4324 15.6297C22.5022 15.6468 22.5737 15.6579 22.6451 15.6629C22.7368 15.6742 22.8292 15.6788 22.9215 15.6766L23.3166 15.6683L23.3168 15.6685ZM26.2268 6.09594C26.8665 6.08122 27.5016 6.21174 28.0838 6.47736C28.5891 6.71831 29.0332 7.07068 29.3826 7.50821C29.7404 7.96066 30.0034 8.48017 30.1564 9.03629C30.324 9.6495 30.4065 10.2826 30.4024 10.9183C30.4016 12.8961 29.6349 14.7964 28.2634 16.2214C27.5985 16.9035 26.8074 17.4494 25.9339 17.8297C25.018 18.2328 24.0274 18.4383 23.0267 18.4321H22.3192C21.9346 18.4196 21.5506 18.3866 21.1695 18.3327C20.7042 18.2652 20.2429 18.1731 19.7879 18.0563C19.3108 17.9431 18.8476 17.7781 18.4062 17.5644L22.289 1.29883L25.7572 0.746094L24.3756 6.51894C24.6633 6.38882 24.9619 6.28436 25.2681 6.20676C25.5837 6.12996 25.9078 6.09176 26.2325 6.09355L26.227 6.09634L26.2268 6.09594Z" fill="white"/>
<path d="M35.5972 4.91163C35.1452 4.916 34.7044 4.77116 34.3425 4.49996C33.9589 4.19654 33.7516 3.722 33.7898 3.23433C33.7882 2.93011 33.853 2.62907 33.9804 2.3527C34.1024 2.0835 34.2737 1.83976 34.4862 1.63423C34.6985 1.43248 34.9444 1.26972 35.213 1.15332C35.4924 1.03335 35.7934 0.972263 36.0972 0.973656C36.5461 0.972263 36.9826 1.11791 37.3408 1.38811C37.7236 1.69213 37.9307 2.16627 37.8935 2.65374C37.8959 2.95876 37.8319 3.26059 37.7057 3.53795C37.5837 3.80576 37.4132 4.04831 37.2027 4.25364C36.991 4.45619 36.7451 4.61894 36.4759 4.73454C36.1965 4.85452 35.8955 4.91481 35.5916 4.91143H35.5972V4.91163ZM33.9862 18.1183H30.6699L33.472 6.34579H36.8076L33.986 18.1183H33.9862Z" fill="white"/>
<path d="M39.7149 3.40858L43.183 2.87256L42.3208 6.34077H46.0352L45.3661 9.071H41.6823L40.6986 13.1775C40.6135 13.4919 40.5608 13.8142 40.5411 14.1395C40.5208 14.4025 40.5598 14.6668 40.6543 14.9129C40.7468 15.1337 40.9181 15.3122 41.1352 15.4131C41.4476 15.5512 41.7886 15.6141 42.13 15.5956C42.4798 15.5967 42.8288 15.5623 43.1718 15.4933C43.5171 15.4258 43.8571 15.3335 44.1888 15.2169L44.4375 17.7703C43.9613 17.9414 43.4749 18.0829 42.981 18.1931C42.3708 18.3226 41.7478 18.3829 41.124 18.3727C40.0932 18.3727 39.2973 18.2179 38.728 17.9139C38.1956 17.6431 37.769 17.2014 37.5177 16.6592C37.2724 16.084 37.1653 15.4593 37.2055 14.8353C37.2427 14.1033 37.3472 13.3763 37.5177 12.6632L39.7147 3.39744V3.40858H39.7149Z" fill="white"/>
<path d="M45.9187 13.4184C45.9117 12.4419 46.078 11.4713 46.4105 10.5529C46.7223 9.68439 47.2012 8.88553 47.8198 8.20128C48.4436 7.5226 49.2021 6.9824 50.0471 6.61471C50.9687 6.21678 51.9642 6.01801 52.968 6.03193C53.574 6.02477 54.1789 6.08864 54.7698 6.22235C55.2667 6.34014 55.75 6.50866 56.2124 6.72534L55.0601 9.3147C54.7617 9.19313 54.4521 9.08848 54.1316 8.99138C53.7493 8.88493 53.3536 8.83559 52.957 8.84494C51.955 8.80873 50.9912 9.23233 50.34 9.99458C49.6933 10.7552 49.3688 11.7777 49.3672 13.0621C49.3368 13.7135 49.5087 14.3581 49.8591 14.9083C50.1868 15.378 50.7914 15.6126 51.6719 15.6126C52.0939 15.613 52.5145 15.5677 52.9266 15.4773C53.2941 15.3989 53.6542 15.2871 54.0016 15.1429L54.2476 17.807C53.7955 17.9782 53.3343 18.124 52.8659 18.2434C52.2712 18.3775 51.6627 18.4408 51.0531 18.4316C50.2439 18.4551 49.4384 18.3188 48.682 18.0307C48.0807 17.7883 47.5393 17.4179 47.0958 16.9449C46.6749 16.4865 46.364 15.9381 46.1867 15.3418C45.999 14.7143 45.9059 14.0623 45.9103 13.4075L45.9187 13.4186V13.4184Z" fill="white"/>
<path d="M62.2744 8.85922C61.8068 8.85266 61.3497 9.00129 60.9755 9.28203C60.596 9.5757 60.2777 9.94121 60.0387 10.3571C59.7759 10.7998 59.5785 11.2785 59.453 11.7779C59.3314 12.2566 59.2681 12.748 59.2651 13.2421C59.2353 13.8452 59.3581 14.4456 59.6217 14.9886C59.8622 15.4059 60.2932 15.616 60.9206 15.616C61.3889 15.6239 61.8466 15.4741 62.2194 15.1904C62.5997 14.8967 62.9186 14.5312 63.159 14.1158C63.418 13.6725 63.6106 13.1939 63.7312 12.6949C63.8514 12.2152 63.9147 11.7226 63.9188 11.2275C63.9499 10.6249 63.8267 10.0238 63.5623 9.481C63.3219 9.06655 62.888 8.85644 62.2634 8.85644L62.2746 8.85922H62.2744ZM60.6163 18.4373C59.9122 18.4536 59.212 18.3315 58.5548 18.078C58.0019 17.8599 57.508 17.5157 57.1123 17.072C56.7231 16.6251 56.43 16.1032 56.2501 15.5384C56.0547 14.9051 55.9612 14.2445 55.9738 13.5819C55.976 12.6695 56.1222 11.7628 56.4079 10.8959C56.6851 10.0234 57.1178 9.20821 57.6843 8.48894C58.2534 7.76987 58.9611 7.17217 59.7651 6.73146C60.6307 6.26608 61.6012 6.0309 62.584 6.0488C63.2839 6.03607 63.9803 6.15824 64.6345 6.40814C65.1881 6.62263 65.6847 6.96226 66.0852 7.40019C66.472 7.84827 66.7645 8.36996 66.9448 8.93384C67.1416 9.56775 67.2349 10.2293 67.2212 10.8931C67.2184 11.8047 67.0757 12.7108 66.7983 13.5791C66.526 14.4528 66.1012 15.2712 65.5436 15.9972C64.9829 16.7192 64.278 17.3169 63.4738 17.7521C62.5949 18.2199 61.6118 18.4558 60.6163 18.4373Z" fill="white"/>
<path d="M72.4673 4.91168C72.016 4.91646 71.5757 4.77161 71.2156 4.50002C70.8317 4.19659 70.6244 3.72205 70.6628 3.23438C70.6612 2.93016 70.7261 2.62912 70.8532 2.35276C70.9718 2.08495 71.1384 1.84161 71.3451 1.63429C71.5588 1.43313 71.8055 1.27037 72.0747 1.15338C72.3533 1.0336 72.6533 0.972518 72.9566 0.973712C73.4086 0.969733 73.8501 1.11578 74.2113 1.38816C74.5941 1.69218 74.801 2.16632 74.764 2.6538C74.7646 2.95921 74.6985 3.26105 74.5702 3.53801C74.4504 3.80602 74.2805 4.04896 74.0702 4.2537C73.8585 4.45624 73.6126 4.619 73.3433 4.7346C73.0664 4.85338 72.7683 4.91367 72.4671 4.91148L72.4673 4.91168ZM70.8592 18.1184H67.543L70.3397 6.34584H73.678L70.8592 18.1184Z" fill="white"/>
<path d="M76.051 6.88324C76.3025 6.81141 76.5817 6.72287 76.8801 6.62637C77.1786 6.52967 77.5268 6.44113 77.9106 6.35001C78.3318 6.26067 78.757 6.19342 79.1848 6.14825C79.7162 6.09214 80.2505 6.06528 80.7849 6.06807C82.5315 6.06807 83.7362 6.57544 84.3996 7.59077C84.7967 8.19881 84.9977 8.94057 85.0025 9.81622V9.8793C84.9995 10.4487 84.9145 11.0741 84.7478 11.7552L83.2251 18.111H79.8979L81.3762 11.8875C81.4646 11.5009 81.5366 11.125 81.5891 10.7575C81.6466 10.4394 81.6466 10.1137 81.5891 9.79593C81.5342 9.53031 81.3874 9.29274 81.1747 9.12441C80.8798 8.93102 80.5288 8.84068 80.1771 8.86735C79.7341 8.86814 79.2924 8.91351 78.8589 9.00284L76.6867 18.1221H73.3398L76.051 6.88324Z" fill="white"/>
</svg>
