<svg width="25" height="24" viewBox="0 0 25 24" fill="none" xmlns="http://www.w3.org/2000/svg">
<path d="M20.32 11.64V19.56C20.32 19.9419 20.1795 20.3082 19.9295 20.5782C19.6794 20.8483 19.3403 21 18.9867 21H6.31999C5.96637 21 5.62723 20.8483 5.37718 20.5782C5.12713 20.3082 4.98665 19.9419 4.98665 19.56V11.64M12.32 5.52C12.32 5.02159 12.1831 4.53438 11.9267 4.11996C11.6704 3.70555 11.3059 3.38256 10.8796 3.19182C10.4532 3.00109 9.98407 2.95119 9.53144 3.04842C9.07882 3.14566 8.66306 3.38566 8.33674 3.73809C8.01042 4.09052 7.78819 4.53954 7.69815 5.02837C7.60812 5.51721 7.65433 6.02389 7.83093 6.48436C8.00754 6.94483 8.30661 7.3384 8.69032 7.6153C9.07404 7.89221 9.52516 8.04 9.98665 8.04H12.32M12.32 5.52V8.04M12.32 5.52C12.32 5.02159 12.4568 4.53438 12.7132 4.11996C12.9696 3.70555 13.334 3.38256 13.7604 3.19182C14.1868 3.00109 14.6559 2.95119 15.1085 3.04842C15.5612 3.14566 15.9769 3.38566 16.3032 3.73809C16.6296 4.09052 16.8518 4.53954 16.9418 5.02837C17.0319 5.51721 16.9856 6.02389 16.809 6.48436C16.6324 6.94483 16.3334 7.3384 15.9497 7.6153C15.5659 7.89221 15.1148 8.04 14.6533 8.04H12.32M12.32 8.04V21M4.65332 11.64H20.6533C21.2053 11.64 21.6533 11.1562 21.6533 10.56V9.12C21.6533 8.52384 21.2053 8.04 20.6533 8.04H4.65332C4.10132 8.04 3.65332 8.52384 3.65332 9.12V10.56C3.65332 11.1562 4.10132 11.64 4.65332 11.64Z" stroke="#A5A5A5" stroke-width="1.5" stroke-linecap="round" stroke-linejoin="round"/>
</svg>
