<svg width="48" height="48" viewBox="0 0 48 48" fill="none" xmlns="http://www.w3.org/2000/svg">
<g id="Frame" clip-path="url(#clip0_2004_35336)">
<g id="Group">
<path id="Vector" d="M24 48C37.2548 48 48 37.2548 48 24C48 10.7452 37.2548 0 24 0C10.7452 0 0 10.7452 0 24C0 37.2548 10.7452 48 24 48Z" fill="#06BA9F"/>
<path id="Vector_2" fill-rule="evenodd" clip-rule="evenodd" d="M16.4978 35.7165L7.74823 26.2866C7.16778 25.6647 6.85772 24.8379 6.88606 23.9877C6.9144 23.1374 7.27883 22.3331 7.89941 21.7512C8.5238 21.1731 9.35201 20.8664 10.2023 20.8983C11.0526 20.9302 11.8555 21.2981 12.4348 21.9213L19.2002 29.1591L29.9152 19.1433C30.0109 19.0554 30.1119 18.9733 30.2175 18.8976L35.2443 14.1921C35.8662 13.6117 36.693 13.3016 37.5433 13.33C38.3935 13.3583 39.1978 13.7227 39.7797 14.3433C40.3602 14.9653 40.6702 15.792 40.6419 16.6423C40.6135 17.4925 40.2491 18.2968 39.6285 18.8788L24.227 33.241L18.8789 38.211L16.5167 35.6788L16.4978 35.7165Z" fill="white"/>
</g>
</g>
<defs>
<clipPath id="clip0_2004_35336">
<rect width="48" height="48" fill="white"/>
</clipPath>
</defs>
</svg>
