<svg width="48" height="48" viewBox="0 0 48 48" fill="none" xmlns="http://www.w3.org/2000/svg">
<g id="Frame" clip-path="url(#clip0_2004_35349)">
<g id="Group">
<g id="Layer 2">
<path id="Vector" d="M24 48C37.2548 48 48 37.2548 48 24C48 10.7452 37.2548 0 24 0C10.7452 0 0 10.7452 0 24C0 37.2548 10.7452 48 24 48Z" fill="#FF3B1C"/>
<path id="Vector_2" d="M32.6812 36.6562C32.1587 36.6578 31.6411 36.5558 31.1583 36.3559C30.6755 36.156 30.2372 35.8623 29.8687 35.4919L24 29.625L18.1312 35.4947C17.3853 36.2406 16.3736 36.6597 15.3187 36.6597C14.2639 36.6597 13.2522 36.2406 12.5062 35.4947C11.7603 34.7488 11.3413 33.7371 11.3413 32.6822C11.3413 31.6273 11.7603 30.6156 12.5062 29.8697L18.375 24L12.5053 18.1312C11.7594 17.3853 11.3403 16.3736 11.3403 15.3187C11.3403 14.2639 11.7594 13.2522 12.5053 12.5062C13.2512 11.7603 14.2629 11.3413 15.3178 11.3413C16.3727 11.3413 17.3844 11.7603 18.1303 12.5062L24 18.375L29.8687 12.5053C30.2381 12.136 30.6766 11.843 31.1591 11.6431C31.6417 11.4432 32.1589 11.3403 32.6812 11.3403C33.2036 11.3403 33.7208 11.4432 34.2034 11.6431C34.6859 11.843 35.1244 12.136 35.4937 12.5053C35.8631 12.8747 36.1561 13.3131 36.356 13.7957C36.5558 14.2783 36.6587 14.7955 36.6587 15.3178C36.6587 15.8401 36.5558 16.3574 36.356 16.8399C36.1561 17.3225 35.8631 17.761 35.4937 18.1303L29.625 24L35.4947 29.8687C36.0508 30.4248 36.4296 31.1334 36.583 31.9048C36.7364 32.6762 36.6576 33.4757 36.3565 34.2023C36.0554 34.9289 35.5456 35.5499 34.8916 35.9867C34.2376 36.4235 33.4687 36.6565 32.6822 36.6562H32.6812Z" fill="white"/>
</g>
</g>
</g>
<defs>
<clipPath id="clip0_2004_35349">
<rect width="48" height="48" fill="white"/>
</clipPath>
</defs>
</svg>
