<svg width="60" height="51" viewBox="0 0 60 51" fill="none" xmlns="http://www.w3.org/2000/svg">
<g clip-path="url(#clip0_2235_6450)">
<path d="M59.31 8.92366C59.31 8.92366 59.5543 3.83828 50.305 4.56092C45.4258 4.94108 41.3165 5.23386 37.7824 5.42394C34.7515 5.58959 25.2702 5.59829 22.4952 5.45542C18.8253 5.26658 14.5284 4.96386 9.36804 4.56257C0.118685 3.83828 0.363429 8.92366 0.363429 8.92366C0.206892 9.43345 2.41084 22.3788 2.41084 22.3788C2.41084 22.3788 2.76532 37.9352 9.59042 40.9798C18.5329 43.831 43.0927 43.6364 50.7394 41.044C57.8167 38.6454 57.2626 22.3788 57.2626 22.3788C57.2626 22.3788 59.4665 9.43345 59.31 8.92366Z" fill="url(#paint0_radial_2235_6450)"/>
<path d="M42.9326 19.6779C41.711 19.4986 39.6018 19.3723 38.046 20.2316C38.0539 20.2175 38.0613 20.2022 38.0688 20.1869C38.8916 19.6444 41.009 18.3821 43.4809 17.9469C44.3965 14.9731 45.2049 11.8407 45.7714 8.53809C46.0021 7.19552 46.2104 5.93825 46.3864 4.85864C45.438 4.92863 44.5174 4.99489 43.6316 5.05701C42.5657 6.29936 41.4343 7.64152 40.5543 8.75344C40.9378 11.4821 40.5175 13.1431 40.4015 13.532C40.3912 13.5506 40.3812 13.5692 40.3709 13.587C40.3568 13.3655 40.2326 11.9417 39.3149 10.036C38.2526 12.0813 35.9431 14.1772 31.688 20.4374C27.4329 26.6976 26.3529 28.321 24.7246 34.9461C26.0448 36.7922 27.216 39.549 27.7891 41.0046C27.5257 41.7026 27.2702 42.3728 27.0226 43.0152C27.5319 43.0268 28.0427 43.0358 28.5548 43.0421C28.8033 42.398 29.0564 41.7375 29.3143 41.0605C31.1803 39.7035 33.9172 39.0554 36.3249 38.6069C37.677 33.1894 40.5605 26.925 42.9326 19.6779Z" fill="#BE9F74"/>
<path d="M3.56575 13.5332C3.56575 13.5332 3.4382 12.3894 3.24853 10.0679C3.07295 7.90493 6.59255 7.7074 7.40257 7.7074C8.21258 7.7074 12.0275 8.26232 11.8022 10.3839C11.5901 12.3828 11.0804 14.6348 11.0804 14.6348L3.56575 13.5332Z" fill="url(#paint1_linear_2235_6450)"/>
<path d="M5.78076 12.5095L5.60352 9.83847C6.025 9.64174 6.47563 9.51475 6.93781 9.46245C8.01659 9.3465 9.37573 9.455 9.27013 10.383C9.09123 11.9567 8.33049 12.5095 8.33049 12.5095H5.78076Z" fill="url(#paint2_linear_2235_6450)"/>
<path d="M3.25688 9.69397C3.25688 9.69397 3.04982 11.8395 6.09194 11.8395C9.13406 11.8395 9.26824 10.3831 9.26824 10.3831L9.05455 14.7234L3.57368 14.2679L3.25688 9.69397Z" fill="url(#paint3_linear_2235_6450)"/>
<path d="M0.363281 9.20068C0.363281 9.20068 0.39641 13.1269 5.88639 13.1269C11.824 13.1269 11.793 10.2095 11.793 10.2095C11.793 10.2095 10.4893 22.05 10.6426 28.1429C10.7958 34.2359 11.4708 41.2527 11.5462 41.5964C12.5815 46.365 5.56628 46.2201 5.96342 46.1931C5.96342 46.1931 0.593946 46.4197 1.13106 41.6138C2.06034 28.0104 1.28428 18.8128 0.363281 9.20068Z" fill="url(#paint4_linear_2235_6450)"/>
<path d="M56.107 13.5332C56.107 13.5332 56.2353 12.3898 56.4238 10.0679C56.5998 7.90493 53.0797 7.7074 52.2701 7.7074C51.4605 7.7074 47.7658 8.25321 47.8714 10.3839C47.9894 12.7857 48.2573 14.6356 48.2573 14.6356L56.107 13.5332Z" fill="url(#paint5_linear_2235_6450)"/>
<path d="M53.8943 12.5095L54.0711 9.83847C53.6497 9.64159 53.1991 9.51459 52.7368 9.46245C51.6581 9.3465 50.2997 9.455 50.4041 10.383C50.5834 11.9567 51.3442 12.5095 51.3442 12.5095H53.8943Z" fill="url(#paint6_linear_2235_6450)"/>
<path d="M56.4361 9.71423C56.4361 9.71423 56.6237 11.8395 53.5786 11.8395C50.5336 11.8395 50.4023 10.383 50.4023 10.383L50.6169 14.7234L56.0977 14.2679L56.4361 9.71423Z" fill="url(#paint7_linear_2235_6450)"/>
<path d="M59.3092 9.20068C59.3092 9.20068 59.2761 13.1269 53.7861 13.1269C47.8484 13.1269 47.8691 10.2198 47.8691 10.2198C47.8691 10.2198 48.8767 23.0294 48.8767 29.1231C48.8767 36.1309 48.2038 41.2527 48.1259 41.5964C47.0906 46.365 54.107 46.2201 53.7095 46.1931C53.7095 46.1931 59.0785 46.4197 58.5422 41.6138C57.5318 27.7334 58.3878 18.8128 59.3092 9.20068Z" fill="url(#paint8_linear_2235_6450)"/>
<path d="M11.1024 8.71079C10.6336 8.30868 9.98428 7.99105 9.21402 7.78813C8.89142 7.70531 8.2955 7.62456 7.58653 7.62249C6.92891 7.62249 6.17852 7.69206 5.47742 7.9016C5.14612 7.99851 4.61564 8.19604 4.15597 8.51284C3.92341 8.66736 3.71963 8.86132 3.55384 9.08598C3.38539 9.31569 3.2934 9.59253 3.29087 9.87737C3.29087 10.5093 3.66358 11.0477 4.23258 11.4125C4.80158 11.7773 5.57515 11.989 6.43072 11.9894C6.52928 11.9894 6.62826 11.9869 6.72806 11.9811C7.67722 11.9273 8.31372 11.7181 8.72495 11.4266C9.13617 11.135 9.31258 10.7549 9.31092 10.4095C9.31092 10.3747 9.31092 10.3416 9.30595 10.3089C9.28069 10.0393 9.12623 9.78088 8.86326 9.58872C8.6003 9.39657 8.22759 9.26323 7.74845 9.22761C7.62007 9.21809 7.48176 9.20898 7.33226 9.20898C6.85602 9.20898 5.90396 9.47981 5.60041 9.83802C5.60041 9.83802 7.34758 8.96837 8.66697 9.855C8.86864 10.0041 8.96058 10.1764 8.97714 10.3395L8.98046 10.4095C8.97839 10.6464 8.87113 10.9151 8.53362 11.157C8.19611 11.3988 7.61883 11.5997 6.70943 11.6506C6.61583 11.6564 6.52307 11.6585 6.43072 11.6585C5.6294 11.6585 4.91463 11.4593 4.41148 11.1342C3.90832 10.8091 3.62217 10.3722 3.62175 9.87737C3.62436 9.66081 3.69539 9.45064 3.82467 9.27689C4.01641 9.00233 4.33487 8.76711 4.66657 8.58821C4.95397 8.43482 5.25634 8.31131 5.56894 8.21965C6.22615 8.02252 6.94879 7.95461 7.58322 7.95461C8.26486 7.95461 8.84877 8.03453 9.1254 8.10783C9.85673 8.3004 10.4659 8.60229 10.8829 8.96133C11.2999 9.32037 11.5244 9.73035 11.5244 10.1519V10.2037C11.4921 10.892 11.1877 11.5131 10.4382 12.0122C9.6886 12.5112 8.47937 12.8673 6.67174 12.9555C6.49036 12.9642 6.31353 12.9692 6.14001 12.9692C4.50548 12.9692 3.21302 12.5795 2.30195 11.95C1.39089 11.3206 0.858747 10.4522 0.7283 9.46532C0.707842 9.31225 0.697467 9.158 0.697241 9.00357C0.697241 8.11405 1.04759 7.42992 1.40124 6.96321C1.54654 6.77197 1.70945 6.59478 1.88783 6.43396C3.70706 4.83049 6.42658 4.53357 6.42658 4.53357C6.42658 4.53357 4.65084 4.62012 3.35879 5.1796C2.44772 5.5523 1.82282 5.9598 1.13828 6.76277C0.640951 7.4038 0.369818 8.19143 0.367188 9.00275C0.367204 9.17171 0.37841 9.34049 0.400731 9.50797C0.542774 10.5884 1.13579 11.5454 2.11477 12.2221C3.09375 12.8988 4.45537 13.3005 6.14167 13.3005C6.32057 13.3005 6.50333 13.2958 6.68996 13.2864C8.53197 13.1953 9.79586 12.8333 10.6241 12.2892C11.4523 11.745 11.8275 11.0013 11.859 10.2186V10.1523C11.8586 9.60777 11.5691 9.11042 11.1024 8.71079Z" fill="url(#paint9_linear_2235_6450)"/>
<path d="M48.6206 8.68479C49.0885 8.28268 49.7387 7.96505 50.509 7.76213C50.8307 7.67931 51.4271 7.59856 52.1365 7.59648C52.7933 7.59648 53.5445 7.66647 54.2452 7.8756C54.5765 7.97168 55.1078 8.1688 55.5674 8.4856C55.8003 8.6399 56.004 8.83439 56.1687 9.05998C56.3373 9.28922 56.4297 9.56558 56.433 9.85012C56.433 10.4825 56.0603 11.0213 55.4908 11.3857C54.9214 11.7501 54.1478 11.9617 53.2919 11.9621C53.1933 11.9621 53.0952 11.9601 52.9945 11.9538C52.0462 11.9 51.4097 11.6917 50.9985 11.3998C50.5872 11.1078 50.41 10.7276 50.4117 10.3819C50.4117 10.3479 50.4117 10.3148 50.4166 10.2816C50.4427 10.0125 50.5968 9.75363 50.8597 9.5619C51.1227 9.37016 51.4954 9.2364 51.975 9.20078C52.1033 9.19126 52.2408 9.18215 52.3891 9.18215C52.8653 9.18215 53.8178 9.45257 54.1201 9.81078C54.1201 9.81078 52.3733 8.94113 51.0556 9.82817C50.8548 9.97684 50.7624 10.1495 50.7459 10.3123L50.743 10.3819C50.743 10.6196 50.8515 10.8883 51.189 11.1298C51.5265 11.3712 52.1042 11.5724 53.0111 11.6238C53.1055 11.6288 53.1974 11.6317 53.2898 11.6317C54.0911 11.6317 54.8063 11.4321 55.3095 11.1074C55.8126 10.7827 56.0996 10.345 56.0996 9.85012C56.0968 9.6336 56.0258 9.42346 55.8967 9.24965C55.7041 8.9755 55.3861 8.73987 55.0539 8.56138C54.7668 8.40759 54.4646 8.28394 54.152 8.1924C53.4948 7.99611 52.7721 7.92737 52.1385 7.92737C51.4561 7.92737 50.8722 8.00729 50.5959 8.08101C49.865 8.27357 49.2563 8.57505 48.838 8.9345C48.4197 9.29396 48.197 9.70311 48.197 10.1251V10.1769C48.2301 10.8651 48.5345 11.4859 49.284 11.9849C50.0336 12.4839 51.2428 12.8401 53.0525 12.9287C53.2333 12.9372 53.4103 12.9417 53.5834 12.9419C55.2204 12.9419 56.5125 12.5527 57.4223 11.9228C58.3321 11.2929 58.8655 10.4253 58.9959 9.43807C59.0168 9.28491 59.0272 9.1305 59.027 8.97592C59.027 8.08597 58.6771 7.40226 58.323 6.93514C58.1773 6.74473 58.014 6.5685 57.8352 6.40879C56.013 4.80491 53.2964 4.50757 53.2964 4.50757C53.2964 4.50757 55.0717 4.59412 56.3638 5.15318C57.2749 5.52589 57.8994 5.9338 58.5847 6.73719C59.0819 7.3783 59.353 8.16587 59.3558 8.97716C59.3557 9.14611 59.3447 9.31487 59.3227 9.48238C59.1798 10.5628 58.5868 11.5199 57.6082 12.1957C56.6297 12.8715 55.2697 13.2724 53.5809 13.2724C53.402 13.2724 53.2195 13.2677 53.0335 13.2583C51.1906 13.1672 49.9276 12.8057 49.0993 12.2603C48.2711 11.7149 47.8984 10.9732 47.8652 10.1897V10.1234C47.8636 9.58219 48.1535 9.08483 48.6206 8.68479Z" fill="url(#paint10_linear_2235_6450)"/>
<path d="M35.3583 17.8315C34.4472 19.0904 33.4686 20.4375 32.4321 21.8559C26.6932 29.7067 22.9707 37.3564 22.9707 37.3564C25.0537 35.962 28.23 35.7102 30.9611 35.639C33.1469 30.5006 36.977 24.7651 40.4573 17.9801C39.234 17.5991 37.0574 17.1188 35.3583 17.8315Z" fill="url(#paint11_linear_2235_6450)"/>
<path d="M42.1959 8.26688C42.1959 8.26688 39.4967 12.114 35.3691 17.8169C36.0702 17.4831 38.543 16.4031 41.2708 16.3584C42.6423 13.5639 43.9315 10.598 45.009 7.42456C46.323 3.56248 47.3256 0.421387 47.3256 0.421387L42.1959 8.26688Z" fill="url(#paint12_linear_2235_6450)"/>
<path d="M22.3661 37.6959C22.3661 37.6959 21.5122 33.0714 20.0781 30.2036C22.7256 23.9164 24.0491 22.4824 29.2339 16.9671C34.4187 11.4519 37.0276 9.74404 38.3975 7.89169C39.0601 10.0981 38.8808 11.5968 38.8808 11.5968C38.8808 11.5968 39.767 9.98589 39.8229 6.81912C42.5805 4.28181 47.3239 0.421387 47.3239 0.421387C47.3239 0.421387 30.2166 24.6739 22.3661 37.6959Z" fill="url(#paint13_linear_2235_6450)"/>
<path d="M16.1674 50.0648L16.1094 46.8595C16.1094 46.8595 20.0373 40.5968 25.044 31.5276C30.8901 20.9377 40.2658 10.2389 47.3257 0.421387C41.369 10.9007 32.3259 20.9377 27.0297 30.8654C21.7335 40.7931 16.4651 48.6472 16.1674 50.0648Z" fill="url(#paint14_linear_2235_6450)"/>
<path d="M43.2856 5.85049C37.6996 14.2426 30.9175 22.3838 26.6157 30.4521C22.0425 39.0273 17.491 46.0507 16.1426 48.7197L16.167 50.0648C16.4656 48.6472 21.7348 40.7926 27.0294 30.8654C32.3239 20.9381 41.3687 10.9007 47.3254 0.421387C46.0437 2.2021 44.6845 4.01553 43.2856 5.85049Z" fill="url(#paint15_linear_2235_6450)"/>
</g>
<defs>
<radialGradient id="paint0_radial_2235_6450" cx="0" cy="0" r="1" gradientUnits="userSpaceOnUse" gradientTransform="translate(32.9082 9.84667) scale(45.6186 45.6186)">
<stop stop-color="#DACFB4"/>
<stop offset="0.24" stop-color="#DACFB4"/>
<stop offset="1" stop-color="#A58247"/>
</radialGradient>
<linearGradient id="paint1_linear_2235_6450" x1="6.16143" y1="10.9756" x2="11.5613" y2="11.3292" gradientUnits="userSpaceOnUse">
<stop stop-color="#C1AB7E"/>
<stop offset="1" stop-color="#8A6B2F"/>
</linearGradient>
<linearGradient id="paint2_linear_2235_6450" x1="10.6567" y1="10.3342" x2="6.45646" y2="10.7274" gradientUnits="userSpaceOnUse">
<stop stop-color="#C1AB7E"/>
<stop offset="1" stop-color="#A58247"/>
</linearGradient>
<linearGradient id="paint3_linear_2235_6450" x1="3.18273" y1="12.9969" x2="9.19485" y2="12.9969" gradientUnits="userSpaceOnUse">
<stop stop-color="#A58247"/>
<stop offset="0.08" stop-color="#C1AB7E"/>
<stop offset="0.17" stop-color="#CCBE99"/>
<stop offset="0.29" stop-color="#DACFB4"/>
<stop offset="0.7" stop-color="#DACFB4"/>
<stop offset="0.78" stop-color="#CFC09C"/>
<stop offset="0.86" stop-color="#C1AC80"/>
<stop offset="1" stop-color="#A58247"/>
</linearGradient>
<linearGradient id="paint4_linear_2235_6450" x1="0.380442" y1="27.4725" x2="11.8091" y2="27.4725" gradientUnits="userSpaceOnUse">
<stop stop-color="#DACFB4"/>
<stop offset="0.3" stop-color="#DACFB4"/>
<stop offset="0.52" stop-color="#D3C7AA"/>
<stop offset="0.76" stop-color="#C6B690"/>
<stop offset="1" stop-color="#A58247"/>
</linearGradient>
<linearGradient id="paint5_linear_2235_6450" x1="53.9219" y1="11.6076" x2="48.5136" y2="11.9611" gradientUnits="userSpaceOnUse">
<stop stop-color="#C1AB7E"/>
<stop offset="1" stop-color="#8A6B2F"/>
</linearGradient>
<linearGradient id="paint6_linear_2235_6450" x1="49.0101" y1="10.3375" x2="53.2156" y2="10.7313" gradientUnits="userSpaceOnUse">
<stop stop-color="#C1AB7E"/>
<stop offset="1" stop-color="#A58247"/>
</linearGradient>
<linearGradient id="paint7_linear_2235_6450" x1="56.4941" y1="12.8621" x2="50.4622" y2="12.8621" gradientUnits="userSpaceOnUse">
<stop stop-color="#A58247"/>
<stop offset="0.08" stop-color="#C1AB7E"/>
<stop offset="0.17" stop-color="#CCBE99"/>
<stop offset="0.29" stop-color="#DACFB4"/>
<stop offset="0.7" stop-color="#DACFB4"/>
<stop offset="0.78" stop-color="#CFC09C"/>
<stop offset="0.86" stop-color="#C1AC80"/>
<stop offset="1" stop-color="#A58247"/>
</linearGradient>
<linearGradient id="paint8_linear_2235_6450" x1="59.3041" y1="27.6673" x2="47.8656" y2="27.6673" gradientUnits="userSpaceOnUse">
<stop stop-color="#DACFB4"/>
<stop offset="0.3" stop-color="#DACFB4"/>
<stop offset="0.52" stop-color="#D3C7AA"/>
<stop offset="0.76" stop-color="#C6B690"/>
<stop offset="1" stop-color="#A58247"/>
</linearGradient>
<linearGradient id="paint9_linear_2235_6450" x1="10.5694" y1="7.69519" x2="0.971781" y2="8.8216" gradientUnits="userSpaceOnUse">
<stop stop-color="white"/>
<stop offset="0.23" stop-color="white"/>
<stop offset="1" stop-color="#D3C8AA"/>
</linearGradient>
<linearGradient id="paint10_linear_2235_6450" x1="49.2249" y1="7.90333" x2="59.3962" y2="8.89928" gradientUnits="userSpaceOnUse">
<stop stop-color="white"/>
<stop offset="0.23" stop-color="white"/>
<stop offset="1" stop-color="#D3C8AA"/>
</linearGradient>
<linearGradient id="paint11_linear_2235_6450" x1="28.6632" y1="25.4844" x2="34.6393" y2="29.7635" gradientUnits="userSpaceOnUse">
<stop stop-color="#94F4DD"/>
<stop offset="0.19" stop-color="#37E4B8"/>
<stop offset="0.71" stop-color="#2FC5B0"/>
<stop offset="0.99" stop-color="#22BDA7"/>
<stop offset="1" stop-color="#22BDA7"/>
</linearGradient>
<linearGradient id="paint12_linear_2235_6450" x1="40.6914" y1="8.64911" x2="44.5017" y2="11.3777" gradientUnits="userSpaceOnUse">
<stop stop-color="#94F4DD"/>
<stop offset="0.19" stop-color="#37E4B8"/>
<stop offset="0.71" stop-color="#2FC5B0"/>
<stop offset="0.99" stop-color="#22BDA7"/>
<stop offset="1" stop-color="#22BDA7"/>
</linearGradient>
<linearGradient id="paint13_linear_2235_6450" x1="29.0968" y1="14.7168" x2="36.8731" y2="20.5907" gradientUnits="userSpaceOnUse">
<stop stop-color="#94F4DD"/>
<stop offset="0.19" stop-color="#37E4B8"/>
<stop offset="0.71" stop-color="#2FC5B0"/>
<stop offset="0.99" stop-color="#22BDA7"/>
<stop offset="1" stop-color="#22BDA7"/>
</linearGradient>
<linearGradient id="paint14_linear_2235_6450" x1="31.8314" y1="25.3104" x2="20.5814" y2="16.3766" gradientUnits="userSpaceOnUse">
<stop stop-color="#94F4DD"/>
<stop offset="0.19" stop-color="#37E4B8"/>
<stop offset="0.71" stop-color="#2FC5B0"/>
<stop offset="0.99" stop-color="#22BDA7"/>
<stop offset="1" stop-color="#22BDA7"/>
</linearGradient>
<linearGradient id="paint15_linear_2235_6450" x1="22.315" y1="16.4967" x2="32.5732" y2="26.0098" gradientUnits="userSpaceOnUse">
<stop stop-color="#94F4DD"/>
<stop offset="0.19" stop-color="#37E4B8"/>
<stop offset="0.71" stop-color="#2FC5B0"/>
<stop offset="0.99" stop-color="#22BDA7"/>
<stop offset="1" stop-color="#22BDA7"/>
</linearGradient>
<clipPath id="clip0_2235_6450">
<rect width="59" height="49.6434" fill="white" transform="translate(0.355469 0.421387)"/>
</clipPath>
</defs>
</svg>
