<svg width="60" height="46" viewBox="0 0 60 46" fill="none" xmlns="http://www.w3.org/2000/svg">
<g clip-path="url(#clip0_2233_14178)">
<path d="M58.1086 44.5531V44.6691H58.2177C58.2382 44.6694 58.2584 44.6643 58.2762 44.6543C58.2833 44.6493 58.2891 44.6426 58.2929 44.6349C58.2967 44.6271 58.2985 44.6185 58.2982 44.6099C58.2985 44.6015 58.2967 44.593 58.2929 44.5855C58.289 44.5779 58.2833 44.5715 58.2762 44.5667C58.2586 44.5562 58.2383 44.5511 58.2177 44.5519H58.1086V44.5531ZM58.2189 44.471C58.2657 44.4681 58.312 44.4815 58.3499 44.5087C58.3652 44.5211 58.3772 44.5368 58.3852 44.5546C58.3932 44.5725 58.3968 44.5919 58.3959 44.6114C58.3966 44.6281 58.3936 44.6449 58.3873 44.6604C58.3809 44.676 58.3713 44.69 58.359 44.7016C58.3297 44.7268 58.293 44.742 58.2543 44.7448L58.4005 44.9101H58.2879L58.1534 44.7459H58.1098V44.9101H58.0156V44.4713H58.2204L58.2189 44.471ZM58.1897 45.0615C58.239 45.062 58.288 45.0521 58.3333 45.0325C58.3769 45.0139 58.4166 44.9872 58.4503 44.9539C58.484 44.9206 58.5109 44.8812 58.5295 44.8379C58.5679 44.746 58.5679 44.6427 58.5295 44.5508C58.5106 44.5075 58.4837 44.4682 58.4503 44.4347C58.4166 44.4015 58.3769 44.3748 58.3333 44.3561C58.2877 44.3376 58.2389 44.3284 58.1897 44.3289C58.1396 44.3284 58.0899 44.3377 58.0434 44.3561C57.9988 44.3744 57.9581 44.4011 57.9238 44.4347C57.872 44.4874 57.837 44.5539 57.8232 44.6261C57.8093 44.6983 57.8171 44.773 57.8457 44.8408C57.8635 44.8843 57.8901 44.9238 57.9238 44.9568C57.9582 44.9904 57.9988 45.0171 58.0434 45.0354C58.0896 45.055 58.1394 45.0648 58.1897 45.0644V45.0615ZM58.1897 44.2233C58.3182 44.2232 58.4416 44.2732 58.5333 44.3625C58.5775 44.4054 58.6127 44.4566 58.6369 44.5131C58.6619 44.571 58.6748 44.6334 58.6748 44.6965C58.6748 44.7596 58.6619 44.822 58.6369 44.8799C58.6122 44.9361 58.577 44.9871 58.5333 45.0305C58.4885 45.0731 58.4363 45.1075 58.3792 45.132C58.3193 45.1572 58.2548 45.17 58.1897 45.1697C58.1238 45.1701 58.0585 45.1573 57.9978 45.132C57.94 45.1081 57.8874 45.0736 57.8425 45.0305C57.7987 44.9856 57.7641 44.9328 57.7404 44.875C57.7154 44.817 57.7025 44.7546 57.7025 44.6916C57.7025 44.6285 57.7154 44.5661 57.7404 44.5081C57.7645 44.4517 57.7997 44.4005 57.8439 44.3576C57.8882 44.3137 57.9411 44.2791 57.9992 44.2561C58.06 44.2307 58.1252 44.2179 58.1911 44.2184L58.1897 44.2233ZM13.4025 42.5287C13.4025 41.692 13.9553 41.0046 14.8588 41.0046C15.7223 41.0046 16.3049 41.6624 16.3049 42.5287C16.3049 43.395 15.7223 44.0528 14.8588 44.0528C13.9553 44.0528 13.4025 43.3654 13.4025 42.5287ZM17.2892 42.5287V40.1476H16.2453V40.7276C15.9141 40.299 15.4119 40.0301 14.7289 40.0301C13.3835 40.0301 12.3275 41.0765 12.3275 42.5299C12.3275 43.9832 13.3829 45.0296 14.7289 45.0296C15.4116 45.0296 15.9141 44.7604 16.2453 44.3321V44.9101H17.288V42.5287H17.2892ZM52.562 42.5287C52.562 41.692 53.1148 41.0046 54.0186 41.0046C54.883 41.0046 55.4647 41.6624 55.4647 42.5287C55.4647 43.395 54.883 44.0528 54.0186 44.0528C53.1151 44.0528 52.562 43.3654 52.562 42.5287ZM56.4499 42.5287V38.2363H55.4051V40.7276C55.074 40.299 54.5718 40.0301 53.8888 40.0301C52.5433 40.0301 51.4874 41.0765 51.4874 42.5299C51.4874 43.9832 52.5427 45.0296 53.8888 45.0296C54.5718 45.0296 55.074 44.7604 55.4051 44.3321V44.9101H56.4499V42.5287ZM30.2456 40.9556C30.9184 40.9556 31.3504 41.3738 31.4607 42.1102H28.9698C29.0812 41.4228 29.5021 40.9556 30.2459 40.9556H30.2456ZM30.2667 40.0275C28.8598 40.0275 27.8755 41.0426 27.8755 42.5273C27.8755 44.0409 28.8993 45.027 30.3366 45.027C31.0597 45.027 31.7219 44.848 32.3045 44.3599L31.7929 43.5928C31.3905 43.9118 30.878 44.0908 30.3963 44.0908C29.7235 44.0908 29.111 43.7819 28.9604 42.9249H32.5251C32.5353 42.7961 32.5458 42.6662 32.5458 42.527C32.5353 41.0429 31.6098 40.0272 30.2661 40.0272L30.2667 40.0275ZM42.8698 42.527C42.8698 41.6902 43.4226 41.0029 44.3262 41.0029C45.1896 41.0029 45.7723 41.6607 45.7723 42.527C45.7723 43.3933 45.1896 44.051 44.3262 44.051C43.4226 44.051 42.8695 43.3637 42.8695 42.527H42.8698ZM46.7562 42.527V40.1476H45.7129V40.7276C45.3806 40.299 44.8796 40.0301 44.1966 40.0301C42.8511 40.0301 41.7952 41.0765 41.7952 42.5299C41.7952 43.9832 42.8505 45.0296 44.1966 45.0296C44.8796 45.0296 45.3806 44.7604 45.7129 44.3321V44.9101H46.7565V42.5287L46.7562 42.527ZM36.9745 42.527C36.9745 43.971 37.9883 45.0267 39.5356 45.0267C40.2587 45.0267 40.7404 44.8672 41.2614 44.4591L40.76 43.6224C40.3681 43.9017 39.9565 44.051 39.5023 44.051C38.669 44.0409 38.0562 43.4434 38.0562 42.527C38.0562 41.6105 38.669 41.0133 39.5023 41.0029C39.9554 41.0029 40.3669 41.1522 40.76 41.4315L41.2614 40.5948C40.7396 40.1867 40.2578 40.0272 39.5356 40.0272C37.9883 40.0272 36.9745 41.0826 36.9745 42.527ZM50.4323 40.0272C49.8301 40.0272 49.4378 40.3065 49.1667 40.7247V40.1476H48.1321V44.9075H49.1772V42.2393C49.1772 41.4515 49.5186 41.0139 50.201 41.0139C50.4244 41.0107 50.6463 41.0514 50.8538 41.1337L51.1756 40.158C50.9445 40.0678 50.6432 40.0281 50.4317 40.0281L50.4323 40.0272ZM22.4503 40.5261C21.9481 40.1978 21.256 40.0281 20.4926 40.0281C19.2764 40.0281 18.4934 40.6061 18.4934 41.5519C18.4934 42.328 19.0763 42.8068 20.1498 42.9562L20.643 43.0258C21.2154 43.1056 21.4856 43.2549 21.4856 43.5238C21.4856 43.8918 21.1054 44.1018 20.3914 44.1018C19.6683 44.1018 19.1465 43.8727 18.7947 43.6038L18.3041 44.411C18.8766 44.8292 19.5996 45.0287 20.3826 45.0287C21.7691 45.0287 22.5726 44.3814 22.5726 43.4751C22.5726 42.6383 21.9402 42.2007 20.8954 42.0513L20.4034 41.9806C19.9515 41.9225 19.5894 41.8323 19.5894 41.5133C19.5894 41.1653 19.9307 40.9559 20.5034 40.9559C21.1162 40.9559 21.7094 41.185 22.0001 41.364L22.452 40.5272L22.4503 40.5261ZM35.9201 40.029C35.3178 40.029 34.9256 40.3083 34.6556 40.7265V40.1476H33.6211V44.9075H34.665V42.2393C34.665 41.4515 35.0063 41.0139 35.6887 41.0139C35.9122 41.0107 36.1341 41.0514 36.3416 41.1337L36.6633 40.158C36.4322 40.0678 36.131 40.0281 35.9195 40.0281L35.9201 40.029ZM27.0118 40.1476H25.3048V38.7036H24.2494V40.1476H23.2757V41.0937H24.2494V43.2651C24.2494 44.3695 24.6818 45.0273 25.9167 45.0273C26.3698 45.0273 26.8916 44.8881 27.2227 44.6592L26.9211 43.7729C26.6096 43.9519 26.2683 44.0421 25.9968 44.0421C25.475 44.0421 25.3048 43.723 25.3048 43.2454V41.0945H27.0118V40.1476ZM11.4044 44.9086V41.9214C11.4044 40.7964 10.6814 40.0394 9.51577 40.0293C8.90299 40.0191 8.2709 40.2082 7.82835 40.8761C7.49725 40.3483 6.97543 40.0293 6.24185 40.0293C5.7291 40.0293 5.22805 40.1786 4.83582 40.7361V40.1476H3.79102V44.9075H4.84401V42.2683C4.84401 41.442 5.30615 41.0029 6.01984 41.0029C6.71306 41.0029 7.06377 41.451 7.06377 42.2578V44.9069H8.1191V42.2677C8.1191 41.4414 8.60084 41.0023 9.29377 41.0023C10.0066 41.0023 10.3468 41.4504 10.3468 42.2572V44.9063L11.4044 44.9086Z" fill="white"/>
<path d="M58.7053 29.0749V28.3789H58.5225L58.311 28.8565L58.1007 28.3789H57.9173V29.0749H58.0471V28.5506L58.2449 29.003H58.3794L58.5772 28.5494V29.0749H58.7058H58.7053ZM57.5455 29.0749V28.4981H57.7795V28.3806H57.1816V28.4981H57.4156V29.0749H57.5443H57.5455Z" fill="#F79410"/>
<path d="M37.9099 32.0641H22.0898V3.87354H37.9101L37.9099 32.0641Z" fill="#FF5F00"/>
<path d="M23.0988 17.9603C23.0988 12.2419 25.7991 7.14786 30.004 3.86504C26.8211 1.37646 22.8843 0.0258192 18.8309 0.0317578C8.84594 0.0317578 0.751953 8.05854 0.751953 17.9603C0.751953 27.8622 8.84594 35.8889 18.8309 35.8889C22.8844 35.8949 26.8213 34.5443 30.0043 32.0557C25.7997 28.7734 23.0988 23.6791 23.0988 17.9603Z" fill="#EB001B"/>
<path d="M59.2557 17.9603C59.2557 27.8622 51.1618 35.8889 41.1768 35.8889C37.1229 35.8948 33.1856 34.5442 30.002 32.0556C34.2081 28.7728 36.9084 23.6791 36.9084 17.9603C36.9084 12.2416 34.2081 7.14786 30.002 3.86504C33.1855 1.37653 37.1227 0.0259233 41.1765 0.0317571C51.1615 0.0317571 59.2555 8.05854 59.2555 17.9603" fill="#F79E1B"/>
</g>
<defs>
<clipPath id="clip0_2233_14178">
<rect width="58.4995" height="45.1282" fill="white" transform="translate(0.75 0.0317383)"/>
</clipPath>
</defs>
</svg>
