<svg width="25" height="24" viewBox="0 0 25 24" fill="none" xmlns="http://www.w3.org/2000/svg">
<path d="M11.5105 3H9.58189C9.0704 3 8.57986 3.20319 8.21819 3.56487C7.85651 3.92654 7.65332 4.41708 7.65332 4.92857V19.0714C7.65332 19.5829 7.85651 20.0735 8.21819 20.4351C8.57986 20.7968 9.0704 21 9.58189 21H16.0105C16.522 21 17.0125 20.7968 17.3742 20.4351C17.7358 20.0735 17.939 19.5829 17.939 19.0714V4.92857C17.939 4.41708 17.7358 3.92654 17.3742 3.56487C17.0125 3.20319 16.522 3 16.0105 3H14.0819M11.5105 3V4.28571H14.0819V3M11.5105 3H14.0819M11.5105 19.0714H14.0819" stroke="#A5A5A5" stroke-width="1.28571" stroke-linecap="round" stroke-linejoin="round"/>
</svg>
