<svg width="64" height="52" viewBox="0 0 64 52" fill="none" xmlns="http://www.w3.org/2000/svg">
<g clip-path="url(#clip0_1679_4210)">
<path d="M56.3085 0.581543H2.50746C2.10428 0.581962 1.71775 0.74242 1.4328 1.02766C1.14785 1.31291 0.987793 1.69961 0.987793 2.10279V34.4209H57.8295V2.10279C57.8296 1.90303 57.7903 1.70522 57.7138 1.52066C57.6374 1.33609 57.5254 1.16839 57.3841 1.02712C57.2429 0.885858 57.0752 0.7738 56.8907 0.697347C56.7061 0.620894 56.5083 0.581543 56.3085 0.581543ZM56.1748 32.8341H2.64126V3.57321C2.64133 3.20044 2.78944 2.84295 3.05304 2.57936C3.31663 2.31577 3.67411 2.16765 4.04689 2.16758H54.7689C54.9534 2.16762 55.1361 2.20401 55.3066 2.27467C55.4771 2.34533 55.632 2.44888 55.7624 2.57941C55.8929 2.70994 55.9964 2.86488 56.0669 3.0354C56.1375 3.20592 56.1738 3.38867 56.1737 3.57321L56.1748 32.8341Z" fill="#231F20"/>
<path style="mix-blend-mode:screen" opacity="0.46" d="M56.3085 0.581543H2.50746C2.10428 0.581962 1.71775 0.74242 1.4328 1.02766C1.14785 1.31291 0.987793 1.69961 0.987793 2.10279V34.4209H57.8295V2.10279C57.8296 1.90303 57.7903 1.70522 57.7138 1.52066C57.6374 1.33609 57.5254 1.16839 57.3841 1.02712C57.2429 0.885858 57.0752 0.7738 56.8907 0.697347C56.7061 0.620894 56.5083 0.581543 56.3085 0.581543ZM56.1748 32.8341H2.64126V3.57321C2.64133 3.20044 2.78944 2.84295 3.05304 2.57936C3.31663 2.31577 3.67411 2.16765 4.04689 2.16758H54.7689C54.9534 2.16762 55.1361 2.20401 55.3066 2.27467C55.4771 2.34533 55.632 2.44888 55.7624 2.57941C55.8929 2.70994 55.9964 2.86488 56.0669 3.0354C56.1375 3.20592 56.1738 3.38867 56.1737 3.57321L56.1748 32.8341Z" fill="url(#paint0_linear_1679_4210)"/>
<path d="M56.1746 3.57409V32.835H2.64111V3.57409C2.64118 3.20131 2.7893 2.84383 3.05289 2.58023C3.31648 2.31664 3.67397 2.16853 4.04674 2.16846H54.7687C54.9534 2.16835 55.1362 2.20464 55.3068 2.27524C55.4774 2.34584 55.6324 2.44937 55.763 2.57991C55.8935 2.71045 55.9971 2.86544 56.0677 3.03603C56.1384 3.20662 56.1747 3.38946 56.1746 3.57409Z" fill="#D38700"/>
<path d="M56.1746 3.57409V32.835H2.64111V3.57409C2.64118 3.20131 2.7893 2.84383 3.05289 2.58023C3.31648 2.31664 3.67397 2.16853 4.04674 2.16846H54.7687C54.9534 2.16835 55.1362 2.20464 55.3068 2.27524C55.4774 2.34584 55.6324 2.44937 55.763 2.57991C55.8935 2.71045 55.9971 2.86544 56.0677 3.03603C56.1384 3.20662 56.1747 3.38946 56.1746 3.57409Z" fill="url(#paint1_linear_1679_4210)"/>
<path d="M57.8292 34.4209V38.0689C57.8292 38.5059 57.6556 38.925 57.3466 39.234C57.0376 39.543 56.6185 39.7166 56.1815 39.7166H2.63351C2.19652 39.7166 1.77743 39.543 1.46843 39.234C1.15943 38.925 0.98584 38.5059 0.98584 38.0689V34.4209H57.8292Z" fill="url(#paint2_linear_1679_4210)" stroke="#707070" stroke-width="0.0363457" stroke-miterlimit="10"/>
<path d="M40.5393 47.6846H18.2544C18.2544 47.6846 20.438 46.6311 21.3917 45.4427C21.9277 44.8678 21.9013 44.1493 21.9013 44.1493L22.0415 39.7178H36.7525L36.8918 44.1493C36.8918 44.1493 36.8655 44.8678 37.402 45.4427C38.3559 46.6321 40.5393 47.6846 40.5393 47.6846Z" fill="url(#paint3_linear_1679_4210)"/>
<path d="M40.5395 47.6846L40.3465 47.9377H18.3357L18.2549 47.6846H40.5395Z" fill="#829391"/>
<path d="M51.2867 51.3397C50.7182 51.338 50.1736 51.1109 49.7723 50.7083C49.371 50.3057 49.1458 49.7603 49.146 49.1918L49.1842 25.3978C49.1857 24.8293 49.4127 24.2847 49.8153 23.8834C50.2179 23.482 50.7633 23.2568 51.3317 23.2571L60.8922 23.2724C61.4607 23.2739 62.0054 23.5009 62.4068 23.9035C62.8081 24.3061 63.0334 24.8514 63.0332 25.4199L62.995 49.214C62.9934 49.7825 62.7664 50.3271 62.3637 50.7285C61.9611 51.1299 61.4157 51.3551 60.8472 51.3549L51.2867 51.3397Z" fill="white" stroke="#4C4C4C" stroke-width="0.0202798" stroke-miterlimit="10"/>
<path d="M62.9174 49.2154L62.9548 25.4214C62.9566 24.2822 62.0345 23.3572 60.8953 23.3554L51.3343 23.3404C50.195 23.3386 49.2701 24.2607 49.2683 25.3999L49.2309 49.1939C49.2291 50.3331 50.1512 51.2581 51.2904 51.2599L60.8514 51.2749C61.9906 51.2767 62.9156 50.3546 62.9174 49.2154Z" fill="#7A7A7A"/>
<path d="M60.848 51.192L51.2875 51.1764C51.0274 51.176 50.7698 51.1243 50.5296 51.0244C50.2894 50.9245 50.0713 50.7782 49.8876 50.5939C49.7039 50.4097 49.5583 50.191 49.4592 49.9505C49.36 49.71 49.3092 49.4523 49.3096 49.1922L49.3478 25.3981C49.3482 25.1379 49.3998 24.8804 49.4998 24.6402C49.5997 24.4 49.746 24.1819 49.9302 23.9982C50.1145 23.8145 50.3331 23.6689 50.5736 23.5698C50.8142 23.4706 51.0719 23.4198 51.332 23.4202L60.8925 23.4354C61.1527 23.4359 61.4102 23.4875 61.6504 23.5875C61.8906 23.6874 62.1088 23.8337 62.2924 24.0179C62.4761 24.2022 62.6217 24.4208 62.7209 24.6613C62.82 24.9018 62.8709 25.1595 62.8705 25.4197L62.8323 49.2137C62.8314 49.7392 62.6219 50.2428 62.2498 50.6138C61.8777 50.9847 61.3735 51.1927 60.848 51.192Z" fill="black"/>
<path d="M51.2875 50.7278C50.8812 50.7268 50.4919 50.5646 50.205 50.2768C49.9181 49.9891 49.7571 49.5992 49.7573 49.1929L49.7955 25.3989C49.7966 24.9925 49.9589 24.6032 50.2467 24.3163C50.5345 24.0294 50.9244 23.8684 51.3307 23.8687L60.8912 23.8839C61.2976 23.885 61.687 24.0472 61.9738 24.335C62.2607 24.6229 62.4217 25.0128 62.4214 25.4191L62.3835 49.2132C62.3823 49.6195 62.22 50.0088 61.9322 50.2957C61.6444 50.5825 61.2546 50.7435 60.8483 50.7434L51.2875 50.7278Z" fill="white" stroke="#231F20" stroke-width="0.040823" stroke-miterlimit="10"/>
<path d="M63.1472 31.6662L63.1425 34.5412C63.1423 34.5596 63.1349 34.5773 63.1219 34.5903C63.1088 34.6033 63.0911 34.6106 63.0727 34.6107H63.02L63.0248 31.5903H63.073C63.0928 31.5907 63.1118 31.5988 63.1257 31.613C63.1396 31.6272 63.1473 31.6463 63.1472 31.6662Z" fill="url(#paint4_linear_1679_4210)" stroke="#4C4C4C" stroke-width="0.0202798" stroke-miterlimit="10"/>
<path d="M49.0396 34.2047L49.0427 32.3658C49.0427 32.3413 49.0741 32.3213 49.1125 32.3213H49.1652L49.162 34.2529H49.1138C49.0735 34.2531 49.0396 34.2315 49.0396 34.2047Z" fill="url(#paint5_linear_1679_4210)" stroke="#4C4C4C" stroke-width="0.0163292" stroke-miterlimit="10"/>
<path d="M49.0435 31.7874L49.0464 29.9488C49.0464 29.9243 49.078 29.9043 49.1161 29.9043H49.1688L49.1657 31.8359H49.1175C49.0772 31.8361 49.0435 31.8143 49.0435 31.7874Z" fill="url(#paint6_linear_1679_4210)" stroke="#4C4C4C" stroke-width="0.0163292" stroke-miterlimit="10"/>
<path d="M49.0596 28.9884L49.0612 28.0666C49.0612 28.0544 49.0875 28.0444 49.118 28.0444H49.162L49.1604 29.0118H49.1212C49.0872 29.0126 49.0596 29.0018 49.0596 28.9884Z" fill="url(#paint7_linear_1679_4210)" stroke="#4C4C4C" stroke-width="0.010535" stroke-miterlimit="10"/>
<path d="M62.4191 25.4189L62.3806 49.2132C62.3804 49.2916 62.3744 49.3698 62.3627 49.4473L49.7716 49.4286C49.7598 49.3506 49.7539 49.2718 49.7539 49.1929L49.7921 25.3986C49.7933 24.9923 49.9557 24.6031 50.2434 24.3162C50.5312 24.0294 50.921 23.8683 51.3273 23.8684L60.8878 23.8839C61.2943 23.8848 61.6838 24.0469 61.9709 24.3347C62.258 24.6225 62.4192 25.0124 62.4191 25.4189Z" fill="white"/>
<path d="M62.4189 25.4189V25.5672L49.7925 25.5469V25.3986C49.7937 24.9923 49.9559 24.6031 50.2437 24.3162C50.5314 24.0294 50.9211 23.8683 51.3274 23.8684L60.8879 23.8837C61.2944 23.8846 61.6839 24.0468 61.971 24.3346C62.258 24.6224 62.4191 25.0124 62.4189 25.4189Z" fill="#DEDEDE"/>
<path d="M50.9349 24.8074C50.9351 24.8347 50.9328 24.8619 50.9277 24.8888C50.9238 24.9103 50.9161 24.9309 50.9048 24.9496C50.8949 24.9658 50.8808 24.979 50.864 24.9878C50.8449 24.997 50.8238 25.0014 50.8026 25.0007C50.7759 25.0018 50.7495 24.9937 50.7281 24.9775C50.7074 24.9602 50.6925 24.9369 50.6854 24.9109C50.6754 24.8772 50.6707 24.8422 50.6715 24.8071C50.6708 24.7716 50.6751 24.7361 50.6844 24.7018C50.691 24.6758 50.7057 24.6526 50.7263 24.6354C50.7484 24.619 50.7756 24.6108 50.8032 24.6122C50.8299 24.611 50.8562 24.6192 50.8774 24.6354C50.8982 24.6528 50.9133 24.676 50.9209 24.702C50.9311 24.7362 50.9358 24.7717 50.9349 24.8074ZM50.7505 24.8074C50.7501 24.8314 50.7516 24.8555 50.755 24.8793C50.7567 24.8948 50.7622 24.9096 50.771 24.9225C50.7748 24.9271 50.7796 24.9308 50.785 24.9333C50.7905 24.9359 50.7964 24.9371 50.8024 24.937C50.8083 24.9372 50.8143 24.936 50.8197 24.9336C50.8252 24.9311 50.83 24.9274 50.8337 24.9227C50.8426 24.9099 50.8483 24.8951 50.8503 24.8795C50.8538 24.8557 50.8554 24.8317 50.8553 24.8076C50.8556 24.7836 50.8541 24.7595 50.8506 24.7357C50.8487 24.7202 50.8431 24.7053 50.8342 24.6923C50.8304 24.6877 50.8255 24.6841 50.8201 24.6816C50.8147 24.6791 50.8088 24.6777 50.8028 24.6777C50.7968 24.6777 50.7909 24.6791 50.7854 24.6816C50.78 24.6841 50.7752 24.6877 50.7713 24.6923C50.7625 24.7052 50.757 24.72 50.7552 24.7355C50.7519 24.7592 50.7504 24.7832 50.7508 24.8071L50.7505 24.8074Z" fill="#939393"/>
<path d="M51.1122 24.7553C51.1334 24.7549 51.1544 24.7594 51.1736 24.7685C51.1913 24.7769 51.206 24.7904 51.216 24.8072C51.2269 24.8263 51.2322 24.8481 51.2315 24.8701C51.232 24.8946 51.2261 24.9187 51.2144 24.9402C51.2028 24.9602 51.1852 24.976 51.1641 24.9855C51.1379 24.9966 51.1096 25.0019 51.0812 25.001C51.0623 25.0011 51.0435 24.9993 51.0251 24.9958C51.0092 24.993 50.9938 24.9879 50.9795 24.9805V24.9117C50.9944 24.9194 51.0101 24.9252 51.0264 24.9291C51.0436 24.9338 51.0613 24.9361 51.079 24.9362C51.0926 24.9366 51.1062 24.9345 51.1191 24.9302C51.1292 24.9265 51.1378 24.9196 51.1436 24.9104C51.1497 24.9003 51.1526 24.8885 51.152 24.8767C51.1525 24.8687 51.1511 24.8607 51.1479 24.8533C51.1447 24.8459 51.1398 24.8394 51.1336 24.8343C51.1167 24.8233 51.0968 24.8181 51.0767 24.8196C51.0664 24.8197 51.0562 24.8206 51.0461 24.8225C51.0356 24.8243 51.0266 24.8262 51.0198 24.828L50.9879 24.8109L51.0024 24.6191H51.2068V24.6866H51.0722L51.0651 24.7606L51.0843 24.7571C51.0936 24.7557 51.1029 24.7551 51.1122 24.7553Z" fill="#939393"/>
<path d="M51.286 24.7466C51.2854 24.7403 51.2864 24.7339 51.2887 24.728C51.291 24.7221 51.2947 24.7169 51.2995 24.7126C51.3088 24.706 51.3201 24.7026 51.3316 24.7029C51.3429 24.7027 51.354 24.7061 51.3632 24.7126C51.368 24.7168 51.3717 24.7221 51.374 24.728C51.3763 24.7339 51.3771 24.7403 51.3764 24.7466C51.377 24.7529 51.3761 24.7592 51.3738 24.765C51.3715 24.7709 51.3679 24.7761 51.3632 24.7803C51.3541 24.7871 51.343 24.7907 51.3316 24.7903C51.32 24.7907 51.3087 24.787 51.2995 24.7801C51.2947 24.776 51.291 24.7708 51.2887 24.765C51.2863 24.7592 51.2854 24.7529 51.286 24.7466ZM51.286 24.9594C51.2853 24.9531 51.2862 24.9467 51.2885 24.9408C51.2908 24.9348 51.2946 24.9296 51.2995 24.9255C51.3089 24.9191 51.32 24.9157 51.3313 24.9157C51.3427 24.9157 51.3538 24.9191 51.3632 24.9255C51.3679 24.9297 51.3716 24.935 51.3739 24.9409C51.3762 24.9468 51.377 24.9531 51.3764 24.9594C51.377 24.9657 51.3761 24.972 51.3737 24.9778C51.3714 24.9836 51.3677 24.9888 51.3629 24.9929C51.3537 24.9995 51.3426 25.0031 51.3312 25.0031C51.3198 25.0031 51.3087 24.9995 51.2995 24.9929C51.2947 24.9888 51.291 24.9836 51.2886 24.9778C51.2862 24.972 51.2853 24.9657 51.2858 24.9594H51.286Z" fill="#939393"/>
<path d="M51.6762 24.7045C51.6766 24.7202 51.6728 24.7358 51.6651 24.7495C51.6581 24.762 51.6482 24.7727 51.6362 24.7806C51.6234 24.7888 51.6093 24.7948 51.5946 24.7982V24.7998C51.6199 24.8016 51.6439 24.8114 51.6633 24.8277C51.6713 24.8354 51.6775 24.8446 51.6816 24.8548C51.6857 24.865 51.6875 24.876 51.687 24.887C51.6872 24.9078 51.6815 24.9282 51.6707 24.946C51.6588 24.9644 51.6415 24.9787 51.6212 24.9868C51.5937 24.9978 51.5643 25.0029 51.5348 25.0018C51.5153 25.0019 51.4959 25.0002 51.4768 24.9966C51.4595 24.9934 51.4425 24.9883 51.4263 24.9813V24.9133C51.4423 24.9218 51.4594 24.9282 51.4771 24.9323C51.4932 24.9363 51.5097 24.9385 51.5263 24.9386C51.5475 24.9406 51.5686 24.9354 51.5864 24.9239C51.5921 24.9186 51.5967 24.9122 51.5996 24.905C51.6026 24.8978 51.6039 24.89 51.6035 24.8823C51.6038 24.8729 51.601 24.8636 51.5956 24.8559C51.5884 24.8476 51.5787 24.8419 51.568 24.8396C51.55 24.8351 51.5314 24.8332 51.5129 24.8338H51.4842V24.7727H51.5132C51.531 24.7734 51.5488 24.7712 51.5659 24.7661C51.5765 24.7636 51.5859 24.7572 51.5922 24.7482C51.5966 24.7402 51.5989 24.7311 51.5988 24.7219C51.5991 24.716 51.5981 24.7102 51.596 24.7047C51.5938 24.6993 51.5906 24.6944 51.5864 24.6903C51.5745 24.6816 51.5598 24.6775 51.5451 24.6789C51.534 24.6788 51.523 24.6803 51.5124 24.6834C51.5033 24.6861 51.4944 24.6897 51.4861 24.6942C51.4782 24.6984 51.4713 24.7024 51.4652 24.7063L51.4284 24.6515C51.4446 24.6403 51.4623 24.6315 51.481 24.6252C51.504 24.6177 51.528 24.6141 51.5522 24.6147C51.5846 24.6132 51.6167 24.6214 51.6443 24.6384C51.6548 24.6458 51.6632 24.6558 51.6688 24.6673C51.6743 24.6789 51.6769 24.6917 51.6762 24.7045Z" fill="#939393"/>
<path d="M51.9903 24.8092C51.9906 24.8365 51.9882 24.8638 51.9832 24.8906C51.9793 24.912 51.9716 24.9326 51.9603 24.9512C51.9505 24.9675 51.9364 24.9807 51.9195 24.9894C51.9004 24.9986 51.8793 25.0032 51.8581 25.0025C51.8314 25.0034 51.8053 24.9952 51.7838 24.9794C51.7631 24.962 51.7482 24.9388 51.7409 24.9127C51.7308 24.8786 51.7262 24.843 51.7272 24.8074C51.7263 24.7718 51.7307 24.7363 51.7401 24.702C51.7466 24.676 51.7612 24.6527 51.7817 24.6354C51.804 24.619 51.8312 24.6108 51.8589 24.6122C51.8856 24.6113 51.9118 24.6196 51.9332 24.6357C51.954 24.6528 51.9691 24.676 51.9763 24.702C51.9868 24.7368 51.9915 24.773 51.9903 24.8092ZM51.8059 24.8092C51.8055 24.8332 51.8071 24.8572 51.8107 24.8809C51.8124 24.8963 51.8179 24.9111 51.8265 24.9241C51.8304 24.9286 51.8352 24.9322 51.8407 24.9347C51.8461 24.9372 51.852 24.9385 51.858 24.9385C51.8639 24.9385 51.8698 24.9372 51.8753 24.9347C51.8807 24.9322 51.8855 24.9286 51.8894 24.9241C51.8984 24.9113 51.904 24.8966 51.9058 24.8811C51.9123 24.8333 51.9123 24.7849 51.9058 24.7371C51.904 24.7215 51.8984 24.7065 51.8894 24.6936C51.8856 24.6891 51.8808 24.6854 51.8754 24.6829C51.8699 24.6804 51.8641 24.6791 51.8581 24.6791C51.8521 24.6791 51.8462 24.6804 51.8408 24.6829C51.8354 24.6854 51.8306 24.6891 51.8267 24.6936C51.8179 24.7066 51.8124 24.7215 51.8107 24.7371C51.8071 24.7609 51.8056 24.7849 51.8062 24.809L51.8059 24.8092Z" fill="#939393"/>
<path d="M52.3477 24.6465L52.3472 24.9728" stroke="#06C900" stroke-width="0.0879671" stroke-linecap="round" stroke-linejoin="round"/>
<path d="M52.5017 24.7441L52.5015 24.973" stroke="#06C900" stroke-width="0.0879671" stroke-linecap="round" stroke-linejoin="round"/>
<path d="M52.6555 24.8101L52.6553 24.9734" stroke="#06C900" stroke-width="0.0879671" stroke-linecap="round" stroke-linejoin="round"/>
<path d="M52.8093 24.8918L52.8091 24.9735" stroke="#06C900" stroke-width="0.0879671" stroke-linecap="round" stroke-linejoin="round"/>
<path d="M61.2202 24.8298V24.8861C61.2204 24.8906 61.2197 24.8951 61.2181 24.8993C61.2165 24.9036 61.2142 24.9074 61.2111 24.9107C61.2081 24.914 61.2044 24.9167 61.2003 24.9186C61.1962 24.9205 61.1918 24.9215 61.1873 24.9217H61.1657V24.953C61.1661 24.9627 61.1645 24.9724 61.1612 24.9815C61.1578 24.9906 61.1527 24.9989 61.1461 25.006C61.1396 25.0132 61.1316 25.0189 61.1228 25.023C61.114 25.027 61.1045 25.0293 61.0948 25.0297H60.4195C60.4 25.0289 60.3815 25.0203 60.3682 25.0059C60.3549 24.9915 60.3479 24.9724 60.3487 24.9528V24.7634C60.3481 24.7438 60.3552 24.7248 60.3685 24.7105C60.3818 24.6961 60.4002 24.6876 60.4198 24.6868H61.0951C61.1147 24.6877 61.1331 24.6962 61.1463 24.7106C61.1596 24.725 61.1667 24.7441 61.1659 24.7637V24.794H61.1875C61.1966 24.7945 61.205 24.7986 61.2111 24.8052C61.2172 24.8119 61.2205 24.8207 61.2202 24.8298Z" fill="#231F20"/>
<path d="M60.4188 24.9871C60.4101 24.9862 60.4021 24.982 60.3965 24.9753C60.3909 24.9686 60.3881 24.96 60.3888 24.9513V24.7617C60.3881 24.7529 60.3909 24.7442 60.3966 24.7375C60.4022 24.7307 60.4103 24.7265 60.4191 24.7256L61.0943 24.7269C61.103 24.7278 61.111 24.732 61.1167 24.7387C61.1223 24.7454 61.125 24.754 61.1244 24.7627V24.8341H61.1792V24.881H61.1244V24.9529C61.125 24.9617 61.1222 24.9703 61.1166 24.9771C61.1109 24.9838 61.1028 24.9881 61.0941 24.989L60.4188 24.9871Z" fill="#06C900"/>
<path d="M49.7885 25.5546L49.751 49.4353L62.3777 49.4551L62.4152 25.5745L49.7885 25.5546Z" fill="#D38700"/>
<path d="M49.7885 25.5546L49.751 49.4353L62.3777 49.4551L62.4152 25.5745L49.7885 25.5546Z" fill="url(#paint8_linear_1679_4210)"/>
<path d="M62.3626 49.4473L49.7715 49.4286V49.427L62.3626 49.4473Z" fill="black"/>
<g filter="url(#filter0_d_1679_4210)">
<path d="M62.3689 49.4064C62.3116 49.7679 62.1272 50.0971 61.8488 50.3347C61.5704 50.5723 61.2163 50.7027 60.8503 50.7024L51.2793 50.6872C50.9136 50.6862 50.5602 50.5548 50.2827 50.3167C50.0052 50.0785 49.8217 49.7492 49.7651 49.3879L62.3689 49.4064Z" fill="white"/>
</g>
<path d="M56.3518 49.6743L55.9188 49.6736C55.8183 49.6735 55.7367 49.7548 55.7365 49.8553L55.736 50.2048C55.7358 50.3053 55.8172 50.387 55.9177 50.3871L56.3507 50.3878C56.4512 50.3879 56.5328 50.3066 56.533 50.2061L56.5335 49.8566C56.5337 49.7561 56.4523 49.6745 56.3518 49.6743Z" fill="#E2E2E0"/>
<path d="M55.9272 50.033L56.3378 50.0337" stroke="white" stroke-width="0.0650535" stroke-linecap="round" stroke-linejoin="round"/>
<path d="M56.1331 49.8281L56.1323 50.2387" stroke="white" stroke-width="0.0650535" stroke-linecap="round" stroke-linejoin="round"/>
<path d="M58.3508 50.3755C58.3376 50.3099 58.2762 50.2285 58.2212 50.1803C58.1689 50.1387 58.1198 50.0931 58.0745 50.0439C58.0438 50.0096 58.0224 49.968 58.0123 49.923C58.0025 49.8778 58.0089 49.8305 58.0305 49.7895C58.0467 49.7607 58.0706 49.7369 58.0995 49.7208C58.1194 49.7511 58.1467 49.7758 58.179 49.7925C58.2112 49.8092 58.2472 49.8173 58.2835 49.8159C58.3198 49.8146 58.3551 49.8039 58.386 49.785C58.4169 49.766 58.4424 49.7393 58.46 49.7076C58.4838 49.7001 58.5088 49.6974 58.5335 49.6998C58.5583 49.7022 58.5823 49.7096 58.6041 49.7215C58.633 49.7377 58.6569 49.7616 58.6729 49.7905C58.6943 49.8316 58.7005 49.8789 58.6905 49.9241C58.6803 49.969 58.6589 50.0107 58.6281 50.045C58.5825 50.0939 58.5333 50.1393 58.4809 50.1809C58.4255 50.2288 58.3642 50.3102 58.3508 50.3755Z" fill="#E2E2E0"/>
<path d="M51.9378 49.7738L51.7917 49.6498C51.7814 49.641 51.7684 49.6362 51.7549 49.6362C51.7415 49.6362 51.7284 49.641 51.7182 49.6498L51.5715 49.7736L51.4082 49.9113C51.4019 49.9167 51.3969 49.9233 51.3934 49.9308C51.39 49.9383 51.3882 49.9465 51.3882 49.9548V50.3696C51.3882 50.3819 51.3931 50.3938 51.4018 50.4025C51.4106 50.4113 51.4224 50.4162 51.4348 50.4162H51.6155C51.6216 50.4161 51.6277 50.4148 51.6333 50.4123C51.639 50.4099 51.644 50.4063 51.6483 50.4019C51.6526 50.3975 51.6559 50.3922 51.6581 50.3865C51.6604 50.3808 51.6614 50.3747 51.6613 50.3685V50.1792C51.6607 50.1548 51.6693 50.1311 51.6853 50.1128C51.7014 50.0945 51.7237 50.083 51.748 50.0804C51.761 50.0795 51.774 50.0814 51.7862 50.086C51.7984 50.0905 51.8095 50.0976 51.8188 50.1067C51.8273 50.1153 51.834 50.1254 51.8385 50.1366C51.843 50.1478 51.8453 50.1597 51.8451 50.1718V50.368C51.8451 50.3804 51.85 50.3923 51.8588 50.401C51.8675 50.4098 51.8794 50.4148 51.8918 50.4149H52.0724C52.0848 50.4149 52.0967 50.41 52.1055 50.4012C52.1143 50.3925 52.1192 50.3806 52.1193 50.3683V49.9534C52.1194 49.9452 52.1177 49.937 52.1142 49.9295C52.1107 49.9219 52.1056 49.9153 52.0993 49.91L51.9378 49.7738ZM51.7535 49.9055C51.7431 49.9055 51.7329 49.9024 51.7242 49.8966C51.7156 49.8908 51.7088 49.8826 51.7048 49.873C51.7008 49.8634 51.6998 49.8528 51.7018 49.8426C51.7039 49.8323 51.7089 49.823 51.7162 49.8156C51.7236 49.8082 51.733 49.8032 51.7432 49.8012C51.7534 49.7991 51.764 49.8002 51.7736 49.8042C51.7833 49.8082 51.7915 49.8149 51.7973 49.8236C51.8031 49.8322 51.8062 49.8424 51.8062 49.8528C51.8059 49.8664 51.8004 49.8794 51.7907 49.889C51.7811 49.8987 51.7681 49.9042 51.7545 49.9044L51.7535 49.9055Z" fill="#E2E2E0"/>
<path d="M60.9425 50.0411C60.9424 50.1174 60.9197 50.1919 60.8773 50.2553C60.8348 50.3186 60.7745 50.368 60.704 50.3971C60.6335 50.4261 60.5559 50.4337 60.4811 50.4187C60.4063 50.4037 60.3377 50.3668 60.2839 50.3128C60.23 50.2588 60.1934 50.19 60.1787 50.1152C60.1639 50.0403 60.1717 49.9628 60.201 49.8924C60.2303 49.822 60.2799 49.7618 60.3434 49.7196C60.4069 49.6773 60.4815 49.6549 60.5578 49.655C60.6084 49.6551 60.6585 49.6651 60.7052 49.6846C60.752 49.704 60.7944 49.7325 60.8302 49.7684C60.8659 49.8042 60.8942 49.8468 60.9135 49.8936C60.9328 49.9404 60.9426 49.9905 60.9425 50.0411Z" fill="#F4F4F4" stroke="url(#paint9_linear_1679_4210)" stroke-width="0.0410864" stroke-miterlimit="10"/>
<path d="M60.9054 50.0411C60.9053 50.1101 60.8848 50.1775 60.8463 50.2348C60.8079 50.2921 60.7534 50.3367 60.6896 50.363C60.6258 50.3893 60.5557 50.3961 60.4881 50.3825C60.4204 50.3689 60.3584 50.3356 60.3097 50.2867C60.261 50.2378 60.2279 50.1756 60.2146 50.108C60.2013 50.0403 60.2083 49.9702 60.2348 49.9065C60.2614 49.8428 60.3062 49.7884 60.3636 49.7502C60.4211 49.712 60.4885 49.6917 60.5575 49.6919C60.6033 49.692 60.6486 49.7011 60.6909 49.7186C60.7331 49.7362 60.7715 49.762 60.8038 49.7944C60.8361 49.8268 60.8617 49.8653 60.8792 49.9077C60.8966 49.95 60.9055 49.9953 60.9054 50.0411Z" fill="#E1E1E1"/>
<path d="M53.9697 50.2691C54.12 50.2218 54.2034 50.0616 54.1562 49.9114C54.1089 49.7611 53.9487 49.6776 53.7984 49.7249C53.6482 49.7722 53.5647 49.9324 53.612 50.0826C53.6593 50.2329 53.8194 50.3164 53.9697 50.2691Z" fill="#E1E1E1"/>
<path d="M54.2571 50.3429L53.7949 49.8794" stroke="#E1E1E1" stroke-width="0.0666337" stroke-linecap="round" stroke-linejoin="round"/>
<path d="M57.4289 25.1532L54.5997 25.1488C54.5384 25.1487 54.4777 25.1365 54.4211 25.113C54.3645 25.0895 54.3131 25.055 54.2698 25.0116C54.2266 24.9682 54.1923 24.9166 54.1689 24.86C54.1456 24.8033 54.1337 24.7426 54.1338 24.6813C54.1339 24.62 54.146 24.5593 54.1695 24.5026C54.1931 24.446 54.2275 24.3946 54.2709 24.3513C54.3144 24.308 54.3659 24.2737 54.4226 24.2503C54.4792 24.227 54.54 24.215 54.6013 24.2151L57.4305 24.2196C57.5543 24.2198 57.6729 24.2693 57.7603 24.357C57.8477 24.4447 57.8968 24.5635 57.8966 24.6873C57.8965 24.7486 57.8843 24.8093 57.8608 24.8659C57.8372 24.9225 57.8027 24.9739 57.7593 25.0172C57.7158 25.0605 57.6643 25.0947 57.6076 25.1181C57.5509 25.1414 57.4902 25.1534 57.4289 25.1532Z" fill="black"/>
</g>
<defs>
<filter id="filter0_d_1679_4210" x="49.6018" y="49.143" width="12.9306" height="1.64104" filterUnits="userSpaceOnUse" color-interpolation-filters="sRGB">
<feFlood flood-opacity="0" result="BackgroundImageFix"/>
<feColorMatrix in="SourceAlpha" type="matrix" values="0 0 0 0 0 0 0 0 0 0 0 0 0 0 0 0 0 0 127 0" result="hardAlpha"/>
<feOffset dy="-0.0816461"/>
<feGaussianBlur stdDeviation="0.0816461"/>
<feColorMatrix type="matrix" values="0 0 0 0 0 0 0 0 0 0 0 0 0 0 0 0 0 0 0.25 0"/>
<feBlend mode="normal" in2="BackgroundImageFix" result="effect1_dropShadow_1679_4210"/>
<feBlend mode="normal" in="SourceGraphic" in2="effect1_dropShadow_1679_4210" result="shape"/>
</filter>
<linearGradient id="paint0_linear_1679_4210" x1="18.7279" y1="31.517" x2="53.9648" y2="-13.0871" gradientUnits="userSpaceOnUse">
<stop offset="0.02" stop-color="#E2E8EA" stop-opacity="0"/>
<stop offset="0.25" stop-color="#C4CFD2"/>
<stop offset="0.52" stop-color="#E5EBEB" stop-opacity="0"/>
<stop offset="0.76" stop-color="#C2CDCD"/>
<stop offset="1" stop-color="#C2CDCD" stop-opacity="0"/>
</linearGradient>
<linearGradient id="paint1_linear_1679_4210" x1="14.4455" y1="8.9914" x2="26.2475" y2="38.1257" gradientUnits="userSpaceOnUse">
<stop stop-color="#06BA9F"/>
<stop offset="1" stop-color="#078572"/>
</linearGradient>
<linearGradient id="paint2_linear_1679_4210" x1="0.98584" y1="37.0691" x2="57.8292" y2="37.0691" gradientUnits="userSpaceOnUse">
<stop stop-color="#A3B4B8"/>
<stop offset="0.33" stop-color="#D1DADD"/>
<stop offset="0.73" stop-color="#E3E8EB"/>
<stop offset="1" stop-color="#B6C4C7"/>
</linearGradient>
<linearGradient id="paint3_linear_1679_4210" x1="29.397" y1="39.7178" x2="29.397" y2="47.6846" gradientUnits="userSpaceOnUse">
<stop stop-color="#9FB0B6"/>
<stop offset="0.25" stop-color="#C4CFD2"/>
<stop offset="0.39" stop-color="#E5EBEB"/>
<stop offset="0.48" stop-color="#C2CDCD"/>
<stop offset="0.57" stop-color="#889B98"/>
<stop offset="0.72" stop-color="#AEBFBD"/>
<stop offset="0.86" stop-color="#E2E8EA"/>
<stop offset="1" stop-color="#9FB0B6"/>
</linearGradient>
<linearGradient id="paint4_linear_1679_4210" x1="63.1612" y1="34.4669" x2="63.1612" y2="31.4465" gradientUnits="userSpaceOnUse">
<stop offset="0.01" stop-color="#F2F2F2"/>
<stop offset="0.1" stop-color="#D3D3D3"/>
<stop offset="0.92" stop-color="#CACACA"/>
<stop offset="0.97" stop-color="#F2F2F2"/>
</linearGradient>
<linearGradient id="paint5_linear_1679_4210" x1="48.7915" y1="32.3439" x2="48.7915" y2="34.2758" gradientUnits="userSpaceOnUse">
<stop offset="0.01" stop-color="#F2F2F2"/>
<stop offset="0.1" stop-color="#D3D3D3"/>
<stop offset="0.92" stop-color="#CACACA"/>
<stop offset="0.97" stop-color="#F2F2F2"/>
</linearGradient>
<linearGradient id="paint6_linear_1679_4210" x1="48.7914" y1="29.9269" x2="48.7914" y2="31.8588" gradientUnits="userSpaceOnUse">
<stop offset="0.01" stop-color="#F2F2F2"/>
<stop offset="0.1" stop-color="#D3D3D3"/>
<stop offset="0.92" stop-color="#CACACA"/>
<stop offset="0.97" stop-color="#F2F2F2"/>
</linearGradient>
<linearGradient id="paint7_linear_1679_4210" x1="48.7917" y1="28.0681" x2="48.7917" y2="29.0352" gradientUnits="userSpaceOnUse">
<stop offset="0.01" stop-color="#F2F2F2"/>
<stop offset="0.1" stop-color="#D3D3D3"/>
<stop offset="0.92" stop-color="#CACACA"/>
<stop offset="0.97" stop-color="#F2F2F2"/>
</linearGradient>
<linearGradient id="paint8_linear_1679_4210" x1="52.5685" y1="44.1739" x2="64.8272" y2="39.6123" gradientUnits="userSpaceOnUse">
<stop stop-color="#06BA9F"/>
<stop offset="1" stop-color="#078572"/>
</linearGradient>
<linearGradient id="paint9_linear_1679_4210" x1="60.2562" y1="49.8802" x2="61.0684" y2="49.8802" gradientUnits="userSpaceOnUse">
<stop stop-color="#EAC67E"/>
<stop offset="1" stop-color="#EFA3A6"/>
</linearGradient>
<clipPath id="clip0_1679_4210">
<rect width="64" height="51.5556" fill="white" transform="translate(0 0.222168)"/>
</clipPath>
</defs>
</svg>
