<svg width="103" height="19" viewBox="0 0 103 19" fill="none" xmlns="http://www.w3.org/2000/svg">
<path d="M90.4799 8.24153C89.9302 8.62471 89.1323 8.81415 88.0406 8.81415H87.5668H86.9579L87.7882 4.33029H88.2089H88.5843C89.4905 4.33029 90.1524 4.47615 90.6085 4.77216C90.965 5.00432 91.3874 5.46388 91.3874 6.33597C91.3874 7.3867 90.8959 7.95198 90.4799 8.24153ZM25.8945 13.8689H17.5158L18.0574 10.9381H23.3128L23.91 7.63698H18.7051L19.2082 4.73635H27.5722L25.8945 13.8689ZM94.9936 2.22063C93.7616 1.37615 91.8975 0.950684 89.4534 0.950684H83.0523L80.6729 13.8693H72.2878L72.8255 10.9385H77.8772L78.4778 7.64647L73.4291 7.65553L73.9698 4.73721H79.1721L79.8643 0.951115H69.2965L67.038 13.2065H63.163L65.4379 0.951115H59.9133L57.6547 13.2065H53.8764L56.1535 0.951115H50.6345L48.249 13.8698H39.8043L40.3364 10.9389H45.411L46.0086 7.66589L40.9418 7.66114L41.4799 4.73721H46.74L47.4287 0.951115H14.5056L12.6315 11.1888L8.89807 0.950684H3.16801L0.0839844 17.6576H5.556L7.4223 7.13858L11.0457 17.6576H30.6588L33.043 4.73678H36.1119L33.7265 17.6576H85.3346L86.8293 9.50069L89.2523 17.6576H94.7273L92.2189 10.9929L92.7916 10.869C94.0533 10.5989 95.041 10.0168 95.7263 9.14468C96.4128 8.2644 96.7615 7.13427 96.7615 5.77673C96.7619 4.19566 96.1845 3.03316 94.9936 2.22063Z" fill="#8DC640"/>
<path d="M99.5056 15.6813L100.251 15.6424C100.409 15.6351 100.534 15.6114 100.621 15.5738C100.708 15.5371 100.774 15.481 100.817 15.4055C100.859 15.3305 100.879 15.2515 100.874 15.1669C100.867 15.0418 100.817 14.9421 100.723 14.8657C100.629 14.7902 100.484 14.7591 100.289 14.7682L99.4595 14.8105L99.5056 15.6813ZM99.2299 17.1648L99.0957 14.5369L100.262 14.4782C100.495 14.4661 100.673 14.4808 100.798 14.5222C100.923 14.5628 101.023 14.6413 101.103 14.7574C101.182 14.873 101.226 15.0016 101.231 15.1466C101.242 15.333 101.189 15.4927 101.075 15.6273C100.961 15.7607 100.779 15.8517 100.53 15.8992C100.623 15.9397 100.696 15.9786 100.745 16.0187C100.852 16.1067 100.954 16.2189 101.051 16.3544L101.542 17.0466L101.108 17.0686L100.733 16.5395C100.623 16.3864 100.534 16.2699 100.464 16.1896C100.394 16.1093 100.332 16.0545 100.278 16.0235C100.226 15.9924 100.17 15.9721 100.117 15.9609C100.076 15.9548 100.012 15.954 99.922 15.9587L99.5207 15.979L99.5786 17.1471L99.2299 17.1648Z" fill="#8DC640"/>
<path d="M98.0901 15.8885C98.0633 15.3448 98.248 14.8235 98.6126 14.4205C98.9773 14.0166 99.4787 13.7779 100.023 13.7503C101.144 13.6921 102.104 14.5581 102.161 15.6805C102.163 15.715 102.165 15.7517 102.165 15.7849C102.165 16.862 101.317 17.7643 100.23 17.8212C99.1071 17.8782 98.1487 17.0113 98.0901 15.8885ZM99.9999 13.3313C99.3462 13.3663 98.7421 13.6519 98.3032 14.1391C97.864 14.6259 97.6396 15.2559 97.6732 15.9113C97.744 17.2628 98.9 18.3058 100.252 18.2381C101.603 18.1682 102.648 17.0113 102.578 15.6598V15.6585C102.51 14.3065 101.354 13.2627 99.9999 13.3313Z" fill="#8DC640"/>
</svg>
