<svg width="90" height="24" viewBox="0 0 90 24" fill="none" xmlns="http://www.w3.org/2000/svg">
<path d="M16.473 1.90273C15.416 0.697885 13.5051 0.181342 11.0607 0.181342H3.96615C3.72417 0.181213 3.49009 0.267454 3.30603 0.42454C3.12197 0.581629 3.00002 0.799249 2.96212 1.03825L0.00936772 19.7746C-0.00432375 19.8615 0.000990389 19.9503 0.0249443 20.035C0.0488983 20.1197 0.0909226 20.1981 0.148122 20.265C0.205321 20.3319 0.276335 20.3855 0.356272 20.4223C0.436208 20.4591 0.523168 20.4781 0.611158 20.478H4.99103L6.09105 13.5009L6.05695 13.7194C6.09412 13.4809 6.21526 13.2635 6.39853 13.1064C6.58181 12.9493 6.81517 12.8628 7.05657 12.8625H9.13789C13.2267 12.8625 16.4282 11.2017 17.3634 6.39753C17.3912 6.25545 17.4152 6.11715 17.436 5.98202C17.7139 4.20633 17.4341 2.9977 16.4737 1.90336" fill="white"/>
<path d="M70.0926 10.8176C69.8248 12.5756 68.4823 12.5756 67.184 12.5756H66.4452L66.9636 9.29321C66.9952 9.09493 67.1657 8.94906 67.3665 8.94906H67.7056C68.5897 8.94906 69.4245 8.94906 69.8551 9.45234C70.1122 9.75356 70.1898 10.2006 70.0926 10.8176ZM69.5274 6.23059H64.6297C64.4675 6.23067 64.3107 6.28856 64.1873 6.39388C64.0639 6.4992 63.9821 6.64504 63.9566 6.80523L61.9776 19.3633C61.9685 19.4215 61.972 19.481 61.9881 19.5377C62.0041 19.5944 62.0323 19.6469 62.0705 19.6917C62.1088 19.7365 62.1563 19.7725 62.2098 19.7973C62.2633 19.822 62.3215 19.8348 62.3804 19.835H64.8937C65.128 19.835 65.3275 19.6645 65.3641 19.4333L65.9261 15.8719C65.9779 15.5416 66.2633 15.2972 66.598 15.2972H68.1476C71.3745 15.2972 73.236 13.7369 73.7223 10.642C73.9414 9.28943 73.7311 8.22603 73.0977 7.48153C72.4012 6.66314 71.1667 6.22996 69.528 6.22996" fill="white"/>
<path d="M35.163 10.8242C34.8953 12.5822 33.5527 12.5822 32.2538 12.5822H31.515L32.0334 9.29982C32.065 9.10154 32.2355 8.95567 32.4363 8.95567H32.7754C33.6595 8.95567 34.4943 8.95567 34.9249 9.45895C35.1826 9.76017 35.2602 10.2072 35.163 10.8242ZM34.5978 6.2372H29.7002C29.3655 6.2372 29.0801 6.48094 29.0276 6.81183L27.048 19.3699C27.0388 19.4281 27.0423 19.4876 27.0583 19.5444C27.0743 19.6011 27.1024 19.6537 27.1407 19.6986C27.179 19.7434 27.2266 19.7794 27.2801 19.8041C27.3336 19.8288 27.3919 19.8416 27.4509 19.8416H29.7898C30.1245 19.8416 30.4093 19.5978 30.4617 19.2669L30.9966 15.8791C31.0483 15.5482 31.3338 15.3045 31.6684 15.3045H33.2181C36.4449 15.3045 38.3065 13.7435 38.7927 10.6486C39.0118 9.29603 38.8015 8.23264 38.1682 7.48814C37.4716 6.66975 36.2371 6.23657 34.5985 6.23657L34.5978 6.2372ZM45.9687 15.3329C45.7414 16.6729 44.6786 17.5727 43.3216 17.5727C42.6415 17.5727 42.0965 17.3536 41.7467 16.9393C41.3994 16.5289 41.2693 15.9435 41.3792 15.2925C41.5901 13.9639 42.6712 13.0356 44.0074 13.0356C44.6736 13.0356 45.2135 13.2566 45.5709 13.6746C45.9302 14.0958 46.0716 14.6844 45.9687 15.3329ZM49.2372 10.7674H46.8919C46.7944 10.7672 46.7001 10.802 46.626 10.8653C46.5519 10.9287 46.5028 11.0164 46.4878 11.1128L46.3855 11.7682L46.2213 11.5308C45.7136 10.7939 44.5814 10.547 43.451 10.547C40.8601 10.547 38.6468 12.5108 38.2162 15.2641C37.992 16.6388 38.3102 17.9516 39.0895 18.8678C39.8049 19.7096 40.826 20.0601 42.0429 20.0601C44.1318 20.0601 45.2899 18.7188 45.2899 18.7188L45.185 19.3705C45.1758 19.4288 45.1793 19.4884 45.1954 19.5452C45.2114 19.602 45.2396 19.6546 45.278 19.6994C45.3163 19.7443 45.364 19.7803 45.4176 19.8049C45.4712 19.8296 45.5295 19.8423 45.5886 19.8422H47.7002C48.0349 19.8422 48.3203 19.5991 48.3727 19.2676L49.6407 11.2397C49.6498 11.1814 49.6462 11.1218 49.6301 11.065C49.6139 11.0082 49.5857 10.9556 49.5473 10.9107C49.5089 10.8659 49.4612 10.8299 49.4076 10.8053C49.3539 10.7806 49.2956 10.7679 49.2365 10.768" fill="white"/>
<path d="M80.9047 15.3231C80.6774 16.6631 79.6146 17.5629 78.2576 17.5629C77.5775 17.5629 77.0326 17.3438 76.6827 16.9296C76.3354 16.5191 76.2053 15.9337 76.3152 15.2827C76.5261 13.9541 77.6066 13.0258 78.9434 13.0258C79.6096 13.0258 80.1495 13.2468 80.5069 13.6649C80.8662 14.0861 81.0077 14.6746 80.9047 15.3231ZM84.1732 10.7576H81.8279C81.7304 10.7575 81.6361 10.7922 81.562 10.8556C81.4879 10.9189 81.4389 11.0067 81.4238 11.103L81.3215 11.7585L81.1573 11.521C80.6496 10.7841 79.5174 10.5372 78.3871 10.5372C75.7968 10.5372 73.5835 12.5011 73.1522 15.2543C72.928 16.629 73.2469 17.9418 74.0261 18.8581C74.7416 19.6998 75.7627 20.0503 76.9795 20.0503C79.069 20.0503 80.2272 18.7091 80.2272 18.7091L80.1223 19.3607C80.1129 19.4189 80.1162 19.4785 80.1321 19.5353C80.148 19.5921 80.1761 19.6448 80.2143 19.6896C80.2526 19.7345 80.3002 19.7705 80.3537 19.7952C80.4073 19.8198 80.4656 19.8326 80.5246 19.8324H82.6356C82.9703 19.8324 83.2557 19.5893 83.3087 19.2578L84.5767 11.2299C84.5858 11.1716 84.5822 11.112 84.5661 11.0552C84.55 10.9984 84.5217 10.9458 84.4833 10.901C84.4449 10.8561 84.3973 10.8202 84.3436 10.7955C84.29 10.7709 84.2316 10.7582 84.1726 10.7582" fill="white"/>
<path d="M61.7268 10.7628H59.3689C59.1435 10.7628 58.9332 10.8745 58.8069 11.0614L55.5549 15.8505L54.1764 11.2484C54.1343 11.108 54.0481 10.9849 53.9306 10.8973C53.8132 10.8097 53.6706 10.7623 53.524 10.7621H51.2072C51.1422 10.7622 51.0782 10.7777 51.0204 10.8074C50.9627 10.8371 50.9128 10.8802 50.875 10.9331C50.8372 10.9859 50.8126 11.047 50.8032 11.1113C50.7937 11.1756 50.7997 11.2412 50.8207 11.3027L53.4161 18.922L50.9748 22.3666C50.9317 22.4278 50.9061 22.4996 50.901 22.5743C50.8959 22.6489 50.9114 22.7235 50.9458 22.79C50.9802 22.8565 51.0322 22.9122 51.0961 22.9511C51.16 22.99 51.2334 23.0107 51.3082 23.0107H53.6636C53.8859 23.0107 54.0949 22.9015 54.2225 22.7184L62.0615 11.4037C62.1041 11.3425 62.1291 11.2709 62.1338 11.1965C62.1385 11.1222 62.1228 11.0479 62.0883 10.9819C62.0538 10.9158 62.0019 10.8605 61.9382 10.8219C61.8744 10.7832 61.8014 10.7628 61.7268 10.7628Z" fill="white"/>
<path d="M86.9257 6.57537L84.9151 19.3633C84.9059 19.4215 84.9096 19.4811 84.9256 19.5378C84.9417 19.5946 84.9699 19.6472 85.0082 19.692C85.0466 19.7368 85.0942 19.7728 85.1478 19.7975C85.2013 19.8221 85.2596 19.8349 85.3186 19.835H87.3399C87.6746 19.835 87.96 19.5912 88.0124 19.2603L89.9946 6.70166C90.0038 6.64338 90.0003 6.58378 89.9843 6.52699C89.9682 6.4702 89.94 6.41756 89.9017 6.37272C89.8633 6.32787 89.8157 6.29188 89.7621 6.26724C89.7084 6.24259 89.6501 6.22987 89.5911 6.22996H87.3292C87.2318 6.22971 87.1376 6.26435 87.0636 6.3276C86.9895 6.39085 86.9406 6.47853 86.9257 6.57474" fill="white"/>
<path d="M16.473 1.90273C15.416 0.697885 13.5051 0.181342 11.0607 0.181342H3.96615C3.72417 0.181213 3.49009 0.267454 3.30603 0.42454C3.12197 0.581629 3.00002 0.799249 2.96212 1.03825L0.00936772 19.7746C-0.00432375 19.8615 0.000990389 19.9503 0.0249443 20.035C0.0488983 20.1197 0.0909226 20.1981 0.148122 20.265C0.205321 20.3319 0.276335 20.3855 0.356272 20.4223C0.436208 20.4591 0.523168 20.4781 0.611158 20.478H4.99103L6.09105 13.5009L6.05695 13.7194C6.09412 13.4809 6.21526 13.2635 6.39853 13.1064C6.58181 12.9493 6.81517 12.8628 7.05657 12.8625H9.13789C13.2267 12.8625 16.4282 11.2017 17.3634 6.39753C17.3912 6.25545 17.4152 6.11715 17.436 5.98202C17.7139 4.20633 17.4341 2.9977 16.4737 1.90336" fill="white"/>
<path d="M7.27326 6.00602C7.30645 5.79719 7.41298 5.60703 7.57372 5.46965C7.73447 5.33228 7.93892 5.2567 8.15037 5.25647H13.7124C14.371 5.25647 14.9854 5.2994 15.5468 5.38907C15.8537 5.43845 16.1574 5.50635 16.4561 5.59241C16.7953 5.68778 17.1236 5.81859 17.4355 5.98266C17.7146 4.20633 17.4342 2.99833 16.4738 1.90337C15.4161 0.699155 13.5059 0.182611 11.0614 0.182611H3.96625C3.72449 0.182784 3.49071 0.269159 3.30691 0.42622C3.12311 0.583281 3.00135 0.800737 2.96348 1.03952L0.0094675 19.7739C-0.00431663 19.8609 0.000906706 19.9497 0.0247779 20.0344C0.0486492 20.1191 0.0906005 20.1976 0.147741 20.2646C0.204882 20.3315 0.275853 20.3852 0.355764 20.4221C0.435676 20.4589 0.522627 20.478 0.610626 20.478H4.99113L6.09115 13.5003L7.27326 6.00602Z" fill="white"/>
<path d="M17.4304 5.98191C17.4088 6.12084 17.3846 6.25937 17.3578 6.39741C16.4226 11.201 13.2211 12.8624 9.1323 12.8624H7.05035C6.80899 12.8626 6.57565 12.949 6.39245 13.1062C6.20925 13.2633 6.08828 13.4808 6.05137 13.7193L4.98544 20.4773L4.68234 22.3944C4.67029 22.4705 4.67488 22.5484 4.69581 22.6225C4.71674 22.6967 4.7535 22.7654 4.80356 22.824C4.85362 22.8826 4.91579 22.9296 4.98578 22.9619C5.05578 22.9941 5.13193 23.0108 5.20899 23.0107H8.90119C9.33816 23.0107 9.70947 22.6925 9.7783 22.2612L9.81429 22.073L10.5102 17.6628L10.5544 17.4191C10.5875 17.2101 10.694 17.0198 10.855 16.8824C11.0159 16.745 11.2205 16.6695 11.4321 16.6695H11.9847C15.5613 16.6695 18.3619 15.2171 19.1802 11.0141C19.5212 9.2586 19.3444 7.7917 18.4414 6.76177C18.1547 6.44246 17.8121 6.17818 17.4304 5.98191Z" fill="white"/>
<path d="M16.4583 5.59321C16.3155 5.5509 16.1684 5.51301 16.0169 5.47954C15.8653 5.44608 15.7087 5.4164 15.5483 5.39114C14.9863 5.29958 14.3725 5.25663 13.7133 5.25663H8.15191C7.94023 5.25638 7.73544 5.33187 7.57457 5.46946C7.4137 5.60705 7.30737 5.79766 7.2748 6.00682L6.09269 13.5024L6.05859 13.7202C6.09551 13.4817 6.21648 13.2642 6.39968 13.1071C6.58287 12.9499 6.81622 12.8635 7.05758 12.8633H9.13953C13.2283 12.8633 16.4298 11.2025 17.3651 6.39833C17.3928 6.25625 17.4162 6.11859 17.4377 5.98283C17.1907 5.85359 16.9334 5.74503 16.6685 5.65825C16.5997 5.63552 16.5296 5.61405 16.4583 5.59258" fill="white"/>
</svg>
