<svg width="72" height="23" viewBox="0 0 72 23" fill="none" xmlns="http://www.w3.org/2000/svg">
<g clip-path="url(#clip0_2233_14156)">
<path fill-rule="evenodd" clip-rule="evenodd" d="M51.7319 5.80818C53.3359 5.80818 54.6361 4.59422 54.6361 3.09725C54.6361 1.5994 53.3359 0.384277 51.7319 0.384277C50.1297 0.384277 48.8302 1.5994 48.8302 3.09725C48.8302 4.59422 50.1297 5.80818 51.7319 5.80818ZM29.4896 7.27222C29.3586 7.57971 28.4154 10.0685 26.1342 12.648V1.61864L20.0563 2.74079V22.7328H26.1342V16.5531C27.8946 19.0195 28.7639 22.7328 28.7639 22.7328H36.044C35.3239 19.9362 32.1738 14.7795 32.1738 14.7795C35.001 11.4312 36.2428 7.86331 36.4403 7.27222H29.4896ZM45.4683 7.06353C40.0243 7.22675 37.2608 9.50835 37.2608 14.0439V22.7328H43.2V15.6472C43.2 12.9313 43.5806 11.7672 47.0305 11.6562V7.1431C46.4499 7.02797 45.4683 7.06353 45.4683 7.06353ZM9.8629 9.47366C9.11845 9.4279 7.3949 9.32385 7.3949 7.87439C7.3949 6.1253 9.87632 6.1253 10.807 6.1253C12.4435 6.1253 14.563 6.57707 16.0766 6.99999C16.0766 6.99999 16.9209 7.27805 17.6395 7.56281L17.7062 7.57971V2.78946L17.6145 2.7641C15.8282 2.18029 13.7512 1.61864 9.90034 1.61864C3.26076 1.61864 0.908203 5.23195 0.908203 8.32733C0.908203 10.1117 1.72692 14.3111 9.33092 14.7956C9.97554 14.8326 11.6863 14.9247 11.6863 16.4225C11.6863 17.6592 10.2857 18.3885 7.93 18.3885C5.34842 18.3885 2.84423 17.7735 1.32318 17.1902V22.1239C3.60023 22.6815 6.16714 22.9601 9.17554 22.9601C15.6675 22.9601 18.5752 19.5415 18.5752 16.1532C18.5752 12.3114 15.3215 9.81526 9.8629 9.47366ZM48.7878 22.7328H54.6788V7.2897H48.7878V22.7328ZM65.7714 2.60321V22.7328H71.6634V1.61864L65.7714 2.60321ZM57.1743 2.60321L63.0607 1.61864V22.7328H57.1743V2.60321Z" fill="white"/>
</g>
<defs>
<clipPath id="clip0_2233_14156">
<rect width="70.8264" height="22.7344" fill="white" transform="translate(0.917969 0.228516)"/>
</clipPath>
</defs>
</svg>
