<svg width="59" height="21" viewBox="0 0 59 21" fill="none" xmlns="http://www.w3.org/2000/svg">
<path d="M25.5686 20.0102H20.803L23.7814 1.20276H28.5476L25.5686 20.0102ZM16.7938 1.20276L12.2505 14.1387L11.7129 11.3531L11.7134 11.3541L10.1098 2.89616C10.1098 2.89616 9.91591 1.20276 7.84916 1.20276H0.338135L0.25 1.52122C0.25 1.52122 2.54688 2.01223 5.23499 3.67091L9.37535 20.0107H14.3408L21.9228 1.20276H16.7938ZM54.2779 20.0102H58.6538L54.8386 1.20226H51.0077C49.2386 1.20226 48.8077 2.60386 48.8077 2.60386L41.7002 20.0102H46.668L47.6615 17.2165H53.7198L54.2779 20.0102ZM49.0339 13.3574L51.5379 6.31916L52.9466 13.3574H49.0339ZM42.0728 5.72552L42.7529 1.68673C42.7529 1.68673 40.6543 0.866699 38.4666 0.866699C36.1017 0.866699 30.4855 1.92872 30.4855 7.09291C30.4855 11.9517 37.077 12.0121 37.077 14.5643C37.077 17.1164 31.1647 16.6591 29.2135 15.0497L28.505 19.2727C28.505 19.2727 30.6329 20.3347 33.8841 20.3347C37.1363 20.3347 42.0424 18.6046 42.0424 13.8957C42.0424 9.00565 35.3917 8.55036 35.3917 6.42431C35.3922 4.29776 40.0334 4.57093 42.0728 5.72552Z" fill="white"/>
</svg>
