<svg width="60" height="66" fill="none" xmlns="http://www.w3.org/2000/svg"><g clip-path="url(#a)"><path style="mix-blend-mode:multiply" opacity=".5" fill-rule="evenodd" clip-rule="evenodd" d="M42.894 57.397 14.36 65.105a1.668 1.668 0 0 1-2.04-1.134L.068 22.241a1.668 1.668 0 0 1 1.165-2.081l30.342-8.211a1.665 1.665 0 0 1 2.053 1.21l10.449 42.227a1.669 1.669 0 0 1-1.183 2.011z" fill="url(#b)"/><path fill-rule="evenodd" clip-rule="evenodd" d="m44.553 56.592-29.04 7.853a1.698 1.698 0 0 1-2.072-1.16L.973 20.8a1.696 1.696 0 0 1 1.185-2.117l30.874-8.352a1.697 1.697 0 0 1 2.093 1.234l10.634 42.98a1.698 1.698 0 0 1-1.206 2.046z" fill="url(#c)"/><path fill-rule="evenodd" clip-rule="evenodd" d="m44.19 56.26-28.53 7.707a1.67 1.67 0 0 1-2.04-1.134L1.36 21.093a1.671 1.671 0 0 1 1.168-2.08l30.343-8.205a1.67 1.67 0 0 1 2.056 1.211l10.447 42.227a1.669 1.669 0 0 1-1.184 2.013z" fill="url(#d)"/><path fill-rule="evenodd" clip-rule="evenodd" d="M30.532 33.912c-1.317-3.997-6.241-3.723-7.359-.245-2.772-2.426-7.11-.195-6.232 3.92.878 4.114 7.372 2.475 8.721 5.284-.251-3.106 6.185-4.963 4.87-8.96z" fill="url(#e)"/><path fill-rule="evenodd" clip-rule="evenodd" d="M9.648 25.303c-.394-1.2-1.87-1.118-2.205-.075-.832-.725-2.131-.056-1.868 1.177.263 1.233 2.21.741 2.613 1.587-.074-.934 1.855-1.492 1.46-2.689z" fill="url(#f)"/><path d="m7.352 23.048-1.508.408-.077.864-.351.095.324-3.598.381-.1 2.088 2.948-.352.095-.505-.712zm-.175-.25-1.133-1.613-.175 1.963 1.308-.35z" fill="#C0001B"/><path fill-rule="evenodd" clip-rule="evenodd" d="M37.154 50.297c.394 1.197 1.872 1.115 2.208.073.83.727 2.13.059 1.868-1.175-.263-1.233-2.21-.743-2.616-1.587.077.93-1.855 1.49-1.46 2.689z" fill="#C0001B"/><path d="m39.42 52.468 1.506-.407.077-.865.35-.095-.324 3.598-.374.1-2.089-2.944.351-.095.502.709zm.173.248 1.139 1.615.17-1.968-1.309.354z" fill="#C0001B"/><path style="mix-blend-mode:multiply" opacity=".5" fill-rule="evenodd" clip-rule="evenodd" d="m46.65 56.188-30.14 4.605a1.72 1.72 0 0 1-1.956-1.406l-7.73-44.206a1.723 1.723 0 0 1 1.437-2l32.05-4.892a1.72 1.72 0 0 1 1.968 1.483l5.817 44.496a1.718 1.718 0 0 1-1.446 1.92z" fill="url(#g)"/><path fill-rule="evenodd" clip-rule="evenodd" d="m48.74 55.565-30.672 4.686a1.753 1.753 0 0 1-1.993-1.43L8.21 13.83A1.756 1.756 0 0 1 9.67 11.79l32.622-4.987a1.75 1.75 0 0 1 2.002 1.503l5.923 45.29a1.757 1.757 0 0 1-1.478 1.97z" fill="url(#h)"/><path fill-rule="evenodd" clip-rule="evenodd" d="m48.411 55.182-30.15 4.605a1.721 1.721 0 0 1-1.955-1.406l-7.73-44.206a1.723 1.723 0 0 1 1.437-1.997l32.06-4.899a1.725 1.725 0 0 1 1.968 1.48l5.817 44.497a1.72 1.72 0 0 1-1.447 1.926z" fill="url(#i)"/><path d="m14.495 16.881-1.587.243-.179.877-.37.057.749-3.65.396-.061 1.8 3.262-.371.056-.438-.784zm-.15-.274-.97-1.789-.401 2 1.372-.211z" fill="#2F0020"/><path fill-rule="evenodd" clip-rule="evenodd" d="M22.76 34.279c.907 4.386 6.16 4.685 7.758 1.133 2.646 2.9 7.502 1.057 7.066-3.4-.435-4.457-7.508-3.5-8.598-6.638-.105 3.321-7.139 4.518-6.225 8.905z" fill="url(#j)"/><path fill-rule="evenodd" clip-rule="evenodd" d="M30.518 35.419s.68 4.643-2.317 6.756l3.274-.502 3.273-.498c-3.484-1.125-4.23-5.756-4.23-5.756z" fill="url(#k)"/><path fill-rule="evenodd" clip-rule="evenodd" d="M12.505 20.067c.213 1.018 1.428 1.088 1.8.265.612.68 1.738.245 1.639-.789-.1-1.034-1.741-.814-1.995-1.54-.025.77-1.655 1.048-1.444 2.064z" fill="url(#l)"/><path fill-rule="evenodd" clip-rule="evenodd" d="M14.305 20.332s.156 1.077-.537 1.566l.759-.11.757-.116c-.807-.265-.98-1.34-.98-1.34z" fill="url(#m)"/><path fill-rule="evenodd" clip-rule="evenodd" d="M45.625 47.177c-.21-1.017-1.428-1.085-1.797-.265-.615-.68-1.741-.245-1.64.791.103 1.036 1.742.812 1.995 1.54.023-.771 1.655-1.048 1.442-2.066z" fill="url(#n)"/><path fill-rule="evenodd" clip-rule="evenodd" d="M43.828 46.912s-.157-1.074.537-1.566l-.76.118-.759.127c.807.249.982 1.321.982 1.321z" fill="url(#o)"/><path d="m43.83 49.923 1.593-.243.179-.878.37-.056-.75 3.65-.395.06-1.8-3.26.371-.057.432.784zm.15.275.98 1.788.402-2-1.382.212z" fill="#2F0020"/><path style="mix-blend-mode:multiply" opacity=".5" fill-rule="evenodd" clip-rule="evenodd" d="m51.52 55.506-30.151 2.1a1.707 1.707 0 0 1-1.814-1.549L15.52 11.75a1.706 1.706 0 0 1 1.587-1.857l32.062-2.224a1.707 1.707 0 0 1 1.813 1.624l2.12 44.432a1.708 1.708 0 0 1-1.583 1.782z" fill="url(#p)"/><path fill-rule="evenodd" clip-rule="evenodd" d="m53.5 55.083-30.687 2.126a1.737 1.737 0 0 1-1.85-1.576l-4.108-45.087a1.736 1.736 0 0 1 1.61-1.891l32.644-2.267a1.738 1.738 0 0 1 1.857 1.65l2.155 45.224a1.736 1.736 0 0 1-1.62 1.82z" fill="url(#q)"/><path fill-rule="evenodd" clip-rule="evenodd" d="m53.197 54.674-30.15 2.09a1.707 1.707 0 0 1-1.814-1.548L17.2 10.917a1.704 1.704 0 0 1 1.587-1.857l32.061-2.224a1.707 1.707 0 0 1 1.814 1.624l2.12 44.432a1.705 1.705 0 0 1-1.585 1.782z" fill="url(#r)"/><path d="m22.82 14.08-1.587.111-.25.853-.37.024 1.035-3.55.394-.027 1.512 3.369-.37.027-.364-.807zm-.125-.283-.823-1.846-.562 1.936 1.385-.09zM49.17 50.034l1.588-.11.247-.853.372-.025-1.039 3.545-.396.028-1.512-3.37.371-.026.37.811zm.126.284.822 1.845.56-1.94-1.382.095z" fill="#C0001B"/><path fill-rule="evenodd" clip-rule="evenodd" d="m37.201 40.34-6.61-8.097 5.431-8.934 6.61 8.097-5.43 8.934z" fill="url(#s)"/><path fill-rule="evenodd" clip-rule="evenodd" d="m22.516 19.058-1.583-1.936 1.3-2.136 1.58 1.936-1.297 2.136z" fill="url(#t)"/><path fill-rule="evenodd" clip-rule="evenodd" d="m49.756 48.592-1.58-1.938 1.296-2.135 1.583 1.936-1.3 2.137z" fill="#C0001B"/><path style="mix-blend-mode:multiply" opacity=".5" fill-rule="evenodd" clip-rule="evenodd" d="M55.704 49.531H25.216a1.721 1.721 0 0 1-1.723-1.684l-.966-44.875a1.72 1.72 0 0 1 1.73-1.75h32.417a1.723 1.723 0 0 1 1.723 1.759l-.972 44.877a1.72 1.72 0 0 1-1.72 1.673z" fill="url(#u)"/><path fill-rule="evenodd" clip-rule="evenodd" d="M57.264 49.193H26.23a1.75 1.75 0 0 1-1.75-1.714l-.984-45.664a1.75 1.75 0 0 1 1.75-1.79h33A1.75 1.75 0 0 1 60 1.814l-.984 45.664a1.753 1.753 0 0 1-1.752 1.714z" fill="url(#v)"/><path fill-rule="evenodd" clip-rule="evenodd" d="M56.994 48.764h-30.49a1.721 1.721 0 0 1-1.721-1.684l-.966-44.866a1.72 1.72 0 0 1 1.72-1.759h32.418a1.72 1.72 0 0 1 1.721 1.76l-.961 44.863a1.72 1.72 0 0 1-1.72 1.686z" fill="url(#w)"/><path d="M29.256 5.77h-1.599l-.308.842h-.376l1.292-3.496h.401l1.285 3.496h-.374l-.322-.841zm-.105-.294-.7-1.915-.699 1.915h1.4z" fill="#2F0020"/><path fill-rule="evenodd" clip-rule="evenodd" d="M42.29 26.523s-.036 4.693-3.31 6.33h6.623c-3.274-1.637-3.313-6.33-3.313-6.33z" fill="url(#x)"/><path d="M42.438 24.027a4.024 4.024 0 1 0 0-8.048 4.024 4.024 0 0 0 0 8.048z" fill="url(#y)"/><path d="M41.688 28.151a4.024 4.024 0 1 0-5.69-5.69 4.024 4.024 0 0 0 5.69 5.69z" fill="url(#z)"/><path d="M48.633 28.15a4.024 4.024 0 1 0-5.69-5.69 4.024 4.024 0 0 0 5.69 5.69z" fill="url(#A)"/><path fill-rule="evenodd" clip-rule="evenodd" d="M28.68 9.784s0 1.21-.855 1.632h1.71c-.846-.421-.855-1.632-.855-1.632z" fill="url(#B)"/><path d="M28.718 9.14a1.038 1.038 0 1 0 0-2.076 1.038 1.038 0 0 0 0 2.076z" fill="url(#C)"/><path d="M27.791 10.507a1.038 1.038 0 1 0 0-2.076 1.038 1.038 0 0 0 0 2.076z" fill="url(#D)"/><path fill-rule="evenodd" clip-rule="evenodd" d="M30.62 9.469a1.038 1.038 0 1 1-2.077 0 1.038 1.038 0 0 1 2.077 0z" fill="url(#E)"/><path fill-rule="evenodd" clip-rule="evenodd" d="M53.775 39.63s0-1.21.855-1.632h-1.71c.846.422.855 1.632.855 1.632z" fill="url(#F)"/><path d="M53.739 42.351a1.038 1.038 0 1 0 0-2.077 1.038 1.038 0 0 0 0 2.077z" fill="url(#G)"/><path d="M54.666 40.984a1.038 1.038 0 1 0 0-2.077 1.038 1.038 0 0 0 0 2.077z" fill="url(#H)"/><path d="M52.873 40.984a1.038 1.038 0 1 0 0-2.077 1.038 1.038 0 0 0 0 2.077z" fill="url(#I)"/><path d="M53.274 43.797h1.612l.308-.84h.377l-1.293 3.495h-.4l-1.284-3.496h.374l.306.841zm.107.293.7 1.915.698-1.916h-1.398z" fill="#2F0020"/></g><defs><linearGradient id="s" x1="32.643" y1="36.37" x2="40.569" y2="27.262" gradientUnits="userSpaceOnUse"><stop stop-color="#B50122"/><stop offset="1" stop-color="#D8251D"/></linearGradient><linearGradient id="b" x1="5.677" y1="43.166" x2="39.261" y2="34.168" gradientUnits="userSpaceOnUse"><stop stop-color="#fff"/><stop offset=".01" stop-color="#FAF2F2"/><stop offset=".03" stop-color="#EECECE"/><stop offset=".07" stop-color="#D99595"/><stop offset=".1" stop-color="#BD4646"/><stop offset=".13" stop-color="#A40000"/></linearGradient><linearGradient id="d" x1="29.926" y1="60.12" x2="17.702" y2="14.912" gradientUnits="userSpaceOnUse"><stop stop-color="#E5C5C5"/><stop offset=".21" stop-color="#E7D4DB"/><stop offset=".47" stop-color="#E8E2EF"/><stop offset=".74" stop-color="#E9EAFB"/><stop offset="1" stop-color="#E9EDFF"/></linearGradient><linearGradient id="e" x1="25.665" y1="42.877" x2="22.712" y2="31.955" gradientUnits="userSpaceOnUse"><stop stop-color="#B50122"/><stop offset="1" stop-color="#D8251D"/></linearGradient><linearGradient id="f" x1="8.191" y1="27.992" x2="7.306" y2="24.718" gradientUnits="userSpaceOnUse"><stop stop-color="#B50122"/><stop offset="1" stop-color="#D8251D"/></linearGradient><linearGradient id="g" x1="10.212" y1="37.324" x2="45.666" y2="31.905" gradientUnits="userSpaceOnUse"><stop stop-color="#fff"/><stop offset=".01" stop-color="#FAF2F2"/><stop offset=".03" stop-color="#EECECE"/><stop offset=".07" stop-color="#D99595"/><stop offset=".1" stop-color="#BD4646"/><stop offset=".13" stop-color="#A40000"/></linearGradient><linearGradient id="h" x1="33.416" y1="57.91" x2="25.987" y2="9.303" gradientUnits="userSpaceOnUse"><stop stop-color="#CE8E8E"/><stop offset=".2" stop-color="#EDCECE"/><stop offset="1" stop-color="#fff"/></linearGradient><linearGradient id="i" x1="33.351" y1="57.484" x2="26.052" y2="9.73" gradientUnits="userSpaceOnUse"><stop stop-color="#E5C5C5"/><stop offset=".21" stop-color="#E7D4DB"/><stop offset=".47" stop-color="#E8E2EF"/><stop offset=".74" stop-color="#E9EAFB"/><stop offset="1" stop-color="#E9EDFF"/></linearGradient><linearGradient id="j" x1="28.994" y1="25.341" x2="30.814" y2="37.252" gradientUnits="userSpaceOnUse"><stop stop-color="#39103E"/><stop offset="1" stop-color="#2C001D"/></linearGradient><linearGradient id="k" x1="31.48" y1="41.673" x2="30.524" y2="35.419" gradientUnits="userSpaceOnUse"><stop stop-color="#39103E"/><stop offset="1" stop-color="#2C001D"/></linearGradient><linearGradient id="l" x1="13.955" y1="17.968" x2="14.377" y2="20.729" gradientUnits="userSpaceOnUse"><stop stop-color="#39103E"/><stop offset="1" stop-color="#2C001D"/></linearGradient><linearGradient id="m" x1="14.531" y1="21.783" x2="14.309" y2="20.333" gradientUnits="userSpaceOnUse"><stop stop-color="#39103E"/><stop offset="1" stop-color="#2C001D"/></linearGradient><linearGradient id="n" x1="44.187" y1="49.243" x2="43.765" y2="46.48" gradientUnits="userSpaceOnUse"><stop stop-color="#39103E"/><stop offset="1" stop-color="#2C001D"/></linearGradient><linearGradient id="o" x1="43.614" y1="45.426" x2="43.835" y2="46.878" gradientUnits="userSpaceOnUse"><stop stop-color="#39103E"/><stop offset="1" stop-color="#2C001D"/></linearGradient><linearGradient id="p" x1="17.135" y1="34" x2="52.688" y2="31.511" gradientUnits="userSpaceOnUse"><stop stop-color="#fff"/><stop offset=".01" stop-color="#FAF2F2"/><stop offset=".03" stop-color="#EECECE"/><stop offset=".07" stop-color="#D99595"/><stop offset=".1" stop-color="#BD4646"/><stop offset=".13" stop-color="#A40000"/></linearGradient><linearGradient id="q" x1="38.301" y1="56.29" x2="34.889" y2="7.548" gradientUnits="userSpaceOnUse"><stop stop-color="#CE8E8E"/><stop offset=".2" stop-color="#EDCECE"/><stop offset="1" stop-color="#fff"/></linearGradient><linearGradient id="r" x1="38.271" y1="55.864" x2="34.919" y2="7.976" gradientUnits="userSpaceOnUse"><stop stop-color="#E5C5C5"/><stop offset=".21" stop-color="#E7D4DB"/><stop offset=".47" stop-color="#E8E2EF"/><stop offset=".74" stop-color="#E9EAFB"/><stop offset="1" stop-color="#E9EDFF"/></linearGradient><linearGradient id="c" x1="30.034" y1="60.522" x2="17.593" y2="14.509" gradientUnits="userSpaceOnUse"><stop stop-color="#CE8E8E"/><stop offset=".2" stop-color="#EDCECE"/><stop offset="1" stop-color="#fff"/></linearGradient><linearGradient id="t" x1="21.419" y1="18.104" x2="23.315" y2="15.925" gradientUnits="userSpaceOnUse"><stop stop-color="#B50122"/><stop offset="1" stop-color="#D8251D"/></linearGradient><linearGradient id="u" x1="22.527" y1="25.376" x2="58.393" y2="25.376" gradientUnits="userSpaceOnUse"><stop stop-color="#fff"/><stop offset=".01" stop-color="#FAF2F2"/><stop offset=".03" stop-color="#EECECE"/><stop offset=".07" stop-color="#D99595"/><stop offset=".1" stop-color="#BD4646"/><stop offset=".13" stop-color="#A40000"/></linearGradient><linearGradient id="v" x1="41.749" y1="49.193" x2="41.749" y2=".024" gradientUnits="userSpaceOnUse"><stop stop-color="#CE8E8E"/><stop offset=".2" stop-color="#EDCECE"/><stop offset="1" stop-color="#fff"/></linearGradient><linearGradient id="w" x1="41.749" y1="48.762" x2="41.749" y2=".455" gradientUnits="userSpaceOnUse"><stop stop-color="#F6DBDB"/><stop offset=".11" stop-color="#F3DFDF"/><stop offset=".55" stop-color="#E8EAEB"/><stop offset="1" stop-color="#E5EEEF"/></linearGradient><linearGradient id="x" x1="42.291" y1="32.853" x2="42.291" y2="26.523" gradientUnits="userSpaceOnUse"><stop stop-color="#39103E"/><stop offset="1" stop-color="#2C001D"/></linearGradient><linearGradient id="y" x1="42.438" y1="24.029" x2="42.438" y2="15.979" gradientUnits="userSpaceOnUse"><stop stop-color="#2C001D"/><stop offset="1" stop-color="#39103E"/></linearGradient><linearGradient id="z" x1="38.843" y1="29.33" x2="38.843" y2="21.28" gradientUnits="userSpaceOnUse"><stop stop-color="#2C001D"/><stop offset="1" stop-color="#39103E"/></linearGradient><linearGradient id="A" x1="45.787" y1="29.329" x2="45.787" y2="21.279" gradientUnits="userSpaceOnUse"><stop stop-color="#2C001D"/><stop offset="1" stop-color="#39103E"/></linearGradient><linearGradient id="B" x1="28.68" y1="11.416" x2="28.68" y2="9.784" gradientUnits="userSpaceOnUse"><stop stop-color="#39103E"/><stop offset="1" stop-color="#2C001D"/></linearGradient><linearGradient id="C" x1="28.718" y1="9.14" x2="28.718" y2="7.061" gradientUnits="userSpaceOnUse"><stop stop-color="#39103E"/><stop offset="1" stop-color="#2C001D"/></linearGradient><linearGradient id="D" x1="27.791" y1="10.507" x2="27.791" y2="8.431" gradientUnits="userSpaceOnUse"><stop stop-color="#39103E"/><stop offset="1" stop-color="#2C001D"/></linearGradient><linearGradient id="E" x1="29.582" y1="10.507" x2="29.582" y2="8.431" gradientUnits="userSpaceOnUse"><stop stop-color="#39103E"/><stop offset="1" stop-color="#2C001D"/></linearGradient><linearGradient id="F" x1="53.775" y1="37.996" x2="53.775" y2="39.63" gradientUnits="userSpaceOnUse"><stop stop-color="#39103E"/><stop offset="1" stop-color="#2C001D"/></linearGradient><linearGradient id="G" x1="53.739" y1="40.274" x2="53.739" y2="42.351" gradientUnits="userSpaceOnUse"><stop stop-color="#39103E"/><stop offset="1" stop-color="#2C001D"/></linearGradient><linearGradient id="H" x1="54.666" y1="38.905" x2="54.666" y2="40.984" gradientUnits="userSpaceOnUse"><stop stop-color="#39103E"/><stop offset="1" stop-color="#2C001D"/></linearGradient><linearGradient id="I" x1="52.873" y1="38.905" x2="52.873" y2="40.984" gradientUnits="userSpaceOnUse"><stop stop-color="#39103E"/><stop offset="1" stop-color="#2C001D"/></linearGradient><clipPath id="a"><path fill="#fff" transform="translate(0 .023)" d="M0 0h60v65.146H0z"/></clipPath></defs></svg>