<svg width="72" height="42" fill="none" xmlns="http://www.w3.org/2000/svg">
    <g clip-path="url(#a)">
        <path d="M62.62 3.912c4.262.421 7.66 7.72 7.66 16.661 0 8.942-3.398 16.24-7.66 16.667l-14.835 1.641-.044-36.534L62.62 3.912Z" fill="url(#b)"/>
        <path d="M47.663 38.88c2.616 0 4.737-8.18 4.737-18.27S50.28 2.34 47.663 2.34c-2.616 0-4.736 8.18-4.736 18.27s2.12 18.27 4.736 18.27Z" fill="url(#c)"/>
        <path d="M47.663 38.431c2.414 0 4.371-7.978 4.371-17.82s-1.957-17.82-4.37-17.82c-2.415 0-4.372 7.978-4.372 17.82s1.957 17.82 4.371 17.82Z" fill="url(#d)"/>
        <path d="M7.661 3.911C3.395 4.332 0 11.631 0 20.572c0 8.942 3.395 16.24 7.661 16.667l14.835 1.641.04-36.54L7.661 3.91Z" fill="url(#e)"/>
        <path d="M22.618 38.88c2.616 0 4.737-8.18 4.737-18.27S25.234 2.34 22.618 2.34s-4.737 8.18-4.737 18.27 2.121 18.27 4.737 18.27Z" fill="url(#f)"/>
        <path d="M22.618 38.431c2.414 0 4.37-7.978 4.37-17.82s-1.956-17.82-4.37-17.82-4.37 7.978-4.37 17.82 1.956 17.82 4.37 17.82Z" fill="url(#g)"/>
        <path d="M44.433.066H26.137c-2.324 0-4.188 9.192-4.188 20.53 0 11.338 1.864 20.532 4.188 20.532h18.296c2.323 0 4.188-9.191 4.188-20.532 0-11.34-1.882-20.53-4.188-20.53Z" fill="url(#h)"/>
        <path style="mix-blend-mode:screen" d="m44.799 8.504-3.288.04.015.703-.41.233a.852.852 0 0 1-.156.075 1.039 1.039 0 0 1-.204.061 1.413 1.413 0 0 1-.209.035h-.25a1.744 1.744 0 0 1-.42-.055 3.775 3.775 0 0 1-.372-.116l-.363-.146c-.114-.049-.72-.313-.72-.316H38.4a13.258 13.258 0 0 0-.523-.192 8.83 8.83 0 0 0-.726-.218 8.033 8.033 0 0 0-.886-.165 7.278 7.278 0 0 0-.94-.061h-.09c-.398 0-.793.023-1.162.058-.369.035-.746.081-1.092.142-.346.061-.68.134-.99.218-.296.08-.587.177-.872.29l-.395.149-.334.122-.29.095-.235.07-.892.259-.142-1.162-3.093.038-.099 9.293 4.415-.055v-.302c-.006-.635.047-1.269.16-1.894a6.206 6.206 0 0 1 .493-1.542c.203-.438.5-.826.871-1.135.379-.3.847-.466 1.33-.47h.601c.163 0 .401.028.602.051.2.024.4.056.598.093.197.038.4.085.615.14l2.55.639-.676.967a44.638 44.638 0 0 0-1.926 3.011 37.562 37.562 0 0 0-1.948 3.81c-.337.764-.63 1.52-.89 2.266a24.567 24.567 0 0 0 7.113-2.294c.157-.36.325-.724.511-1.095.445-.889.918-1.717 1.284-2.341l.174-.29.171-.29.366-.582c.39-.624.758-1.217 1.101-1.812.34-.582.646-1.182.918-1.798a9.88 9.88 0 0 0 .58-1.792c.135-.61.192-1.234.17-1.858l-.024-.877Z" fill="url(#i)"/>
        <path d="m41.022 8.19-1.89 9.046-.015-.764 1.882-9.366.023 1.084Z" fill="#803608"/>
        <path d="M38.916 30.938s-.418-3.09 1.679-7.842c2.096-4.75 3.116-5.393 4.356-8.57 1.24-3.177 1.225-5.129 1.225-5.129l-3.801 7.87-2.748 4.357-1.001 4.095-.157 4.124.447 1.095ZM38.966 32.82l-.241.445-8.219.087-.296-.424 8.756-.108Z" fill="#85001F"/>
        <path d="M32.982 12.845c-2.851.125-2.828 5.3-2.779 5.314.154.133.3.276.436.427l.186.83v-.804c0-.214-.183-5.567 4.67-3.235l1.161-1.728s-2.053-.75-3.674-.804Z" fill="url(#j)"/>
        <path d="m30.64 18.586.186.83-6.055.032-.439-.784 6.308-.078Z" fill="#85001F"/>
        <path d="M35.252 6.932a8.689 8.689 0 0 1 2.224.264c.308.079.581.163.83.247.25.085.454.166.625.23l.395.171.363.16c.12.052.236.099.343.14.095.036.192.067.29.092.082.022.166.033.25.035.057.003.114.003.171 0a1.015 1.015 0 0 0 .21-.044.268.268 0 0 0 .058-.029l-.024-1.083 5.115-.078.07 1.742a8.423 8.423 0 0 1-.198 2.16 10.899 10.899 0 0 1-.671 2.034 19.698 19.698 0 0 1-1.005 1.972c-.377.653-.784 1.307-1.196 1.972-.058.095-.12.188-.18.29l-.178.29-.18.291-.162.285c-.45.77-.898 1.562-1.316 2.401a21.908 21.908 0 0 0-1.138 2.675c-.35 1-.613 2.028-.784 3.073a19.397 19.397 0 0 0-.247 3.612l.064 2.986-8.76.107v-2.244a20.45 20.45 0 0 1 .654-5.03 29.91 29.91 0 0 1 1.635-4.7 39.98 39.98 0 0 1 2.091-4.086 46.62 46.62 0 0 1 2.056-3.218l-.4-.095-.392-.108-.372-.104-.352-.102a8.19 8.19 0 0 0-1.161-.218 9.902 9.902 0 0 0-.581-.052c-.198-.012-.383 0-.581 0a1.476 1.476 0 0 0-.897.328 2.615 2.615 0 0 0-.694.91 5.482 5.482 0 0 0-.442 1.393 9.536 9.536 0 0 0-.154 1.83v1.161l-6.299.061.12-11.422 4.805-.06.122.987.221-.067.29-.093.337-.122.404-.151a9.046 9.046 0 0 1 1.005-.337c.354-.096.726-.18 1.115-.247.39-.067.799-.119 1.217-.157.418-.037.84-.046 1.284-.052Z" fill="url(#k)"/>
        <path d="M30.642 32.489v-1.81c.01-1.665.225-3.324.642-4.937a29.649 29.649 0 0 1 1.609-4.629 40.4 40.4 0 0 1 2.07-4.043 50.413 50.413 0 0 1 2.033-3.194l.37-.532-.63-.139-.39-.07-.383-.101-.718-.21a10.468 10.468 0 0 0-1.214-.232 8.576 8.576 0 0 0-.604-.052c-.2-.012-.403 0-.604 0a1.89 1.89 0 0 0-1.161.421 3 3 0 0 0-.816 1.046c-.23.48-.392.99-.483 1.516-.113.63-.167 1.27-.162 1.91v.727l-5.434.066.11-10.553 3.997-.056.136 1.11.488-.143.235-.072.29-.096.346-.125.416-.15c.314-.127.634-.234.96-.323.34-.093.7-.172 1.078-.238.378-.067.773-.117 1.18-.151a17.76 17.76 0 0 1 1.266-.064 8.32 8.32 0 0 1 2.11.252c.262.064.524.143.8.236.223.078.418.153.58.214l.773.337.36.146c.125.043.241.08.348.107.118.032.239.048.36.046h.21c.058-.006.116-.016.174-.029a.72.72 0 0 0 .151-.046.693.693 0 0 0 .113-.052l.227-.128-.02-.903 4.242-.055.053 1.32a7.953 7.953 0 0 1-.19 2.051 10.38 10.38 0 0 1-.644 1.955c-.291.66-.62 1.303-.984 1.925-.366.64-.755 1.264-1.162 1.926l-.378.61-.18.29-.18.29c-.38.651-.87 1.51-1.333 2.431a22.65 22.65 0 0 0-1.161 2.727 18.728 18.728 0 0 0-.805 3.145 20.193 20.193 0 0 0-.25 3.686l.053 2.547-7.894.096Z" fill="url(#l)"/>
        <path d="M31.035 30.68c.008-1.628.217-3.248.621-4.824a29.07 29.07 0 0 1 1.589-4.569 40.164 40.164 0 0 1 2.033-4.002 42.757 42.757 0 0 1 2.033-3.16l.711-1.016-2.678-.67a10.558 10.558 0 0 0-1.274-.245 9.162 9.162 0 0 0-.633-.055h-.619a2.277 2.277 0 0 0-1.403.506c-.39.32-.705.724-.92 1.182a6.325 6.325 0 0 0-.523 1.632c-.119.655-.175 1.32-.169 1.986v.331l-4.646.058.11-9.77 3.25-.04.148 1.217.938-.27.247-.076.29-.098.355-.128.412-.157c.304-.123.616-.228.932-.314.343-.094.69-.17 1.04-.23a15.819 15.819 0 0 1 2.399-.21h.093c.33.003.66.024.987.066a8.92 8.92 0 0 1 1.693.404c.21.072.392.142.546.2h.023l.744.351a5.993 5.993 0 0 0 .77.276c.144.036.292.056.44.058.114 0 .196 0 .265-.014a1.686 1.686 0 0 0 .433-.1c.057-.021.112-.047.166-.078l.43-.246-.018-.738 3.456-.052.038.932a7.712 7.712 0 0 1-.18 1.951 10.221 10.221 0 0 1-.622 1.88 18.315 18.315 0 0 1-.964 1.887c-.36.627-.744 1.249-1.162 1.905l-.386.616-.18.29-.18.29c-.386.66-.871 1.528-1.35 2.46a23.697 23.697 0 0 0-1.18 2.774 19.018 19.018 0 0 0-.804 3.224c-.2 1.242-.287 2.5-.259 3.758l.047 2.146-7.078.087-.011-1.405Z" fill="url(#m)"/>
        <path style="mix-blend-mode:screen" d="m45.305 7.885-3.453.043.018.738-.43.247a1.395 1.395 0 0 1-.378.142 1.686 1.686 0 0 1-.22.035c-.07 0-.151 0-.265.014a1.942 1.942 0 0 1-.441-.058 4.525 4.525 0 0 1-.39-.124 9.44 9.44 0 0 1-.38-.151l-.758-.332h-.023c-.154-.058-.337-.127-.546-.2a8.924 8.924 0 0 0-1.693-.404 8.016 8.016 0 0 0-.987-.064h-.093a15.844 15.844 0 0 0-2.399.21c-.35.058-.697.135-1.04.229a8.186 8.186 0 0 0-.923.308l-.413.157-.354.127-.29.1-.247.075-.938.27-.148-1.217-3.247.035-.102 9.758 4.647-.058v-.331c-.009-.662.045-1.323.16-1.975.099-.565.275-1.114.522-1.632.216-.462.532-.87.927-1.194.396-.32.888-.498 1.397-.505h.63c.212 0 .424.032.633.055.209.023.42.058.627.099.206.04.421.087.648.145l2.689.682-.712 1.017a51.073 51.073 0 0 0-2.032 3.16 40.164 40.164 0 0 0-2.033 4.002 31.865 31.865 0 0 0-.933 2.378 25.73 25.73 0 0 0 7.453-2.399c.165-.377.342-.76.537-1.162a43.4 43.4 0 0 1 1.35-2.46l.18-.29.18-.29.387-.616c.41-.656.792-1.278 1.161-1.905.358-.61.68-1.24.964-1.888.268-.604.476-1.234.622-1.879.143-.64.203-1.296.18-1.951l-.044-.941Z" fill="url(#n)"/>
        <path d="m25.267 8.7 3.25-.04.148 1.217.938-.27.246-.076.29-.098.355-.128.413-.157c.302-.12.61-.222.923-.308.325-.09.677-.165 1.04-.23.363-.063.75-.113 1.161-.147.413-.035.816-.056 1.238-.061h.093c.33 0 .66.02.987.064.313.038.623.096.93.174.25.064.499.136.763.226.21.073.392.143.546.2h.023l.758.332c.131.058.259.107.38.154.128.048.258.088.39.122.144.036.292.055.441.058.114 0 .195 0 .265-.015a1.686 1.686 0 0 0 .432-.099.944.944 0 0 0 .166-.078l.43-.244v-.63l-.416.238a1.4 1.4 0 0 1-.378.142 1.686 1.686 0 0 1-.22.035c-.07 0-.15 0-.264.015a1.943 1.943 0 0 1-.442-.058 4.538 4.538 0 0 1-.389-.125 9.46 9.46 0 0 1-.38-.151l-.758-.331h-.023c-.154-.058-.337-.128-.546-.2a8.92 8.92 0 0 0-1.694-.404 8.016 8.016 0 0 0-.987-.064h-.093c-.421 0-.836.023-1.237.06-.4.038-.784.085-1.162.149-.35.058-.697.135-1.04.23a8.193 8.193 0 0 0-.923.307l-.412.157-.355.128-.29.098-.247.076-.938.27-.148-1.217-3.264.044-.102 9.758.102-9.122ZM45.306 8.52l.035.872v-.58l-.035-.927-3.453.043.014.636 3.44-.043ZM38.068 30.488l.035 1.51-.044-2.12c.009.203.006.407.009.61ZM37.501 13.867l-.18.259a51.092 51.092 0 0 0-2.033 3.16 40.162 40.162 0 0 0-2.033 4.002 29.069 29.069 0 0 0-1.6 4.568 19.808 19.808 0 0 0-.63 4.824v.543a19.75 19.75 0 0 1 .63-4.728c.401-1.564.933-3.09 1.589-4.566a39.9 39.9 0 0 1 2.033-4.005 43.385 43.385 0 0 1 2.032-3.16l.735-1.016v-.639l-.543.758Z" fill="#85001F"/>
        <path d="M67.519 11.64c-.543 2.838-.752 3.886-1.176 6.183-.02-.197-.032-.29-.055-.496.418-2.4.621-3.485 1.184-6.607.018.383.027.56.047.92Z" fill="#803608"/>
        <path d="m66.958 28.632-.438.476c-2.811.581-4.185.871-7.26 1.452.165-.186.246-.29.406-.464 3.064-.57 4.455-.86 7.292-1.464Z" fill="#85001F"/>
        <path d="M61.08 14.126c-2.306-.233-2.065 3.938-2.033 3.95.134.108.261.224.38.348 0-.169-.949-4.7 3.81-2.135.34-.462.512-.688.855-1.138a14.952 14.952 0 0 0-3.012-1.025Z" fill="url(#o)"/>
        <path d="m54.177 8.126-.398.363v10.56c.13-.29.197-.43.325-.715.032-4.08.047-6.11.073-10.208Z" fill="#FFEA8C"/>
        <path d="M59.26 30.581s-.473-5.404 1.162-9.557a24.37 24.37 0 0 1 2.526-4.897c.465-.395.697-.58 1.162-.976 0 0-2.896 4.232-3.52 6.407-.665 2.323-.924 8.553-.924 8.553l-.406.47ZM59.436 18.424c-.195.256-.29.386-.485.65-2.033-.017-3.041-.02-5.173-.026l.331-.705c2.19.02 3.238.038 5.327.081Z" fill="#85001F"/>
        <path d="M62.677 9.54c.335.064.664.153.985.267.29.1.574.216.85.348.262.122.494.247.7.363.207.117.384.224.53.311l.333.215.314.2a5.491 5.491 0 0 0 .549.308 1.004 1.004 0 0 0 .354.096H67.519a77.07 77.07 0 0 1-.047-.92c1.743.363 2.614.557 4.438.97.026.58.04.87.078 1.393a4.61 4.61 0 0 1-.125 1.487 4.467 4.467 0 0 1-.514 1.2 8.847 8.847 0 0 1-.778 1.057c-.29.348-.607.694-.924 1.054a3.57 3.57 0 0 1-.136.154l-.137.16-.133.157-.134.165c-.354.44-.68.903-.973 1.386a9.667 9.667 0 0 0-.798 1.66 9.504 9.504 0 0 0-.485 2.054 13.406 13.406 0 0 0-.041 2.614c.07.903.099 1.376.15 2.398-2.836.605-4.219.895-7.291 1.485-.032-.805-.047-1.194-.082-1.967a16.958 16.958 0 0 1 .36-4.216 20.91 20.91 0 0 1 4.156-8.782l-.337-.117-.322-.122-.31-.122-.291-.116a8.14 8.14 0 0 0-.941-.296 6.853 6.853 0 0 0-.47-.105c-.157-.029-.311-.058-.468-.075a1.002 1.002 0 0 0-.712.16c-.23.164-.411.39-.523.65-.149.343-.247.706-.29 1.078a7.124 7.124 0 0 0-.043 1.431c.02.363.032.543.055.906a434.754 434.754 0 0 0-5.327-.081c.024-4.066.032-6.099.053-10.182 1.47.256 2.213.383 3.723.653l.125.898.171-.026.218-.041.261-.055.317-.076a5.59 5.59 0 0 1 .787-.142 7.21 7.21 0 0 1 .886-.044c.325 0 .65.02.973.056.33.03.677.081 1.04.15Z" fill="url(#p)"/>
        <path d="M60.029 29.658c-.027-.64-.038-.953-.067-1.571-.055-1.378.06-2.757.342-4.107a20.08 20.08 0 0 1 1.118-3.613 20.53 20.53 0 0 1 2.98-4.986l.29-.34-.525-.177c-.108-.038-.218-.075-.322-.116l-.32-.122-.598-.241a10.492 10.492 0 0 0-.996-.322 9.622 9.622 0 0 0-.985-.197 1.28 1.28 0 0 0-.92.202c-.27.193-.483.456-.613.761a4.09 4.09 0 0 0-.328 1.162 7.71 7.71 0 0 0-.05 1.51c0 .23.02.343.032.58a428.82 428.82 0 0 0-4.57-.11V8.614l3.104.54c.055.404.081.604.139 1.002l.38-.052c.056 0 .117-.017.184-.029l.223-.04.27-.059c.099-.02.204-.046.32-.075.248-.062.5-.106.755-.134.283-.03.568-.044.853-.04.317.001.633.02.947.055.331.032.677.084 1.025.15.318.062.63.146.936.25a8.921 8.921 0 0 1 1.478.671c.189.105.354.204.49.29l.66.416a6.02 6.02 0 0 0 .598.334c.093.043.19.076.29.099.07 0 .128.023.178.029h.148a.802.802 0 0 0 .128 0l.093-.023.188-.064c-.017-.29-.026-.445-.04-.752 1.452.29 2.184.461 3.685.795.02.436.035.645.061 1.046.038.478 0 .96-.113 1.426-.11.408-.275.8-.494 1.161a8.408 8.408 0 0 1-.764 1.06c-.29.343-.58.68-.897 1.043l-.29.334-.137.163-.134.165a14.59 14.59 0 0 0-.981 1.417 9.512 9.512 0 0 0-1.275 3.825c-.102.891-.116 1.79-.04 2.684.057.775.086 1.179.133 2.033-2.57.537-3.825.795-6.57 1.324Z" fill="url(#q)"/>
        <path d="M60.306 28.025a16.212 16.212 0 0 1 .334-4.005 19.66 19.66 0 0 1 4.046-8.454l.53-.645a97.318 97.318 0 0 1-2.227-.828 10.062 10.062 0 0 0-1.563-.47c-.17-.038-.29-.053-.418-.073h-.096a1.54 1.54 0 0 0-1.109.238c-.307.222-.55.523-.7.872a4.53 4.53 0 0 0-.351 1.26 7.985 7.985 0 0 0-.055 1.583v.264a493.7 493.7 0 0 0-3.883-.125c0-3.415-.02-5.117-.026-8.605 1.004.171 1.51.259 2.53.439.06.441.09.659.153 1.094l.732-.101.194-.03.23-.043.29-.058.328-.107c.24-.06.482-.103.727-.128.273-.029.549-.043.824-.04.29 0 .599.02.92.054.323.035.66.085 1.003.149l.075.014c.274.063.544.143.808.241.262.083.52.18.772.29a14.275 14.275 0 0 1 1.1.587h.021l.642.404c.113.07.224.133.325.189.102.055.233.122.331.165a1.995 1.995 0 0 0 .596.157 1.6 1.6 0 0 0 .186 0 1.156 1.156 0 0 0 .316-.046l.36-.117c0-.238-.023-.357-.035-.604 1.18.244 1.778.372 2.995.636.017.29.026.448.046.732a4.16 4.16 0 0 1-.58 2.51 8.2 8.2 0 0 1-.747 1.054c-.276.345-.58.682-.871 1.045l-.29.343-.137.165-.137.169c-.358.463-.688.948-.987 1.452a9.732 9.732 0 0 0-1.325 3.92 14.38 14.38 0 0 0-.04 2.756c.05.657.075.997.116 1.711-2.3.468-3.438.7-5.884 1.162-.035-.453-.046-.697-.07-1.176Z" fill="url(#r)"/>
        <path d="m57.096 10.77.407.333c-.07-.653-.105-.982-.172-1.65l-.41-.072c.059.56.097.85.175 1.388ZM59.801 13.775c.296-.196.65-.283 1.002-.247l-.235-.04-.096-.015a1.527 1.527 0 0 0-1.109.244c-.309.22-.55.522-.7.871a4.483 4.483 0 0 0-.357 1.275 8.11 8.11 0 0 0-.061 1.597l.014.267.45.018v-.265a7.984 7.984 0 0 1 .056-1.582 4.53 4.53 0 0 1 .351-1.26c.148-.344.384-.642.685-.863ZM71.257 12.944c-.02-.29-.03-.43-.047-.732l-.479-.102c.018.29.03.448.05.735a4.45 4.45 0 0 1-.105 1.38c-.1.407-.257.798-.468 1.161a8.59 8.59 0 0 1-.74 1.072c-.276.348-.58.691-.871 1.06l-.29.351-.137.169-.134.171c-.358.47-.687.96-.984 1.47a10.114 10.114 0 0 0-.837 1.768 10.342 10.342 0 0 0-.502 2.207 14.433 14.433 0 0 0-.038 2.783c.052.665.076 1.005.12 1.722l.44-.087c-.04-.715-.066-1.055-.115-1.71-.075-.919-.062-1.842.04-2.757a9.736 9.736 0 0 1 1.324-3.92c.3-.504.63-.989.988-1.453l.136-.168.137-.166.29-.342c.311-.363.607-.7.871-1.046.284-.33.542-.68.77-1.051a4.16 4.16 0 0 0 .58-2.51v-.005Z" fill="#85001F"/>
        <path style="mix-blend-mode:screen" d="M71.21 12.212a260.211 260.211 0 0 0-2.993-.636c0 .247.02.366.034.604l-.36.116a1.154 1.154 0 0 1-.317.046 1.6 1.6 0 0 1-.185 0 2.064 2.064 0 0 1-.595-.157 3.87 3.87 0 0 1-.332-.165 8.701 8.701 0 0 1-.325-.188l-.642-.404h-.02c-.128-.076-.29-.166-.462-.261-.22-.122-.43-.23-.639-.326a6.515 6.515 0 0 0-1.586-.54l-.075-.014c-.343-.064-.68-.117-1.002-.149-.322-.031-.63-.052-.92-.055a7.403 7.403 0 0 0-.825.041 5.227 5.227 0 0 0-.72.107l-.326.076-.29.058-.23.044-.194.029-.732.101c-.064-.435-.093-.653-.154-1.095a359.86 359.86 0 0 0-2.53-.438c0 3.485.015 5.19.027 8.605 1.58.046 2.35.07 3.883.125v-.265a7.993 7.993 0 0 1 .055-1.582 4.53 4.53 0 0 1 .351-1.26c.15-.349.392-.65.7-.872a1.54 1.54 0 0 1 1.11-.238h.095c.137.02.29.043.418.072.128.03.343.079.514.125.172.047.346.096.515.154.168.058.348.12.534.192.886.34 1.333.505 2.227.828l-.531.644a19.667 19.667 0 0 0-3.601 6.72 39.114 39.114 0 0 0 6.026-1.858c.116-.238.24-.473.38-.712.3-.503.63-.988.988-1.452l.136-.168.137-.166.29-.342c.31-.363.607-.7.871-1.046.281-.33.536-.681.761-1.051a4.159 4.159 0 0 0 .581-2.51c-.02-.29-.029-.435-.046-.737Z" fill="url(#s)"/>
        <path d="M54.808 9.587c1.01.171 1.519.255 2.541.432.061.439.093.654.154 1.087.29-.044.441-.064.738-.102l.191-.032.233-.044c.084 0 .174-.034.276-.058l.325-.075c.239-.058.481-.101.726-.128.274-.028.55-.04.825-.038.29 0 .598.02.92.053.323.031.66.08 1.002.145l.076.014c.274.057.544.13.81.215.262.084.52.18.772.29.21.097.419.198.64.317.22.12.33.183.461.256h.018l.644.392c.114.067.221.13.326.183.104.052.229.119.33.162.186.078.382.13.581.151.062.004.124.004.186 0 .06.005.12.005.18 0a.91.91 0 0 0 .137-.032l.357-.113c0-.197-.02-.29-.032-.496l-.345.113a1.156 1.156 0 0 1-.317.046 1.6 1.6 0 0 1-.186 0 2.064 2.064 0 0 1-.595-.157 3.916 3.916 0 0 1-.331-.165 8.697 8.697 0 0 1-.325-.189l-.642-.403h-.02c-.129-.076-.291-.166-.462-.262-.221-.122-.43-.23-.64-.325a7.59 7.59 0 0 0-.76-.302 6.515 6.515 0 0 0-.813-.22l-.076-.015c-.343-.064-.68-.117-1.002-.149-.322-.031-.63-.052-.92-.055a7.403 7.403 0 0 0-.825.041 5.227 5.227 0 0 0-.72.107l-.326.076-.29.058-.23.044-.194.029-.732.101c-.064-.435-.093-.653-.154-1.095a359.86 359.86 0 0 0-2.53-.438c0 3.485.015 5.19.027 8.605.005-3.18-.003-4.766-.009-8.024ZM71.22 12.712c.017.273.025.406.046.665v-.433c-.02-.29-.03-.43-.047-.732a258.076 258.076 0 0 0-2.994-.636c0 .212.018.317.03.52 1.155.238 1.756.36 2.964.616ZM66.153 26.855a64.26 64.26 0 0 1-.034-.47c.017.154.023.31.034.47Z" fill="#85001F"/>
        <path d="M13.05 11.321c-.561 3.052-.768 4.287-1.209 6.807a30.47 30.47 0 0 1-.04-.54c.435-2.614.644-3.93 1.222-7.194.009.375.014.561.026.927Z" fill="#803608"/>
        <path d="M12.22 29.727c.093.134.192.221.323.404-2.736-.186-4.13-.29-6.869-.5-.093-.136-.188-.244-.264-.377 2.753.212 4.034.302 6.81.473Z" fill="#85001F"/>
        <path d="M12.543 30.13a52.609 52.609 0 0 1 0-5.453c.168-2.376 1.812-5.155 2.924-6.55 1.113-1.393 2.097-3.484 2.181-4.646.05-.834.05-1.67 0-2.504l-.389-.554s.233 2.466-.642 4.269c-.874 1.803-3.049 4.812-3.978 6.813-.93 2.001-.793 8.05-.793 8.05l.697.576Z" fill="#85001F"/>
        <path d="M7.084 15.066c-2.12.215-1.995 3.7-1.955 3.706.12.083.235.173.343.27 0-.142-.752-4.246 3.546-2.26.322-.487.482-.731.807-1.233a9.582 9.582 0 0 0-2.741-.483Z" fill="url(#t)"/>
        <path d="M5.471 19.043c-.183.23-.273.343-.459.58-1.864.053-2.123.094-4.222.219a3.643 3.643 0 0 1-.375-.48 89.895 89.895 0 0 1 5.056-.319Z" fill="#85001F"/>
        <path d="M8.683 10.452c.296-.027.594-.027.89 0 .255.018.51.056.76.113.232.052.441.116.627.177.186.061.343.125.474.177l.29.134.29.127.262.11c.077.03.155.056.235.076a.716.716 0 0 0 .195.03h.133a.401.401 0 0 0 .096-.018.295.295 0 0 0 .067-.02.23.23 0 0 0 .046-.024c0-.365-.017-.551-.026-.926a62.395 62.395 0 0 1 4.237 0c.027.656.044.976.079 1.589a6.738 6.738 0 0 1-.645 3.357c-.23.479-.493.942-.787 1.385-.29.45-.601.889-.915 1.333l-.133.192-.137.192-.13.194c-.047.064-.09.13-.134.195-.331.517-.66 1.048-.956 1.614a12.467 12.467 0 0 0-.79 1.842 11.721 11.721 0 0 0-.499 2.204c-.111.915-.14 1.838-.087 2.759.046.952.067 1.452.096 2.463a362.846 362.846 0 0 1-6.81-.474V27.45a14.23 14.23 0 0 1 .43-3.654 19.043 19.043 0 0 1 1.117-3.194c.436-.953.92-1.883 1.452-2.785.497-.851.994-1.621 1.438-2.274l-.29-.067-.29-.07-.291-.07-.264-.066a6.352 6.352 0 0 0-.854-.125c-.137-.012-.29 0-.43 0s-.29 0-.43.017a1.162 1.162 0 0 0-.662.273c-.223.176-.403.4-.529.654a3.59 3.59 0 0 0-.29.97c-.067.403-.09.813-.07 1.222l.035.761c-1.922.076-2.904.134-5.056.29-.067-2.648-.108-3.874-.07-7.65 1.61-.255 2.367-.368 3.842-.58.038.314.059.47.1.773l.168-.073.209-.099c.078-.037.162-.078.255-.127l.297-.14a7.47 7.47 0 0 1 .752-.351c.267-.108.546-.204.833-.29.288-.088.581-.155.9-.213.32-.058.642-.101.97-.13Z" fill="url(#u)"/>
        <path d="M5.75 28.923v-1.452a14.231 14.231 0 0 1 .404-3.59 18.93 18.93 0 0 1 1.106-3.15c.425-.945.9-1.866 1.423-2.76a37.7 37.7 0 0 1 1.423-2.244l.265-.383-.497-.1-.29-.075-.29-.067c-.216-.058-.326-.084-.54-.136a6.925 6.925 0 0 0-.457-.084 4.488 4.488 0 0 0-.447-.047 7.711 7.711 0 0 0-.453-.014c-.163 0-.29 0-.45.017-.314.031-.61.159-.848.366a2.324 2.324 0 0 0-.581.775c-.16.333-.271.686-.331 1.049-.07.42-.094.845-.073 1.269 0 .192.015.29.023.476-1.667.079-2.509.134-4.356.29-.055-2.494-.09-3.667-.067-7.088 1.319-.2 1.958-.29 3.192-.468.044.346.067.517.113.848l.375-.154.177-.075.218-.102c.078-.038.165-.078.258-.128s.2-.096.311-.154c.234-.124.474-.234.72-.33.263-.105.53-.196.802-.274.29-.078.58-.148.871-.203.29-.055.619-.099.938-.125a5.233 5.233 0 0 1 1.568.11c.203.046.402.103.599.169.168.058.316.113.441.162l.58.262c.097.043.193.084.291.116.088.036.179.066.27.09.095.025.193.038.29.038.055.003.11.003.164 0a1.09 1.09 0 0 0 .255-.058.489.489 0 0 0 .087-.047l.177-.104c0-.29-.014-.46-.026-.773a55.933 55.933 0 0 1 3.523.038c.02.488.035.723.06 1.188a6.588 6.588 0 0 1-.62 3.203c-.223.473-.478.93-.764 1.368-.29.439-.581.871-.872 1.31l-.29.406c-.055.079-.081.12-.134.198l-.133.197c-.29.439-.636 1.014-.961 1.641-.316.603-.583 1.23-.8 1.876a11.928 11.928 0 0 0-.507 2.248 15.88 15.88 0 0 0-.093 2.817c.04.81.058 1.229.084 2.088a495.681 495.681 0 0 1-6.128-.43Z" fill="url(#v)"/>
        <path d="M6.046 27.504a14.23 14.23 0 0 1 .407-3.537 18.675 18.675 0 0 1 1.08-3.125c.418-.936.887-1.848 1.406-2.733.43-.734.903-1.478 1.411-2.218l.506-.724a52.49 52.49 0 0 0-2.033-.464 6.685 6.685 0 0 0-.95-.136c-.154-.012-.314 0-.47 0h-.471a1.824 1.824 0 0 0-1.037.435c-.283.24-.512.537-.673.871a4.172 4.172 0 0 0-.343 1.124c-.074.433-.1.874-.078 1.313v.218c-1.424.078-2.15.13-3.7.267-.05-2.324-.082-3.456-.067-6.543 1.071-.172 1.585-.25 2.593-.395.05.377.076.56.125.917l.72-.29.19-.078.22-.102.267-.128.31-.157a7.5 7.5 0 0 1 1.464-.572 9.207 9.207 0 0 1 1.76-.314h.07a4.768 4.768 0 0 1 1.426.105c.186.044.375.096.58.163.207.066.291.104.416.15h.018l.58.26c.102.043.2.084.29.118.095.04.192.073.291.099a1.915 1.915 0 0 0 .546.05 1.485 1.485 0 0 0 .34-.079c.044-.019.086-.04.128-.064l.34-.2c0-.247 0-.372-.024-.628 1.098 0 1.664 0 2.864.05l.043.828a6.303 6.303 0 0 1-.11 1.629c-.103.5-.262.987-.473 1.452-.216.464-.464.913-.74 1.344-.277.436-.567.872-.872 1.304l-.29.416-.134.197-.134.203c-.29.445-.639 1.028-.967 1.662-.32.614-.59 1.253-.81 1.91a12.383 12.383 0 0 0-.517 2.292 16.43 16.43 0 0 0-.093 2.866c.032.683.046 1.031.073 1.743a242.963 242.963 0 0 1-5.486-.366c.017-.473.017-.691.008-1.133Z" fill="url(#w)"/>
        <path style="mix-blend-mode:screen" d="M16.553 11.149c-1.19-.046-1.742-.046-2.855-.046 0 .255 0 .38.024.627l-.34.2a.948.948 0 0 1-.296.113 1.483 1.483 0 0 1-.172.03 1.915 1.915 0 0 1-.203 0 1.374 1.374 0 0 1-.343-.05 2.283 2.283 0 0 1-.29-.099 4.037 4.037 0 0 1-.29-.119l-.581-.258h-.018a6.812 6.812 0 0 0-.996-.314 4.859 4.859 0 0 0-1.426-.104h-.07c-.307.026-.615.066-.911.119a8.671 8.671 0 0 0-1.621.453 6.912 6.912 0 0 0-.691.313l-.311.157-.267.128-.22.102-.19.078-.72.29c-.05-.357-.075-.54-.125-.917-1.007.145-1.522.223-2.593.395 0 3.087.017 4.205.067 6.543a94.042 94.042 0 0 1 3.7-.267v-.218c-.022-.44.004-.88.078-1.313.059-.384.171-.759.334-1.112.16-.335.39-.631.674-.871.29-.251.654-.404 1.036-.436h.941c.157 0 .314.03.468.05.154.02.314.052.482.087.802.168 1.205.26 2.033.464l-.505.735c-.509.74-.982 1.484-1.412 2.219A27.83 27.83 0 0 0 7.54 20.86a20.86 20.86 0 0 0-.636 1.615 20.976 20.976 0 0 0 5.622-1.498c.113-.259.235-.52.372-.787.328-.633.685-1.217.967-1.662l.133-.203.134-.197.29-.416c.306-.444.596-.87.872-1.303.277-.431.524-.88.74-1.345.212-.465.371-.952.474-1.452.104-.54.137-1.09.098-1.638-.017-.323-.026-.488-.052-.825Z" fill="url(#x)"/>
        <path d="M7.07 23.248c1.113-3.485 3.776-7.507 3.776-7.507v-.572c-.203.29-.29.444-.505.735a36.58 36.58 0 0 0-1.411 2.218 27.818 27.818 0 0 0-1.406 2.733 18.675 18.675 0 0 0-1.072 3.114 14.23 14.23 0 0 0-.406 3.537v1.115l.392.03s-.48-1.918.633-5.403ZM1.452 12.683l.067 6.078-.407.035s-.119-5.228-.064-6.05l.404-.063Z" fill="#85001F"/>
        <path d="M1.045 12.746c1.071-.171 1.585-.25 2.596-.395.05.366.076.546.128.897l.717-.29.189-.078.224-.1.264-.127c.096-.043.2-.096.31-.15.224-.116.454-.218.689-.309a8.897 8.897 0 0 1 1.62-.441c.294-.052.604-.09.915-.116h.07a4.73 4.73 0 0 1 1.426.107c.196.043.39.096.58.16l.416.15h.014l.581.26.29.121c.108.041.21.073.291.1.112.03.227.046.343.048.069.004.137.004.206 0a1.08 1.08 0 0 0 .183-.029c.057-.012.113-.027.168-.046.044-.019.087-.04.128-.064l.337-.18c0-.206-.014-.31-.023-.523l-.325.192a.958.958 0 0 1-.296.113 1.483 1.483 0 0 1-.172.03 1.915 1.915 0 0 1-.203 0 1.37 1.37 0 0 1-.343-.05 2.272 2.272 0 0 1-.29-.099 4.081 4.081 0 0 1-.29-.119l-.582-.258h-.017a6.898 6.898 0 0 0-.996-.314 4.858 4.858 0 0 0-1.426-.105h-.07a10.3 10.3 0 0 0-.912.12 8.67 8.67 0 0 0-1.62.453 6.89 6.89 0 0 0-.691.313l-.311.157-.267.128-.221.101-.189.079-.72.29c-.05-.357-.076-.54-.125-.918-1.008.146-1.522.224-2.593.395 0 3.088.017 4.206.066 6.543-.046-2.172-.075-3.238-.07-6.046ZM16.572 11.715c0 .308.026.462.044.761v-.5l-.044-.827c-1.208-.046-1.76-.046-2.872-.046 0 .22 0 .328.017.543 1.095 0 1.676.011 2.855.07ZM11.482 27.749a78.934 78.934 0 0 1-.023-.488c.014.162.017.322.023.488Z" fill="#85001F"/>
    </g>
    <defs>
        <linearGradient id="b" x1="59.009" y1="38.413" x2="59.009" y2="2.977" gradientUnits="userSpaceOnUse">
            <stop stop-color="#CF6E97"/>
            <stop offset=".01" stop-color="#D4799E"/>
            <stop offset=".03" stop-color="#E097B1"/>
            <stop offset=".06" stop-color="#E9ACBE"/>
            <stop offset=".08" stop-color="#EEB9C6"/>
            <stop offset=".1" stop-color="#F0BDC9"/>
            <stop offset=".15" stop-color="#F2D0D0"/>
            <stop offset=".22" stop-color="#F5E5D9"/>
            <stop offset=".27" stop-color="#F6EDDC"/>
            <stop offset=".42" stop-color="#F5EBDB"/>
            <stop offset=".47" stop-color="#F3E4D8"/>
            <stop offset=".51" stop-color="#F0D9D3"/>
            <stop offset=".54" stop-color="#EBC8CB"/>
            <stop offset=".57" stop-color="#E6B6C3"/>
            <stop offset=".65" stop-color="#EDC0CD"/>
            <stop offset=".67" stop-color="#F0CAD3"/>
            <stop offset=".75" stop-color="#F8E7E3"/>
            <stop offset=".81" stop-color="#FDF9ED"/>
            <stop offset=".86" stop-color="ivory"/>
            <stop offset="1" stop-color="#F7F9F4"/>
        </linearGradient>
        <linearGradient id="c" x1="47.663" y1="39.098" x2="47.663" y2="1.683" gradientUnits="userSpaceOnUse">
            <stop stop-color="#F7F9F4"/>
            <stop offset=".14" stop-color="#FFFFFD"/>
            <stop offset=".23" stop-color="#F7F9FB"/>
            <stop offset=".37" stop-color="#E1EAF7"/>
            <stop offset=".54" stop-color="#BED1F0"/>
            <stop offset=".55" stop-color="#BDD0F0"/>
            <stop offset=".6" stop-color="#BBCCEC"/>
            <stop offset=".66" stop-color="#B5C1DF"/>
            <stop offset=".72" stop-color="#ABAFCA"/>
            <stop offset=".78" stop-color="#9E95AC"/>
            <stop offset=".84" stop-color="#8C7486"/>
            <stop offset=".9" stop-color="#774B57"/>
            <stop offset=".97" stop-color="#5E1C20"/>
            <stop offset="1" stop-color="#4F0000"/>
        </linearGradient>
        <linearGradient id="e" x1="11.268" y1="39.098" x2="11.268" y2="2.63" gradientUnits="userSpaceOnUse">
            <stop stop-color="#CF6E97"/>
            <stop offset=".01" stop-color="#D4799E"/>
            <stop offset=".03" stop-color="#E097B1"/>
            <stop offset=".06" stop-color="#E9ACBE"/>
            <stop offset=".08" stop-color="#EEB9C6"/>
            <stop offset=".1" stop-color="#F0BDC9"/>
            <stop offset=".15" stop-color="#F2D0D0"/>
            <stop offset=".22" stop-color="#F5E5D9"/>
            <stop offset=".27" stop-color="#F6EDDC"/>
            <stop offset=".42" stop-color="#F5EBDB"/>
            <stop offset=".47" stop-color="#F3E4D8"/>
            <stop offset=".51" stop-color="#F0D9D3"/>
            <stop offset=".54" stop-color="#EBC8CB"/>
            <stop offset=".57" stop-color="#E6B6C3"/>
            <stop offset=".65" stop-color="#EDC0CD"/>
            <stop offset=".67" stop-color="#F0CAD3"/>
            <stop offset=".75" stop-color="#F8E7E3"/>
            <stop offset=".81" stop-color="#FDF9ED"/>
            <stop offset=".86" stop-color="ivory"/>
            <stop offset="1" stop-color="#F7F9F4"/>
        </linearGradient>
        <linearGradient id="f" x1="22.618" y1="38.584" x2="22.618" y2="2.166" gradientUnits="userSpaceOnUse">
            <stop stop-color="#F7F9F4"/>
            <stop offset=".14" stop-color="#FFFFFD"/>
            <stop offset=".23" stop-color="#F7F9FB"/>
            <stop offset=".37" stop-color="#E1EAF7"/>
            <stop offset=".54" stop-color="#BED1F0"/>
            <stop offset=".55" stop-color="#BDD0F0"/>
            <stop offset=".6" stop-color="#BBCCEC"/>
            <stop offset=".66" stop-color="#B5C1DF"/>
            <stop offset=".72" stop-color="#ABAFCA"/>
            <stop offset=".78" stop-color="#9E95AC"/>
            <stop offset=".84" stop-color="#8C7486"/>
            <stop offset=".9" stop-color="#774B57"/>
            <stop offset=".97" stop-color="#5E1C20"/>
            <stop offset="1" stop-color="#4F0000"/>
        </linearGradient>
        <linearGradient id="h" x1="35.282" y1="40.728" x2="35.282" y2="-.056" gradientUnits="userSpaceOnUse">
            <stop stop-color="#CF6E97"/>
            <stop offset=".01" stop-color="#D4799E"/>
            <stop offset=".03" stop-color="#E097B1"/>
            <stop offset=".06" stop-color="#E9ACBE"/>
            <stop offset=".08" stop-color="#EEB9C6"/>
            <stop offset=".1" stop-color="#F0BDC9"/>
            <stop offset=".15" stop-color="#F2D0D0"/>
            <stop offset=".22" stop-color="#F5E5D9"/>
            <stop offset=".27" stop-color="#F6EDDC"/>
            <stop offset=".42" stop-color="#F5EBDB"/>
            <stop offset=".47" stop-color="#F3E4D8"/>
            <stop offset=".51" stop-color="#F0D9D3"/>
            <stop offset=".54" stop-color="#EBC8CB"/>
            <stop offset=".57" stop-color="#E6B6C3"/>
            <stop offset=".65" stop-color="#EDC0CD"/>
            <stop offset=".67" stop-color="#F0CAD3"/>
            <stop offset=".75" stop-color="#F8E7E3"/>
            <stop offset=".81" stop-color="#FDF9ED"/>
            <stop offset=".86" stop-color="ivory"/>
            <stop offset="1" stop-color="#F7F9F4"/>
        </linearGradient>
        <linearGradient id="i" x1="35.233" y1="21.239" x2="35.233" y2="10.987" gradientUnits="userSpaceOnUse">
            <stop stop-color="#D66F6F"/>
            <stop offset="1"/>
        </linearGradient>
        <linearGradient id="j" x1="30.662" y1="15.659" x2="33.929" y2="16.568" gradientUnits="userSpaceOnUse">
            <stop stop-color="#FF7301"/>
            <stop offset="1" stop-color="#421500"/>
        </linearGradient>
        <linearGradient id="k" x1="35.5" y1="33.222" x2="35.145" y2="4.981" gradientUnits="userSpaceOnUse">
            <stop stop-color="#E0A300"/>
            <stop offset=".08" stop-color="#FFC524"/>
            <stop offset=".15" stop-color="#FFD759"/>
            <stop offset=".41" stop-color="#FFF4A5"/>
            <stop offset=".42" stop-color="#FEF09F"/>
            <stop offset=".44" stop-color="#FCE68F"/>
            <stop offset=".46" stop-color="#F9D574"/>
            <stop offset=".48" stop-color="#F5BD4F"/>
            <stop offset=".5" stop-color="#EF9E20"/>
            <stop offset=".52" stop-color="#EB8A00"/>
            <stop offset=".56" stop-color="#AD4300"/>
            <stop offset=".61" stop-color="#6E3500"/>
            <stop offset=".65" stop-color="#E09D00"/>
            <stop offset=".66" stop-color="#E7AA16"/>
            <stop offset=".67" stop-color="#F2BE37"/>
            <stop offset=".68" stop-color="#F9CC4E"/>
            <stop offset=".69" stop-color="#FFD761"/>
            <stop offset=".73" stop-color="#FFD75F"/>
            <stop offset=".75" stop-color="#FFD558"/>
            <stop offset=".76" stop-color="#FFCF3C"/>
            <stop offset=".77" stop-color="#FFCB29"/>
            <stop offset=".78" stop-color="#FBC525"/>
            <stop offset=".8" stop-color="#F0B41A"/>
            <stop offset=".81" stop-color="#DE9808"/>
            <stop offset=".82" stop-color="#DD9B16"/>
            <stop offset=".83" stop-color="#F0C34B"/>
            <stop offset=".84" stop-color="#FBDB6B"/>
            <stop offset=".85" stop-color="#FDE073"/>
            <stop offset=".86" stop-color="#FEE275"/>
            <stop offset=".94" stop-color="#FEF3C6"/>
        </linearGradient>
        <linearGradient id="l" x1="24.77" y1="19.928" x2="45.744" y2="19.928" gradientUnits="userSpaceOnUse">
            <stop stop-color="#E0A300"/>
            <stop offset=".08" stop-color="#FFC524"/>
            <stop offset=".15" stop-color="#FFD759"/>
            <stop offset=".41" stop-color="#FFF4A5"/>
            <stop offset=".42" stop-color="#FEF09F"/>
            <stop offset=".44" stop-color="#FCE68F"/>
            <stop offset=".46" stop-color="#F9D574"/>
            <stop offset=".48" stop-color="#F5BD4F"/>
            <stop offset=".5" stop-color="#EF9E20"/>
            <stop offset=".52" stop-color="#EB8A00"/>
            <stop offset=".56" stop-color="#AD4300"/>
            <stop offset=".61" stop-color="#6E3500"/>
            <stop offset=".65" stop-color="#E09D00"/>
            <stop offset=".66" stop-color="#E7AA16"/>
            <stop offset=".67" stop-color="#F2BE37"/>
            <stop offset=".68" stop-color="#F9CC4E"/>
            <stop offset=".69" stop-color="#FFD761"/>
            <stop offset=".73" stop-color="#FFD75F"/>
            <stop offset=".75" stop-color="#FFD558"/>
            <stop offset=".76" stop-color="#FFCF3C"/>
            <stop offset=".77" stop-color="#FFCB29"/>
            <stop offset=".78" stop-color="#FBC525"/>
            <stop offset=".8" stop-color="#F0B41A"/>
            <stop offset=".81" stop-color="#DE9808"/>
            <stop offset=".82" stop-color="#DD9B16"/>
            <stop offset=".83" stop-color="#F0C34B"/>
            <stop offset=".84" stop-color="#FBDB6B"/>
            <stop offset=".85" stop-color="#FDE073"/>
            <stop offset=".86" stop-color="#FEE275"/>
            <stop offset=".94" stop-color="#FEF3C6"/>
        </linearGradient>
        <linearGradient id="m" x1="35.257" y1="32.222" x2="35.257" y2="7.751" gradientUnits="userSpaceOnUse">
            <stop stop-color="#9B071F"/>
            <stop offset=".32" stop-color="#E51D44"/>
            <stop offset=".54" stop-color="#CF1229"/>
            <stop offset=".76" stop-color="#FA0D1E"/>
            <stop offset="1" stop-color="#E00000"/>
        </linearGradient>
        <linearGradient id="n" x1="35.257" y1="21.256" x2="35.257" y2="10.496" gradientUnits="userSpaceOnUse">
            <stop stop-color="#D66F6F"/>
            <stop offset="1"/>
        </linearGradient>
        <linearGradient id="o" x1="59.34" y1="16.005" x2="62.065" y2="16.76" gradientUnits="userSpaceOnUse">
            <stop stop-color="#FF7301"/>
            <stop offset="1" stop-color="#421500"/>
        </linearGradient>
        <linearGradient id="p" x1="63.241" y1="30.375" x2="62.939" y2="6.392" gradientUnits="userSpaceOnUse">
            <stop stop-color="#E0A300"/>
            <stop offset=".08" stop-color="#FFC524"/>
            <stop offset=".15" stop-color="#FFD759"/>
            <stop offset=".41" stop-color="#FFF4A5"/>
            <stop offset=".42" stop-color="#FEF09F"/>
            <stop offset=".44" stop-color="#FCE68F"/>
            <stop offset=".46" stop-color="#F9D574"/>
            <stop offset=".48" stop-color="#F5BD4F"/>
            <stop offset=".5" stop-color="#EF9E20"/>
            <stop offset=".52" stop-color="#EB8A00"/>
            <stop offset=".56" stop-color="#AD4300"/>
            <stop offset=".61" stop-color="#6E3500"/>
            <stop offset=".65" stop-color="#E09D00"/>
            <stop offset=".66" stop-color="#E7AA16"/>
            <stop offset=".67" stop-color="#F2BE37"/>
            <stop offset=".68" stop-color="#F9CC4E"/>
            <stop offset=".69" stop-color="#FFD761"/>
            <stop offset=".73" stop-color="#FFD75F"/>
            <stop offset=".75" stop-color="#FFD558"/>
            <stop offset=".76" stop-color="#FFCF3C"/>
            <stop offset=".77" stop-color="#FFCB29"/>
            <stop offset=".78" stop-color="#FBC525"/>
            <stop offset=".8" stop-color="#F0B41A"/>
            <stop offset=".81" stop-color="#DE9808"/>
            <stop offset=".82" stop-color="#DD9B16"/>
            <stop offset=".83" stop-color="#F0C34B"/>
            <stop offset=".84" stop-color="#FBDB6B"/>
            <stop offset=".85" stop-color="#FDE073"/>
            <stop offset=".86" stop-color="#FEE275"/>
            <stop offset=".94" stop-color="#FEF3C6"/>
        </linearGradient>
        <linearGradient id="q" x1="54.484" y1="19.133" x2="71.619" y2="19.133" gradientUnits="userSpaceOnUse">
            <stop stop-color="#E0A300"/>
            <stop offset=".08" stop-color="#FFC524"/>
            <stop offset=".15" stop-color="#FFD759"/>
            <stop offset=".41" stop-color="#FFF4A5"/>
            <stop offset=".42" stop-color="#FEF09F"/>
            <stop offset=".44" stop-color="#FCE68F"/>
            <stop offset=".46" stop-color="#F9D574"/>
            <stop offset=".48" stop-color="#F5BD4F"/>
            <stop offset=".5" stop-color="#EF9E20"/>
            <stop offset=".52" stop-color="#EB8A00"/>
            <stop offset=".56" stop-color="#AD4300"/>
            <stop offset=".61" stop-color="#6E3500"/>
            <stop offset=".65" stop-color="#E09D00"/>
            <stop offset=".66" stop-color="#E7AA16"/>
            <stop offset=".67" stop-color="#F2BE37"/>
            <stop offset=".68" stop-color="#F9CC4E"/>
            <stop offset=".69" stop-color="#FFD761"/>
            <stop offset=".73" stop-color="#FFD75F"/>
            <stop offset=".75" stop-color="#FFD558"/>
            <stop offset=".76" stop-color="#FFCF3C"/>
            <stop offset=".77" stop-color="#FFCB29"/>
            <stop offset=".78" stop-color="#FBC525"/>
            <stop offset=".8" stop-color="#F0B41A"/>
            <stop offset=".81" stop-color="#DE9808"/>
            <stop offset=".82" stop-color="#DD9B16"/>
            <stop offset=".83" stop-color="#F0C34B"/>
            <stop offset=".84" stop-color="#FBDB6B"/>
            <stop offset=".85" stop-color="#FDE073"/>
            <stop offset=".86" stop-color="#FEE275"/>
            <stop offset=".94" stop-color="#FEF3C6"/>
        </linearGradient>
        <linearGradient id="r" x1="63.035" y1="29.352" x2="63.035" y2="9.008" gradientUnits="userSpaceOnUse">
            <stop stop-color="#9B071F"/>
            <stop offset=".32" stop-color="#E51D44"/>
            <stop offset=".54" stop-color="#CF1229"/>
            <stop offset=".76" stop-color="#FA0D1E"/>
            <stop offset="1" stop-color="#E00000"/>
        </linearGradient>
        <linearGradient id="s" x1="63.035" y1="20.277" x2="63.035" y2="11.297" gradientUnits="userSpaceOnUse">
            <stop stop-color="#D66F6F"/>
            <stop offset="1"/>
        </linearGradient>
        <linearGradient id="t" x1="5.519" y1="16.698" x2="7.923" y2="17.366" gradientUnits="userSpaceOnUse">
            <stop stop-color="#FF7301"/>
            <stop offset="1" stop-color="#421500"/>
        </linearGradient>
        <linearGradient id="u" x1="9.052" y1="30.04" x2="8.788" y2="8.977" gradientUnits="userSpaceOnUse">
            <stop stop-color="#E0A300"/>
            <stop offset=".08" stop-color="#FFC524"/>
            <stop offset=".15" stop-color="#FFD759"/>
            <stop offset=".41" stop-color="#FFF4A5"/>
            <stop offset=".42" stop-color="#FEF09F"/>
            <stop offset=".44" stop-color="#FCE68F"/>
            <stop offset=".46" stop-color="#F9D574"/>
            <stop offset=".48" stop-color="#F5BD4F"/>
            <stop offset=".5" stop-color="#EF9E20"/>
            <stop offset=".52" stop-color="#EB8A00"/>
            <stop offset=".56" stop-color="#AD4300"/>
            <stop offset=".61" stop-color="#6E3500"/>
            <stop offset=".65" stop-color="#E09D00"/>
            <stop offset=".66" stop-color="#E7AA16"/>
            <stop offset=".67" stop-color="#F2BE37"/>
            <stop offset=".68" stop-color="#F9CC4E"/>
            <stop offset=".69" stop-color="#FFD761"/>
            <stop offset=".73" stop-color="#FFD75F"/>
            <stop offset=".75" stop-color="#FFD558"/>
            <stop offset=".76" stop-color="#FFCF3C"/>
            <stop offset=".77" stop-color="#FFCB29"/>
            <stop offset=".78" stop-color="#FBC525"/>
            <stop offset=".8" stop-color="#F0B41A"/>
            <stop offset=".81" stop-color="#DE9808"/>
            <stop offset=".82" stop-color="#DD9B16"/>
            <stop offset=".83" stop-color="#F0C34B"/>
            <stop offset=".84" stop-color="#FBDB6B"/>
            <stop offset=".85" stop-color="#FDE073"/>
            <stop offset=".86" stop-color="#FEE275"/>
            <stop offset=".94" stop-color="#FEF3C6"/>
        </linearGradient>
        <linearGradient id="v" x1=".706" y1="20.045" x2="16.966" y2="20.045" gradientUnits="userSpaceOnUse">
            <stop stop-color="#E0A300"/>
            <stop offset=".08" stop-color="#FFC524"/>
            <stop offset=".15" stop-color="#FFD759"/>
            <stop offset=".41" stop-color="#FFF4A5"/>
            <stop offset=".42" stop-color="#FEF09F"/>
            <stop offset=".44" stop-color="#FCE68F"/>
            <stop offset=".46" stop-color="#F9D574"/>
            <stop offset=".48" stop-color="#F5BD4F"/>
            <stop offset=".5" stop-color="#EF9E20"/>
            <stop offset=".52" stop-color="#EB8A00"/>
            <stop offset=".56" stop-color="#AD4300"/>
            <stop offset=".61" stop-color="#6E3500"/>
            <stop offset=".65" stop-color="#E09D00"/>
            <stop offset=".66" stop-color="#E7AA16"/>
            <stop offset=".67" stop-color="#F2BE37"/>
            <stop offset=".68" stop-color="#F9CC4E"/>
            <stop offset=".69" stop-color="#FFD761"/>
            <stop offset=".73" stop-color="#FFD75F"/>
            <stop offset=".75" stop-color="#FFD558"/>
            <stop offset=".76" stop-color="#FFCF3C"/>
            <stop offset=".77" stop-color="#FFCB29"/>
            <stop offset=".78" stop-color="#FBC525"/>
            <stop offset=".8" stop-color="#F0B41A"/>
            <stop offset=".81" stop-color="#DE9808"/>
            <stop offset=".82" stop-color="#DD9B16"/>
            <stop offset=".83" stop-color="#F0C34B"/>
            <stop offset=".84" stop-color="#FBDB6B"/>
            <stop offset=".85" stop-color="#FDE073"/>
            <stop offset=".86" stop-color="#FEE275"/>
            <stop offset=".94" stop-color="#FEF3C6"/>
        </linearGradient>
        <linearGradient id="w" x1="8.829" y1="29.084" x2="8.829" y2="11.09" gradientUnits="userSpaceOnUse">
            <stop stop-color="#9B071F"/>
            <stop offset=".32" stop-color="#E51D44"/>
            <stop offset=".54" stop-color="#CF1229"/>
            <stop offset=".76" stop-color="#FA0D1E"/>
            <stop offset="1" stop-color="#E00000"/>
        </linearGradient>
        <linearGradient id="x" x1="8.828" y1="20.739" x2="8.828" y2="13.048" gradientUnits="userSpaceOnUse">
            <stop stop-color="#D66F6F"/>
            <stop offset="1"/>
        </linearGradient>
        <radialGradient id="d" cx="0" cy="0" r="1" gradientUnits="userSpaceOnUse" gradientTransform="matrix(4.61762 0 0 17.5932 47.663 22.595)">
            <stop/>
            <stop offset=".22" stop-color="#040100"/>
            <stop offset=".44" stop-color="#100400"/>
            <stop offset=".67" stop-color="#250A00"/>
            <stop offset=".89" stop-color="#421200"/>
            <stop offset="1" stop-color="#521600"/>
        </radialGradient>
        <radialGradient id="g" cx="0" cy="0" r="1" gradientUnits="userSpaceOnUse" gradientTransform="matrix(4.26041 0 0 17.8085 22.618 17.877)">
            <stop/>
            <stop offset=".22" stop-color="#040100"/>
            <stop offset=".44" stop-color="#100400"/>
            <stop offset=".67" stop-color="#250A00"/>
            <stop offset=".89" stop-color="#421200"/>
            <stop offset="1" stop-color="#521600"/>
        </radialGradient>
        <clipPath id="a">
            <path fill="#fff" transform="translate(0 .065)" d="M0 0h72v41.062H0z"/>
        </clipPath>
    </defs>
</svg>
