<svg width="76" height="59" fill="none" xmlns="http://www.w3.org/2000/svg"><g clip-path="url(#a)"><path fill-rule="evenodd" clip-rule="evenodd" d="M30.725 2.728 31.863.979l1.534 1.157L34.7.514l1.41 1.3 1.457-1.49 1.278 1.434L40.44.418l1.13 1.553L43.285.794l.972 1.654 1.825-1.003.808 1.743 1.914-.821.631 1.816 1.987-.63.448 1.868 2.037-.429.264 1.903 2.072-.23.079 1.92 2.084-.028-.112 1.918 2.073.182-.297 1.896 2.047.383-.17.66 8.754-2.345-.316 9.679 5.114 8.227-8.7 2.33.424.504-1.554 1.129 1.177 1.719-1.654.972 1.005 1.824-1.746.81.82 1.911-1.815.634.628 1.986-1.864.446.431 2.039-1.903.266.228 2.072-1.92.078.025 2.082-1.918-.113-.178 2.076-1.897-.298-.38 2.047-1.863-.483-.579 1.998-1.805-.66-.772 1.931-1.73-.837-.96 1.85-1.64-1.005-1.137 1.75-1.527-1.157-1.308 1.624-1.411-1.301-1.457 1.487-1.274-1.433-1.594 1.341-1.13-1.555-1.72 1.18-.97-1.658-1.828 1.008-.806-1.746-1.91.82-.636-1.815-1.985.63-.446-1.868-2.042.434-.263-1.904-2.073.228-.076-1.92-2.082.026.11-1.919-2.071-.18.292-1.895-2.043-.384.17-.662-8.845 2.37.312-9.679L.5 30.061l8.788-2.355-.42-.501 1.549-1.129-1.173-1.721 1.653-.971-1.003-1.828 1.742-.806-.82-1.912 1.814-.63-.629-1.987 1.868-.45-.43-2.04 1.905-.264-.23-2.072 1.92-.076-.03-2.083 1.919.112.18-2.073 1.896.295.384-2.046 1.86.48.578-1.996 1.804.663.773-1.933 1.732.835.956-1.85 1.64 1.005z" fill="#542E00"/><path fill-rule="evenodd" clip-rule="evenodd" d="m41.896 43.973.106-2.051 1.985-.524-1.92-.736.111-2.05-1.29 1.6-1.917-.74 1.123 1.719-1.295 1.594 1.984-.537 1.113 1.725zm-7.642-.297.067-1.305 1.265-.34-1.222-.468.069-1.306-.823 1.017-1.222-.47.717 1.097-.827 1.017 1.268-.337.708 1.095zm-6.535-24.383.713 1.102 1.265-.343-.827 1.018.713 1.097-1.221-.471-.82 1.019.073-1.309-1.222-.465 1.266-.336.06-1.312zm6.47-4.077 1.119 1.725 1.982-.537-1.296 1.594 1.12 1.721-1.916-.741-1.288 1.603.112-2.05-1.92-.734 1.987-.526.1-2.055zm7.645.298.712 1.101 1.261-.342-.824 1.015.717 1.1-1.222-.472-.822 1.02.072-1.311-1.227-.466 1.269-.335.064-1.31zm6.534 24.383.067-1.306 1.262-.339-1.222-.469.072-1.306-.823 1.018-1.222-.47.717 1.096-.829 1.017 1.268-.34.71 1.1z" fill="url(#b)"/><path fill-rule="evenodd" clip-rule="evenodd" d="m64.26 32.17.584-.156a26.895 26.895 0 0 1-3.501 11.032c-3.443 5.964-9.16 10.616-16.335 12.538a26.808 26.808 0 0 1-20.412-2.69 26.917 26.917 0 0 1-8.552-7.806l.585-.156a26.358 26.358 0 0 0 8.248 7.472c5.84 3.37 12.963 4.516 19.982 2.63a26.366 26.366 0 0 0 19.4-22.865zm-11.706 5.806a16.757 16.757 0 0 1-25.593 4.187l-9.178 2.46a25.236 25.236 0 0 0 45.324-12.144l-9.182 2.46a16.976 16.976 0 0 1-1.371 3.037zM50.653 7.757a25.232 25.232 0 0 0-37.668 18.96l9.178-2.46a16.76 16.76 0 0 1 26.964-7.226l9.182-2.46a25.212 25.212 0 0 0-7.656-6.814zm-35.416 8.674c3.373-5.838 8.97-10.389 15.992-12.27a26.374 26.374 0 0 1 28.234 10.1l.585-.155A26.874 26.874 0 0 0 51.494 6.3c-5.962-3.441-13.237-4.61-20.413-2.688-7.175 1.922-12.89 6.572-16.333 12.534a26.914 26.914 0 0 0-3.503 11.036l.584-.156a26.39 26.39 0 0 1 3.408-10.595z" fill="url(#c)"/><path fill-rule="evenodd" clip-rule="evenodd" d="m6.57 46.362.265-8.404-4.43-7.143L69.43 12.856l-.27 8.403 4.436 7.143L6.57 46.362z" fill="url(#d)"/><path fill-rule="evenodd" clip-rule="evenodd" d="m7.007 45.81.252-7.964-4.2-6.772 65.934-17.666-.256 7.964 4.204 6.771L7.007 45.81z" fill="url(#e)"/><path d="m54.25 35.285 8.361-2.24a24.696 24.696 0 0 1-3.09 8.953c-3.312 5.738-8.66 9.842-15.058 11.555-6.4 1.714-13.08.834-18.817-2.479a24.652 24.652 0 0 1-7.15-6.207l8.359-2.242a17.175 17.175 0 0 0 27.394-7.34zM23.171 21.01a17.172 17.172 0 0 1 26.062-4.444l8.36-2.24a24.664 24.664 0 0 0-7.15-6.207c-5.739-3.31-12.42-4.192-18.82-2.477-6.398 1.716-11.74 5.818-15.055 11.556a24.593 24.593 0 0 0-3.088 8.952l8.36-2.241c.353-1.006.799-1.976 1.331-2.899z" fill="url(#f)"/><path d="M50.27 13.028a.92.92 0 0 1 .384-.279.874.874 0 0 1 .465-.049.914.914 0 0 1 .76 1.04.893.893 0 0 1-.194.43.894.894 0 0 1-.85.329.923.923 0 0 1-.76-1.04.926.926 0 0 1 .193-.43m-3.076-4.476.679.252-2.09 4.11-.377-.137.175-2.36-1.373 1.92-.376-.133 1.037-4.493.681.246-.547 2.231.928-1.32.387.14-.138 1.607 1.014-2.063zM43.255 8 42.1 7.755l-.237 1.123.794.169-.148.702-.793-.168-.265 1.241 1.15.244-.149.705-1.852-.395.948-4.476 1.855.393-.147.706zm-3.734-1.317v4.576h-.418l-1.097-2.322v2.322h-.718V6.682h.417l1.096 2.313V6.681h.72zm-7.788 3.287a.905.905 0 0 1 .622-1.124.903.903 0 0 1 1.127.623.918.918 0 0 1-.219.886.89.89 0 0 1-.405.239.882.882 0 0 1-.47.008.836.836 0 0 1-.41-.226.89.89 0 0 1-.245-.406zm-5.296-.18.607-.397 2.023 4.144-.334.218-1.775-1.558.705 2.256-.333.216-2.962-3.532.607-.393 1.45 1.78-.495-1.536.345-.226 1.199 1.078-1.037-2.05zm-2.862 2.946-.872.784.765.859.603-.546.484.536-.604.542.85.942.872-.788.482.536-1.408 1.27-3.062-3.401 1.407-1.268.483.534zm-3.171 2.142 3.655 2.755-.249.33-2.515-.52 1.852 1.399-.431.575-3.657-2.756.252-.334 2.509.52-1.846-1.393.43-.576zm-1.979 8.235a.88.88 0 0 1-.383-.277.87.87 0 0 1-.192-.427.915.915 0 0 1 .325-.852.907.907 0 0 1 .43-.193.918.918 0 0 1 .47.053.903.903 0 0 1 .387.278.922.922 0 0 1 .135.898.903.903 0 0 1-1.172.521zM56.633 38.45a.892.892 0 0 1-.372-.291.86.86 0 0 1-.175-.437.906.906 0 0 1 1.258-.946.934.934 0 0 1 .374.288.935.935 0 0 1 .175.436c.02.159-.005.32-.07.467a.903.903 0 0 1-1.19.482v.001zm-3.8 2.015.454-.565 3.205 3.32-.25.31-2.174-.935 1.37 1.925-.252.311-3.913-2.444.457-.565 1.932 1.243-.942-1.3.257-.322 1.473.653-1.618-1.631zm-1.742 3.06-.905.758.744.881.623-.521.46.55-.623.522.82.971.903-.754.46.551-1.451 1.218-2.943-3.507 1.452-1.217.46.549zm-2.931 1.379 2.357 3.92-.36.213-2.133-1.423 1.196 1.99-.616.372-2.36-3.924.357-.213 2.135 1.417-1.189-1.985.613-.367zm-5.78 4.964a.893.893 0 0 1 .19-.89.879.879 0 0 1 .396-.253.903.903 0 0 1 1.147.583.906.906 0 0 1-.188.892.953.953 0 0 1-.872.278.907.907 0 0 1-.417-.212.968.968 0 0 1-.256-.398zm-3.848-1.895.724.013-.642 4.569-.397-.007-.6-2.289-.674 2.267-.402-.01-.479-4.583.726.011.212 2.285.443-1.55.413.008.39 1.563.286-2.278zm-3.453.508-1.151-.242-.243 1.123.794.169-.148.701-.792-.165-.266 1.238 1.153.246-.15.706-1.853-.396.949-4.475 1.859.395-.152.7zm-2.743-1.38-1.79 4.211-.387-.16-.106-2.565-.908 2.136-.658-.28 1.787-4.215.386.162.107 2.561.903-2.13.666.28zm-7.492-1.564a.858.858 0 0 1 .375-.294.91.91 0 0 1 1.19.486.854.854 0 0 1 .067.463.878.878 0 0 1-.177.436.888.888 0 0 1-.372.292.877.877 0 0 1-.46.068.908.908 0 0 1-.44-.181.903.903 0 0 1-.361-.832.915.915 0 0 1 .178-.438zM24.316 35.722l-7.346-5.376-4.426 1.186 2.45 9.143 2.618-.703-1.839-6.868 7.35 5.392 4.426-1.187-2.45-9.142-2.618.701 1.835 6.854zM32.078 36.096l10.2-2.734-.555-2.07-7.415 1.988-.434-1.617 6.919-1.855-.485-1.809-6.918 1.855-.419-1.563 7.415-1.988-.559-2.083-10.199 2.732 2.45 9.144zM58.616 26.62l-4.133-6.326-3.355.899-.544 7.578-4.526-6.22-2.854.765 6.165 8.147 3.737-1 .377-7.052 3.767 5.94 3.781-1.014 1.318-10.151-2.836.76-.897 7.674zM9.406 36.28a.956.956 0 1 0 .498 1.847.956.956 0 0 0-.498-1.847zM66.102 21.089a.957.957 0 1 0 .5 1.847.957.957 0 0 0-.5-1.847z" fill="#fff"/></g><defs><linearGradient id="b" x1="28.501" y1="39.143" x2="47.59" y2="20.054" gradientUnits="userSpaceOnUse"><stop stop-color="#A3741E"/><stop offset=".06" stop-color="#E4C46A"/><stop offset=".25" stop-color="#A3741E"/><stop offset=".45" stop-color="#DEBE64"/><stop offset=".7" stop-color="#A3741E"/><stop offset=".76" stop-color="#E4C76F"/><stop offset="1" stop-color="#A3741E"/></linearGradient><linearGradient id="c" x1="19.022" y1="48.623" x2="57.073" y2="10.572" gradientUnits="userSpaceOnUse"><stop stop-color="#A3741E"/><stop offset=".06" stop-color="#E4C46A"/><stop offset=".25" stop-color="#A3741E"/><stop offset=".45" stop-color="#DEBE64"/><stop offset=".7" stop-color="#A3741E"/><stop offset=".76" stop-color="#E4C76F"/><stop offset="1" stop-color="#A3741E"/></linearGradient><linearGradient id="d" x1="13.909" y1="53.703" x2="62.094" y2="5.518" gradientUnits="userSpaceOnUse"><stop stop-color="#940004"/><stop offset=".06" stop-color="#FF0006"/><stop offset=".25" stop-color="#940004"/><stop offset=".45" stop-color="#FF0006"/><stop offset=".7" stop-color="#940004"/><stop offset=".76" stop-color="#FF0006"/><stop offset="1" stop-color="#940004"/></linearGradient><linearGradient id="e" x1="5.767" y1="20.973" x2="70.237" y2="38.248" gradientUnits="userSpaceOnUse"><stop stop-color="#940004"/><stop offset=".06" stop-color="#FF0006"/><stop offset=".25" stop-color="#940004"/><stop offset=".45" stop-color="#FF0006"/><stop offset=".7" stop-color="#940004"/><stop offset=".76" stop-color="#FF0006"/><stop offset="1" stop-color="#940004"/></linearGradient><linearGradient id="f" x1="14.085" y1="23.178" x2="62.009" y2="36.019" gradientUnits="userSpaceOnUse"><stop stop-color="#A3741E"/><stop offset=".06" stop-color="#E4C46A"/><stop offset=".25" stop-color="#A3741E"/><stop offset=".45" stop-color="#DEBE64"/><stop offset=".7" stop-color="#A3741E"/><stop offset=".76" stop-color="#E4C76F"/><stop offset="1" stop-color="#A3741E"/></linearGradient><clipPath id="a"><path fill="#fff" transform="translate(.5 .324)" d="M0 0h75v58.545H0z"/></clipPath></defs></svg>